<svg xmlns="http://www.w3.org/2000/svg" viewBox="0 0 275.31 52.48"><path d="M154.12,285.8a4.91,4.91,0,0,1,.39.51c.12.18.23.34.34.52.2.34.37.69.51,1s.25.55.32.73.1.3.1.3l-.31-.06-.34-.08-.42-.15-.49-.22-.26-.13-.26-.17a4.42,4.42,0,0,1-1-.87,3.87,3.87,0,0,1-.39-.54,2.54,2.54,0,0,1-.16-.28c0-.1-.09-.19-.13-.29a6,6,0,0,1-.34-1,6.14,6.14,0,0,1-.1-.78c0-.19,0-.3,0-.3l.25.11.26.14.35.19c.24.15.52.36.81.58a4.88,4.88,0,0,1,.43.38l.11.11.11.11Z" transform="translate(-134.09 -241.04)" fill="#ba8c1a"/><path d="M152.48,290.63c.25,0,.49-.08.72-.13a4.14,4.14,0,0,0,.65-.23,5.75,5.75,0,0,0,1-.55,7.12,7.12,0,0,0,.65-.51l.22-.22-.3-.09-.35-.07-.44-.1-.54-.07-.29,0-.31,0a8.93,8.93,0,0,0-1.36,0c-.24,0-.48.06-.7.1l-.34.07-.32.08c-.42.11-.8.25-1.13.37s-.58.24-.77.33l-.28.15.3.17.36.18a4.37,4.37,0,0,0,.48.19,6.56,6.56,0,0,0,1.24.33c.24,0,.48.06.72.07h.38Z" transform="translate(-134.09 -241.04)" fill="#ba8c1a"/><path d="M149.89,283.78c.09.2.19.38.27.58s.15.39.21.58.06.2.09.29.06.19.08.28.09.35.13.51c.07.32.11.6.14.8l0,.23v.08l-.08,0-.2-.1a7.49,7.49,0,0,1-.7-.4,5.29,5.29,0,0,1-.43-.32c-.14-.13-.29-.26-.44-.41l-.11-.11-.1-.12c-.07-.09-.14-.17-.2-.26a5.5,5.5,0,0,1-.36-.57,5.09,5.09,0,0,1-.43-1.24,4.88,4.88,0,0,1-.09-1.1,5,5,0,0,1,.06-.78c0-.19.06-.3.06-.3l.06.05.15.12a4.34,4.34,0,0,1,.53.46A7.24,7.24,0,0,1,149.89,283.78Z" transform="translate(-134.09 -241.04)" fill="#ba8c1a"/><path d="M147.23,288.12a4.67,4.67,0,0,0,.74,0,4.73,4.73,0,0,0,.68-.07L149,288l.29-.07.52-.18a5.93,5.93,0,0,0,.74-.35l.19-.12.07-.05-.27-.15c-.18-.09-.43-.21-.74-.34l-.5-.2-.57-.19-.16,0-.16,0-.32-.08c-.22,0-.46-.09-.7-.12A8.1,8.1,0,0,0,146,286c-.43,0-.83.06-1.17.11s-.63.11-.83.16l-.31.07.07.07a1.15,1.15,0,0,0,.19.17,6.75,6.75,0,0,0,.74.55l.25.16.27.15.62.28.33.13.35.1A6,6,0,0,0,147.23,288.12Z" transform="translate(-134.09 -241.04)" fill="#ba8c1a"/><path d="M146.2,280.86a4.42,4.42,0,0,1,.14.63c0,.1,0,.21,0,.31l0,.31a7.19,7.19,0,0,1,.05,1.11q0,.51,0,.81c0,.19,0,.31,0,.31l-.25-.19a3.89,3.89,0,0,1-.6-.55c-.11-.12-.23-.25-.35-.4a4.81,4.81,0,0,1-.33-.5,5.18,5.18,0,0,1-.31-.57,6,6,0,0,1-.22-.64,4,4,0,0,1-.13-.66c0-.22,0-.44,0-.64a5,5,0,0,1,.05-.58,3.54,3.54,0,0,1,.1-.51,4.92,4.92,0,0,1,.23-.75c.07-.18.12-.28.12-.28a1.82,1.82,0,0,1,.17.21,2.88,2.88,0,0,1,.19.24l.22.33a4.66,4.66,0,0,1,.25.4l.12.23.06.12.06.12a3.82,3.82,0,0,1,.24.54c0,.09.06.19.1.29Z" transform="translate(-134.09 -241.04)" fill="#ba8c1a"/><path d="M142.67,284.51a6.82,6.82,0,0,0,.71.19l.35.06.33,0a5.39,5.39,0,0,0,1.17,0,5.46,5.46,0,0,0,.8-.18l.29-.1-.24-.21c-.15-.12-.36-.3-.64-.5-.13-.09-.28-.2-.45-.3l-.51-.31a5.59,5.59,0,0,0-.6-.3,5.36,5.36,0,0,0-.64-.28l-.68-.21-.65-.15-.62-.09-.56-.06c-.34,0-.63,0-.84,0h-.32s.07.11.21.29.15.2.25.32a3.92,3.92,0,0,0,.35.38l.44.42.26.21.13.1.15.1a5.34,5.34,0,0,0,.62.37l.33.17Z" transform="translate(-134.09 -241.04)" fill="#ba8c1a"/><path d="M143.24,277.19v.65a4.21,4.21,0,0,1,0,.62,5.4,5.4,0,0,1-.09.58c0,.18-.06.36-.1.52-.07.32-.15.59-.21.78s-.1.29-.1.29-.08-.08-.2-.23a2.77,2.77,0,0,1-.21-.29,3.13,3.13,0,0,1-.25-.38,5.49,5.49,0,0,1-.48-1,5.8,5.8,0,0,1-.16-.63,3.61,3.61,0,0,1-.09-.67c0-.24,0-.46,0-.68a3.09,3.09,0,0,1,.11-.62,5.42,5.42,0,0,1,.38-1l.1-.2.1-.18c.07-.12.14-.21.19-.29l.18-.25.12.24c.07.16.18.38.28.65s.1.29.14.45a3.8,3.8,0,0,1,.15.51c0,.18.07.37.1.57A4.19,4.19,0,0,1,143.24,277.19Z" transform="translate(-134.09 -241.04)" fill="#ba8c1a"/><path d="M139,280l.33.19.16.08.16.08a6.35,6.35,0,0,0,.65.23,5.13,5.13,0,0,0,.6.14l.55.06a5.77,5.77,0,0,0,.82,0l.3,0-.18-.25c-.06-.08-.13-.18-.22-.28l-.3-.35a10.29,10.29,0,0,0-.81-.81,5.5,5.5,0,0,0-.51-.43c-.18-.14-.38-.28-.57-.41s-.41-.25-.62-.36-.41-.2-.61-.29a8.08,8.08,0,0,0-1.11-.41l-.24-.07-.21-.06-.36-.09a2.28,2.28,0,0,0-.31-.06s0,.12.13.33a8,8,0,0,0,.44.81c.1.16.21.33.34.51s.28.34.44.52a6.2,6.2,0,0,0,.52.5A6.85,6.85,0,0,0,139,280Z" transform="translate(-134.09 -241.04)" fill="#ba8c1a"/><path d="M141.14,273a6.62,6.62,0,0,1-.33,1.22,10.43,10.43,0,0,1-.42,1c-.15.3-.29.55-.38.72l-.16.26-.15-.27c-.08-.18-.19-.44-.3-.76a5.39,5.39,0,0,1-.24-1.11l0-.32v-.33a5.08,5.08,0,0,1,.07-.67,3.4,3.4,0,0,1,.07-.34c0-.11.07-.21.11-.32a5,5,0,0,1,.24-.58,5.23,5.23,0,0,1,.6-.92,4.46,4.46,0,0,1,.53-.57,2.65,2.65,0,0,1,.22-.2,4.56,4.56,0,0,1,.19.95,6,6,0,0,1,.08,1A5.8,5.8,0,0,1,141.14,273Z" transform="translate(-134.09 -241.04)" fill="#ba8c1a"/><path d="M136.4,274.72a5.69,5.69,0,0,0,1.14.86,6.21,6.21,0,0,0,1.08.46,5.55,5.55,0,0,0,.8.18,2.2,2.2,0,0,0,.31,0l-.13-.28a7.2,7.2,0,0,0-.37-.73c-.17-.29-.36-.63-.61-1-.06-.09-.13-.17-.2-.26l-.2-.27c-.14-.18-.3-.35-.47-.53l-.27-.25-.25-.23-.53-.42a11,11,0,0,0-1-.65c-.3-.18-.56-.31-.75-.4l-.3-.13a7.53,7.53,0,0,0,.31,1.24,9,9,0,0,0,.53,1.18A6.7,6.7,0,0,0,136.4,274.72Z" transform="translate(-134.09 -241.04)" fill="#ba8c1a"/><path d="M140,268.37a6.19,6.19,0,0,1-.28.58c-.1.19-.2.36-.31.54-.21.34-.45.65-.64.9s-.39.47-.52.61a2.71,2.71,0,0,1-.22.23l-.08-.3c0-.1,0-.22-.08-.35l0-.21a1.94,1.94,0,0,1,0-.24,4.63,4.63,0,0,1,0-.54,4.22,4.22,0,0,1,0-.6,4.76,4.76,0,0,1,.11-.64l.09-.32c0-.11.08-.22.13-.33a5.65,5.65,0,0,1,.31-.6,4.67,4.67,0,0,1,.36-.51,6.25,6.25,0,0,1,.79-.77,3.49,3.49,0,0,1,.35-.26l.29-.18a1.84,1.84,0,0,1,.26-.14s0,.1,0,.27,0,.41,0,.7,0,.31-.06.47,0,.34-.09.53-.09.37-.15.56A5.39,5.39,0,0,1,140,268.37Z" transform="translate(-134.09 -241.04)" fill="#ba8c1a"/><path d="M135,269a4.6,4.6,0,0,0,.43.6,5.66,5.66,0,0,0,.49.49,4.92,4.92,0,0,0,1,.69,5.3,5.3,0,0,0,.73.36l.3.1-.06-.31-.08-.34-.06-.22-.06-.23c0-.16-.1-.34-.17-.52s-.14-.37-.22-.57-.17-.4-.27-.61l-.17-.31c-.06-.1-.11-.2-.18-.31s-.26-.4-.4-.59-.29-.36-.43-.52a8.57,8.57,0,0,0-.82-.86l-.36-.32-.28-.23a2.52,2.52,0,0,0-.26-.19s0,.13,0,.35a6.81,6.81,0,0,0,0,.93c0,.18.05.39.09.6s.11.44.18.66a5.54,5.54,0,0,0,.25.68A5.44,5.44,0,0,0,135,269Z" transform="translate(-134.09 -241.04)" fill="#ba8c1a"/><path d="M139.94,263.63a6.4,6.4,0,0,1-.4.51,6,6,0,0,1-.42.45,7.6,7.6,0,0,1-.82.74l-.36.28-.28.21-.26.17s0-.12,0-.31a5.35,5.35,0,0,1,.05-.82c0-.16,0-.34.09-.53a5.26,5.26,0,0,1,.17-.58c.07-.19.15-.39.24-.59a4.32,4.32,0,0,1,.36-.58,3.67,3.67,0,0,1,.42-.52,4.51,4.51,0,0,1,.48-.42,5.11,5.11,0,0,1,.92-.58,6.73,6.73,0,0,1,.73-.29l.28-.08s0,.1,0,.27,0,.18-.08.3l-.05.18a1.94,1.94,0,0,1,0,.2q-.06.21-.15.45c-.06.15-.14.31-.21.49s-.16.34-.26.51-.11.18-.17.27Z" transform="translate(-134.09 -241.04)" fill="#ba8c1a"/><path d="M134.91,263.17a6.08,6.08,0,0,0,.31.68,3.77,3.77,0,0,0,.36.58,5.84,5.84,0,0,0,.78.88,3,3,0,0,0,.35.3,2.06,2.06,0,0,0,.29.21l.26.17s0-.12,0-.31,0-.49,0-.82c0-.17,0-.35-.06-.55s0-.39-.08-.6-.09-.43-.14-.65-.12-.45-.2-.68-.18-.46-.27-.67-.19-.41-.3-.61c-.2-.38-.43-.73-.62-1s-.37-.52-.5-.68-.21-.24-.21-.24,0,.12-.1.34l-.08.4a1.5,1.5,0,0,0,0,.24,2.48,2.48,0,0,0,0,.27c0,.19,0,.4,0,.62a5.3,5.3,0,0,0,0,.68,6,6,0,0,0,.11.72c0,.12,0,.25.08.37S134.87,263,134.91,263.17Z" transform="translate(-134.09 -241.04)" fill="#ba8c1a"/><path d="M140.88,259l-.25.21-.25.2-.51.35q-.52.31-1,.54c-.29.15-.55.25-.73.33l-.3.11a6.47,6.47,0,0,1,.27-1.09,8,8,0,0,1,.5-1,4.37,4.37,0,0,1,1.92-1.73,6.06,6.06,0,0,1,1-.35,4.8,4.8,0,0,1,.76-.12h.3a1.75,1.75,0,0,1-.11.24,4.15,4.15,0,0,1-.32.63,7.39,7.39,0,0,1-.55.83l-.18.22-.19.23A4.57,4.57,0,0,1,140.88,259Z" transform="translate(-134.09 -241.04)" fill="#ba8c1a"/><path d="M136.07,257.42l.06.37.09.36a5.49,5.49,0,0,0,.23.65,4.81,4.81,0,0,0,.57,1,6.45,6.45,0,0,0,.51.64l.22.22a7.19,7.19,0,0,0,.23-1.11,7.49,7.49,0,0,0,.11-1.15,6.48,6.48,0,0,0,0-1.38,7.39,7.39,0,0,0-.27-1.37,9.93,9.93,0,0,0-.38-1.13c-.13-.33-.26-.59-.34-.78s-.15-.28-.15-.28-.07.11-.17.31a6.78,6.78,0,0,0-.35.86,6.48,6.48,0,0,0-.3,1.26c0,.11,0,.23,0,.35s0,.25,0,.38A6.56,6.56,0,0,0,136.07,257.42Z" transform="translate(-134.09 -241.04)" fill="#ba8c1a"/><path d="M142.8,254.68a5.07,5.07,0,0,1-.57.29l-.57.22a10.17,10.17,0,0,1-1.06.32l-.44.09-.34.06-.31,0,.12-.29a7,7,0,0,1,.69-1.15,5.39,5.39,0,0,1,.4-.45c.15-.14.3-.29.47-.43a5.57,5.57,0,0,1,.57-.37l.3-.15.15-.07.16-.06a5,5,0,0,1,.6-.17l.57-.09.52,0a6.52,6.52,0,0,1,.77.06,1.76,1.76,0,0,1,.29.05l-.15.22-.19.24-.27.3a6,6,0,0,1-.72.68,5.46,5.46,0,0,1-.45.36Z" transform="translate(-134.09 -241.04)" fill="#ba8c1a"/><path d="M138.47,252.07a4.76,4.76,0,0,0,0,.75,3.83,3.83,0,0,0,.08.69,6.44,6.44,0,0,0,.32,1.13c0,.08.07.16.1.23l.09.2.18.31.16.27a2.84,2.84,0,0,0,.14-.28c.08-.19.21-.44.33-.75a5.24,5.24,0,0,0,.18-.52c.07-.18.13-.37.19-.58s.1-.42.15-.65.08-.46.11-.7,0-.24,0-.36l0-.36c0-.23,0-.46,0-.68a6.12,6.12,0,0,0-.06-.63c0-.2,0-.38-.07-.56,0-.34-.11-.63-.16-.83s-.09-.31-.09-.31a3.18,3.18,0,0,0-.23.27,3.78,3.78,0,0,0-.24.32,3.2,3.2,0,0,0-.29.43,7.39,7.39,0,0,0-.56,1.16,7.16,7.16,0,0,0-.22.7A3.67,3.67,0,0,0,138.47,252.07Z" transform="translate(-134.09 -241.04)" fill="#ba8c1a"/><path d="M145.63,250.91c-.21.06-.42.1-.63.14a4.17,4.17,0,0,1-.6.1l-.58,0-.52,0-.8,0-.31,0a2.54,2.54,0,0,1,.18-.25c.06-.08.13-.18.22-.28a4.57,4.57,0,0,1,.31-.34c.12-.11.25-.23.4-.35l.23-.18.12-.09.13-.09c.18-.11.36-.21.56-.31l.31-.13L145,249a5.13,5.13,0,0,1,.66-.13l.31,0h.31a5.41,5.41,0,0,1,1.08.13,5.49,5.49,0,0,1,.75.22,2.42,2.42,0,0,1,.27.12l-.2.18c-.13.1-.32.26-.55.42a3,3,0,0,1-.4.25l-.46.27a5.27,5.27,0,0,1-.53.23C146,250.77,145.84,250.84,145.63,250.91Z" transform="translate(-134.09 -241.04)" fill="#ba8c1a"/><path d="M142,247.4a4.74,4.74,0,0,0-.18.72,5.76,5.76,0,0,0-.07.69,4.21,4.21,0,0,0,0,.62c0,.2,0,.39.06.56a6.39,6.39,0,0,0,.19.8,2.19,2.19,0,0,0,.11.29s.08-.08.2-.23l.22-.29c.08-.11.16-.24.26-.37s.19-.29.29-.46l.15-.26.08-.14.07-.13c.1-.19.2-.39.29-.6s.09-.22.13-.33.09-.22.13-.33a6,6,0,0,0,.2-.69c0-.12.05-.23.07-.34s.05-.22.06-.33a9.51,9.51,0,0,0,.14-1.19c0-.35,0-.64,0-.85s0-.32,0-.32a3.18,3.18,0,0,0-.28.21,5.62,5.62,0,0,0-.68.62l-.41.45c-.13.17-.26.36-.39.56s-.25.41-.37.63A6.56,6.56,0,0,0,142,247.4Z" transform="translate(-134.09 -241.04)" fill="#ba8c1a"/><path d="M149.2,247.84a6.6,6.6,0,0,1-1.26,0,9.82,9.82,0,0,1-1.08-.17c-.32-.07-.59-.15-.78-.21l-.29-.09.06-.06s.09-.09.17-.15a5.8,5.8,0,0,1,.65-.48,5.08,5.08,0,0,1,2.29-.77,3.7,3.7,0,0,1,.67,0,4,4,0,0,1,.62.1l.28.07.27.09.48.21a4.64,4.64,0,0,1,.67.37l.18.13.07,0-.24.13a4.93,4.93,0,0,1-.63.29l-.44.16a3.8,3.8,0,0,1-.51.15l-.13,0-.14,0-.29.05A4.05,4.05,0,0,1,149.2,247.84Z" transform="translate(-134.09 -241.04)" fill="#ba8c1a"/><path d="M146.38,243.6a5.87,5.87,0,0,0-.55,1.33,6.08,6.08,0,0,0-.18,1.17,5.3,5.3,0,0,0,0,.82c0,.2,0,.31,0,.31l.06,0,.18-.14a6.91,6.91,0,0,0,.62-.53,9.64,9.64,0,0,0,1.6-1.95c.12-.21.24-.41.34-.62a6.64,6.64,0,0,0,.28-.62c0-.11.08-.21.11-.31s.08-.19.11-.28.12-.37.17-.54c.1-.34.16-.63.2-.83l0-.24,0-.08-.09,0-.24.11a6.92,6.92,0,0,0-.79.46,3.12,3.12,0,0,0-.5.36c-.16.13-.34.28-.51.44l-.12.13-.13.13-.23.28A6.37,6.37,0,0,0,146.38,243.6Z" transform="translate(-134.09 -241.04)" fill="#ba8c1a"/><path d="M151.87,241.76a5.64,5.64,0,0,0-.64.37,2.83,2.83,0,0,0-.28.2,3,3,0,0,0-.26.22,6.14,6.14,0,0,0-.8.86,5.19,5.19,0,0,0-.44.7,2.77,2.77,0,0,0-.14.28l.31,0,.35,0,.45-.06a10.64,10.64,0,0,0,1.12-.25,6.46,6.46,0,0,0,.63-.2l.16-.06.16-.06.33-.14a6.31,6.31,0,0,0,.63-.34c.2-.11.39-.23.57-.35.36-.24.68-.5.95-.72a6.39,6.39,0,0,0,.62-.57c.15-.14.23-.23.23-.23l-.35-.07-.4-.05-.51,0c-.19,0-.39,0-.61,0l-.33,0-.34.05A5.62,5.62,0,0,0,151.87,241.76Z" transform="translate(-134.09 -241.04)" fill="#ba8c1a"/><path d="M167.6,293.52a.42.42,0,0,1-.28-.1c-2.71-2.35-11.56-4-11.65-4-9.58-2.37-14.11-8.41-16.24-13.06-3.43-7.52-2.82-16.2-.43-20.9,4.18-8.22,12.28-12.94,12.37-13a.43.43,0,0,1,.59.16.44.44,0,0,1-.16.59c-.08,0-8,4.64-12,12.62-2.29,4.51-2.87,12.88.45,20.15,2,4.48,6.42,10.29,15.63,12.58.35.06,9.15,1.7,12,4.19a.43.43,0,0,1-.29.76Z" transform="translate(-134.09 -241.04)" fill="#ba8c1a"/><path d="M171.54,285.8a4.91,4.91,0,0,0-.39.51c-.12.18-.23.34-.34.52a9.4,9.4,0,0,0-.51,1c-.14.29-.25.55-.32.73s-.1.3-.1.3l.3-.06.34-.08.43-.15.49-.22.26-.13L172,288a4.42,4.42,0,0,0,1-.87,4.91,4.91,0,0,0,.39-.54,2.54,2.54,0,0,0,.16-.28c.05-.1.09-.19.13-.29a5.14,5.14,0,0,0,.33-1,4.94,4.94,0,0,0,.11-.78c0-.19,0-.3,0-.3a1.52,1.52,0,0,0-.25.11l-.27.14-.34.19a9.81,9.81,0,0,0-.81.58,3.78,3.78,0,0,0-.43.38l-.11.11-.11.11C171.69,285.64,171.61,285.71,171.54,285.8Z" transform="translate(-134.09 -241.04)" fill="#ba8c1a"/><path d="M173.18,290.63a7.13,7.13,0,0,1-.72-.13,4.67,4.67,0,0,1-.66-.23,6.12,6.12,0,0,1-1-.55c-.28-.2-.49-.38-.64-.51l-.22-.22.3-.09.34-.07.45-.1.53-.07.3,0,.31,0a8.93,8.93,0,0,1,1.36,0c.24,0,.47.06.7.1l.34.07.32.08c.41.11.8.25,1.12.37a7.3,7.3,0,0,1,.77.33l.29.15-.31.17a2.25,2.25,0,0,1-.35.18,4.56,4.56,0,0,1-.49.19,6.17,6.17,0,0,1-1.24.33c-.23,0-.47.06-.71.07h-.38Z" transform="translate(-134.09 -241.04)" fill="#ba8c1a"/><path d="M175.77,283.78c-.1.2-.19.38-.27.58s-.15.39-.22.58-.06.2-.08.29-.06.19-.08.28-.09.35-.13.51c-.07.32-.11.6-.14.8l0,.23v.08l.07,0,.21-.1a7.49,7.49,0,0,0,.7-.4,5.29,5.29,0,0,0,.43-.32c.14-.13.29-.26.44-.41l.1-.11.11-.12.2-.26a5.5,5.5,0,0,0,.36-.57,5.56,5.56,0,0,0,.43-1.24,6.41,6.41,0,0,0,.09-1.1,5,5,0,0,0-.06-.78c0-.19-.06-.3-.06-.3l-.06.05-.15.12a4.34,4.34,0,0,0-.53.46A7,7,0,0,0,175.77,283.78Z" transform="translate(-134.09 -241.04)" fill="#ba8c1a"/><path d="M178.42,288.12a4.58,4.58,0,0,1-.74,0,5.05,5.05,0,0,1-.68-.07c-.1,0-.21,0-.31-.06l-.29-.07-.52-.18a5.93,5.93,0,0,1-.74-.35l-.19-.12-.07-.05.27-.15c.17-.09.42-.21.73-.34l.51-.2.57-.19.16,0,.16,0,.32-.08a6.78,6.78,0,0,1,.7-.12,8,8,0,0,1,1.37-.06c.44,0,.83.06,1.18.11s.63.11.83.16l.31.07-.07.07a1.15,1.15,0,0,1-.19.17,7.9,7.9,0,0,1-.74.55l-.25.16-.28.15c-.19.09-.39.19-.61.28l-.33.13-.36.1A5.7,5.7,0,0,1,178.42,288.12Z" transform="translate(-134.09 -241.04)" fill="#ba8c1a"/><path d="M179.46,280.86a4.42,4.42,0,0,0-.14.63c0,.1,0,.21,0,.31l0,.31a7.19,7.19,0,0,0-.05,1.11q0,.51,0,.81a3.06,3.06,0,0,0,0,.31l.25-.19a3.48,3.48,0,0,0,.59-.55,4.81,4.81,0,0,0,.36-.4c.11-.15.22-.32.33-.5s.21-.37.31-.57a6,6,0,0,0,.22-.64,4,4,0,0,0,.12-.66c0-.22,0-.44,0-.64s0-.4-.05-.58a3.54,3.54,0,0,0-.1-.51,4.92,4.92,0,0,0-.23-.75c-.07-.18-.12-.28-.12-.28a2.58,2.58,0,0,0-.18.21l-.18.24-.22.33a4.66,4.66,0,0,0-.25.4l-.12.23-.06.12-.06.12a3.82,3.82,0,0,0-.24.54c0,.09-.07.19-.1.29Z" transform="translate(-134.09 -241.04)" fill="#ba8c1a"/><path d="M183,284.51a7,7,0,0,1-.72.19l-.34.06-.33,0a5.39,5.39,0,0,1-1.17,0,5.46,5.46,0,0,1-.8-.18l-.29-.1.23-.21c.16-.12.37-.3.64-.5s.29-.2.46-.3l.51-.31a6.54,6.54,0,0,1,.59-.3,6.36,6.36,0,0,1,.65-.28l.68-.21.65-.15.62-.09.56-.06c.34,0,.63,0,.83,0h.33s-.07.11-.21.29l-.25.32a3.92,3.92,0,0,1-.35.38l-.45.42-.25.21-.14.1-.14.1a6.34,6.34,0,0,1-.62.37l-.34.17Z" transform="translate(-134.09 -241.04)" fill="#ba8c1a"/><path d="M182.42,277.19v.65c0,.21,0,.42.05.62s.06.39.1.58.06.36.1.52c.07.32.15.59.21.78s.1.29.1.29.08-.08.2-.23l.21-.29a3.13,3.13,0,0,0,.25-.38,7.12,7.12,0,0,0,.48-1,5.8,5.8,0,0,0,.16-.63,3.61,3.61,0,0,0,.09-.67c0-.24,0-.46,0-.68a4,4,0,0,0-.11-.62,5.42,5.42,0,0,0-.38-1l-.1-.2a1.42,1.42,0,0,0-.11-.18,3.06,3.06,0,0,0-.18-.29l-.18-.25-.12.24c-.07.16-.18.38-.28.65l-.15.45c0,.16-.1.33-.14.51s-.07.37-.1.57A4.19,4.19,0,0,0,182.42,277.19Z" transform="translate(-134.09 -241.04)" fill="#ba8c1a"/><path d="M186.66,280l-.33.19-.16.08-.17.08a6.21,6.21,0,0,1-.64.23,5.13,5.13,0,0,1-.6.14l-.55.06a5.77,5.77,0,0,1-.82,0l-.3,0,.18-.25c.06-.08.13-.18.22-.28l.3-.35a8.81,8.81,0,0,1,.81-.81,5.34,5.34,0,0,1,.5-.43c.19-.14.38-.28.58-.41s.41-.25.61-.36.42-.2.61-.29a8.69,8.69,0,0,1,1.12-.41l.24-.07.21-.06.36-.09a2,2,0,0,1,.31-.06s0,.12-.13.33a8,8,0,0,1-.44.81l-.34.51c-.13.17-.28.34-.44.52a6.2,6.2,0,0,1-.52.5A6.85,6.85,0,0,1,186.66,280Z" transform="translate(-134.09 -241.04)" fill="#ba8c1a"/><path d="M184.52,273a6.62,6.62,0,0,0,.33,1.22,10.43,10.43,0,0,0,.42,1c.14.3.28.55.38.72a1.94,1.94,0,0,0,.16.26l.15-.27c.08-.18.19-.44.3-.76a5.39,5.39,0,0,0,.24-1.11c0-.1,0-.21,0-.32a1.82,1.82,0,0,0,0-.33,5.05,5.05,0,0,0-.06-.67c0-.12-.05-.23-.07-.34l-.11-.32a5,5,0,0,0-.24-.58,5.23,5.23,0,0,0-.6-.92,4.46,4.46,0,0,0-.53-.57,2.65,2.65,0,0,0-.22-.2,4.56,4.56,0,0,0-.19.95,5.06,5.06,0,0,0-.08,1A5.8,5.8,0,0,0,184.52,273Z" transform="translate(-134.09 -241.04)" fill="#ba8c1a"/><path d="M189.26,274.72a6,6,0,0,1-1.14.86A6.28,6.28,0,0,1,187,276a5.19,5.19,0,0,1-.79.18,2.2,2.2,0,0,1-.31,0s0-.1.13-.28.2-.44.36-.73.37-.63.62-1l.19-.26.21-.27c.14-.18.3-.35.47-.53a3.07,3.07,0,0,0,.26-.25l.26-.23c.18-.15.35-.29.53-.42a11,11,0,0,1,1-.65c.3-.18.56-.31.75-.4a2.55,2.55,0,0,1,.3-.13,9,9,0,0,1-.31,1.24,8,8,0,0,1-.54,1.18A6.2,6.2,0,0,1,189.26,274.72Z" transform="translate(-134.09 -241.04)" fill="#ba8c1a"/><path d="M185.63,268.37a6.19,6.19,0,0,0,.28.58c.1.19.2.36.31.54.21.34.45.65.64.9s.39.47.52.61a2.71,2.71,0,0,0,.22.23l.08-.3c0-.1,0-.22.07-.35a1.55,1.55,0,0,0,0-.21,1.94,1.94,0,0,0,0-.24c0-.17,0-.35,0-.54a4.16,4.16,0,0,0,0-.6,4.8,4.8,0,0,0-.12-.64,1.68,1.68,0,0,0-.09-.32,2.19,2.19,0,0,0-.12-.33,5.65,5.65,0,0,0-.31-.6,3.68,3.68,0,0,0-.37-.51,5.61,5.61,0,0,0-.78-.77,3.49,3.49,0,0,0-.35-.26l-.29-.18a1.84,1.84,0,0,0-.26-.14s0,.1,0,.27a6.06,6.06,0,0,0,0,.7,4,4,0,0,0,.06.47c0,.17,0,.34.09.53s.09.37.15.56A3.91,3.91,0,0,0,185.63,268.37Z" transform="translate(-134.09 -241.04)" fill="#ba8c1a"/><path d="M190.63,269a5.78,5.78,0,0,1-.43.6,5.66,5.66,0,0,1-.49.49,5.24,5.24,0,0,1-1,.69,5.32,5.32,0,0,1-.74.36l-.29.1.06-.31.08-.34.06-.22.06-.23c0-.16.1-.34.17-.52s.14-.37.22-.57a4.56,4.56,0,0,1,.27-.61l.17-.31c.06-.1.11-.2.18-.31s.26-.4.4-.59l.42-.52a9.88,9.88,0,0,1,.83-.86l.36-.32.28-.23.25-.19s0,.13,0,.35,0,.55-.06.93a4.86,4.86,0,0,1-.09.6,5.83,5.83,0,0,1-.17.66,5.54,5.54,0,0,1-.25.68A5.44,5.44,0,0,1,190.63,269Z" transform="translate(-134.09 -241.04)" fill="#ba8c1a"/><path d="M185.72,263.63a6.26,6.26,0,0,0,.39.51c.14.16.29.31.43.45a6.76,6.76,0,0,0,.82.74l.36.28.28.21.26.17s0-.12,0-.31a7,7,0,0,0-.05-.82c0-.16,0-.34-.09-.53s-.1-.38-.17-.58-.15-.39-.24-.59a5.65,5.65,0,0,0-.36-.58,3.67,3.67,0,0,0-.42-.52,4.51,4.51,0,0,0-.48-.42,4.84,4.84,0,0,0-.93-.58,6,6,0,0,0-.72-.29l-.28-.08s0,.1,0,.27l.07.3.06.18a1.94,1.94,0,0,0,0,.2q.06.21.15.45c.06.15.14.31.21.49a4.92,4.92,0,0,0,.26.51c.05.09.11.18.17.27S185.66,263.54,185.72,263.63Z" transform="translate(-134.09 -241.04)" fill="#ba8c1a"/><path d="M190.75,263.17a6.08,6.08,0,0,1-.31.68,3.77,3.77,0,0,1-.36.58,5.84,5.84,0,0,1-.78.88,3,3,0,0,1-.35.3,2.86,2.86,0,0,1-.29.21l-.26.17s0-.12,0-.31,0-.49,0-.82c0-.17,0-.35.06-.55a4.51,4.51,0,0,1,.08-.6,5.42,5.42,0,0,1,.14-.65,5.82,5.82,0,0,1,.2-.68c.08-.23.18-.46.27-.67s.19-.41.29-.61c.21-.38.44-.73.63-1s.37-.52.5-.68.21-.24.21-.24,0,.12.1.34l.08.4c0,.07,0,.15,0,.24l0,.27c0,.19,0,.4,0,.62s0,.44,0,.68-.06.48-.11.72,0,.25-.08.37S190.79,263,190.75,263.17Z" transform="translate(-134.09 -241.04)" fill="#ba8c1a"/><path d="M184.78,259l.25.21.25.2.51.35q.53.31,1,.54c.29.15.55.25.73.33l.29.11a5.46,5.46,0,0,0-.27-1.09,6.76,6.76,0,0,0-.49-1,4.37,4.37,0,0,0-1.92-1.73,6.36,6.36,0,0,0-1-.35,4.8,4.8,0,0,0-.76-.12H183a1.75,1.75,0,0,0,.11.24,5.06,5.06,0,0,0,.31.63,7.59,7.59,0,0,0,.56.83,1.24,1.24,0,0,0,.18.22l.19.23A4.57,4.57,0,0,0,184.78,259Z" transform="translate(-134.09 -241.04)" fill="#ba8c1a"/><path d="M189.58,257.42c0,.13,0,.25-.05.37l-.09.36c-.07.23-.15.45-.23.65a5.28,5.28,0,0,1-.57,1,6.45,6.45,0,0,1-.51.64l-.22.22a7.19,7.19,0,0,1-.23-1.11,7.4,7.4,0,0,1-.12-1.15,7.25,7.25,0,0,1,.05-1.38,6.65,6.65,0,0,1,.27-1.37,9.93,9.93,0,0,1,.38-1.13c.13-.33.26-.59.34-.78s.15-.28.15-.28.07.11.17.31a8.69,8.69,0,0,1,.35.86,6.48,6.48,0,0,1,.3,1.26c0,.11,0,.23,0,.35s0,.25,0,.38A4.9,4.9,0,0,1,189.58,257.42Z" transform="translate(-134.09 -241.04)" fill="#ba8c1a"/><path d="M182.85,254.68a6.27,6.27,0,0,0,.58.29l.57.22a9.5,9.5,0,0,0,1.06.32l.44.09.34.06.31,0-.12-.29a5,5,0,0,0-.39-.71c-.09-.14-.19-.29-.3-.44s-.26-.3-.4-.45-.3-.29-.48-.43a4.52,4.52,0,0,0-.56-.37l-.3-.15-.15-.07-.16-.06a5.1,5.1,0,0,0-.61-.17l-.56-.09-.52,0a6.34,6.34,0,0,0-.77.06,1.76,1.76,0,0,0-.29.05l.15.22a2.79,2.79,0,0,0,.19.24l.26.3a6.18,6.18,0,0,0,.73.68,4.17,4.17,0,0,0,.45.36Z" transform="translate(-134.09 -241.04)" fill="#ba8c1a"/><path d="M187.19,252.07a4.76,4.76,0,0,1,0,.75,3.83,3.83,0,0,1-.08.69,5.65,5.65,0,0,1-.33,1.13l-.09.23-.1.2c-.06.12-.12.23-.17.31s-.17.27-.17.27l-.14-.28c-.07-.19-.2-.44-.32-.75a3.52,3.52,0,0,1-.18-.52c-.07-.18-.13-.37-.19-.58s-.1-.42-.15-.65-.08-.46-.11-.7l0-.36v-.36c0-.23,0-.46,0-.68s0-.43,0-.63.05-.38.08-.56c.05-.34.11-.63.16-.83s.09-.31.09-.31a3.18,3.18,0,0,1,.23.27,3.78,3.78,0,0,1,.24.32,4.54,4.54,0,0,1,.29.43,7.39,7.39,0,0,1,.56,1.16,7.15,7.15,0,0,1,.21.7A4.52,4.52,0,0,1,187.19,252.07Z" transform="translate(-134.09 -241.04)" fill="#ba8c1a"/><path d="M180,250.91c.21.06.42.1.62.14a4.55,4.55,0,0,0,.61.1l.58,0,.52,0,.8,0,.31,0a2.54,2.54,0,0,0-.18-.25c-.06-.08-.13-.18-.22-.28a4.57,4.57,0,0,0-.31-.34c-.12-.11-.25-.23-.4-.35l-.23-.18-.12-.09-.13-.09c-.18-.11-.37-.21-.56-.31l-.31-.13-.32-.11a5.49,5.49,0,0,0-.66-.13l-.31,0h-.31a5.62,5.62,0,0,0-1.09.13,5.74,5.74,0,0,0-.74.22l-.28.12.21.18c.13.1.31.26.55.42a3,3,0,0,0,.4.25l.45.27.53.23Z" transform="translate(-134.09 -241.04)" fill="#ba8c1a"/><path d="M183.7,247.4a4.74,4.74,0,0,1,.18.72,5.76,5.76,0,0,1,.07.69c0,.22,0,.43,0,.62s0,.39-.06.56a6.13,6.13,0,0,1-.2.8c-.06.19-.1.29-.1.29s-.08-.08-.2-.23l-.22-.29c-.08-.11-.16-.24-.26-.37s-.2-.29-.3-.46l-.14-.26-.08-.14-.07-.13c-.11-.19-.2-.39-.3-.6l-.13-.33-.12-.33a6,6,0,0,1-.2-.69c0-.12-.05-.23-.07-.34s-.05-.22-.07-.33a11.62,11.62,0,0,1-.13-1.19c0-.35,0-.64,0-.85a2.15,2.15,0,0,1,0-.32l.28.21a6.49,6.49,0,0,1,.68.62c.13.14.27.29.4.45a6.18,6.18,0,0,1,.4.56,6.44,6.44,0,0,1,.36.63A5,5,0,0,1,183.7,247.4Z" transform="translate(-134.09 -241.04)" fill="#ba8c1a"/><path d="M176.46,247.84a6.47,6.47,0,0,0,1.25,0,9.65,9.65,0,0,0,1.09-.17c.32-.07.59-.15.78-.21l.29-.09-.06-.06s-.09-.09-.17-.15a5.8,5.8,0,0,0-.65-.48,5.08,5.08,0,0,0-2.29-.77,3.7,3.7,0,0,0-.67,0,3.83,3.83,0,0,0-.62.1l-.29.07-.26.09-.48.21a4.64,4.64,0,0,0-.67.37l-.18.13-.07,0,.24.13a4.35,4.35,0,0,0,.63.29l.44.16a3.27,3.27,0,0,0,.5.15l.14,0,.14,0,.29.05A3.91,3.91,0,0,0,176.46,247.84Z" transform="translate(-134.09 -241.04)" fill="#ba8c1a"/><path d="M179.28,243.6a5.87,5.87,0,0,1,.55,1.33,6.08,6.08,0,0,1,.18,1.17,5.3,5.3,0,0,1,0,.82c0,.2,0,.31,0,.31l-.07,0-.18-.14c-.15-.12-.37-.3-.61-.53a9.32,9.32,0,0,1-1.6-1.95c-.12-.21-.24-.41-.34-.62a6.64,6.64,0,0,1-.28-.62l-.12-.31-.1-.28c-.07-.19-.12-.37-.17-.54-.1-.34-.16-.63-.2-.83l0-.24,0-.08.09,0,.23.11a7.86,7.86,0,0,1,.8.46,3.58,3.58,0,0,1,.49.36,6.66,6.66,0,0,1,.51.44l.13.13.12.13.24.28C179,243.18,179.14,243.39,179.28,243.6Z" transform="translate(-134.09 -241.04)" fill="#ba8c1a"/><path d="M173.78,241.76a5,5,0,0,1,.65.37,2.83,2.83,0,0,1,.28.2l.26.22a6.14,6.14,0,0,1,.8.86,6.47,6.47,0,0,1,.44.7,2.77,2.77,0,0,1,.14.28l-.31,0-.35,0-.45-.06a10.64,10.64,0,0,1-1.12-.25,6.46,6.46,0,0,1-.63-.2l-.16-.06-.16-.06-.33-.14a6.31,6.31,0,0,1-.63-.34c-.2-.11-.39-.23-.57-.35a9.35,9.35,0,0,1-.95-.72,8.3,8.3,0,0,1-.63-.57l-.22-.23.35-.07.39-.05.52,0c.19,0,.39,0,.61,0l.33,0,.34.05A5.43,5.43,0,0,1,173.78,241.76Z" transform="translate(-134.09 -241.04)" fill="#ba8c1a"/><path d="M158.05,293.52a.43.43,0,0,0,.29-.1c2.71-2.35,11.56-4,11.65-4,9.58-2.37,14.11-8.41,16.24-13.06,3.43-7.52,2.81-16.2.43-20.9-4.18-8.22-12.29-12.94-12.37-13a.43.43,0,0,0-.43.75c.08,0,8,4.64,12,12.62,2.29,4.51,2.87,12.88-.45,20.15-2,4.48-6.42,10.29-15.63,12.58-.35.06-9.15,1.7-12,4.19a.43.43,0,0,0,0,.61A.41.41,0,0,0,158.05,293.52Z" transform="translate(-134.09 -241.04)" fill="#ba8c1a"/><path d="M173.94,263l-2.89,7.1h6.25l-3-7.34A1.88,1.88,0,0,1,173.94,263Z" transform="translate(-134.09 -241.04)" fill="#0b44a8"/><path d="M151.3,262.74l-3,7.34h6.25l-2.9-7.1A3.22,3.22,0,0,1,151.3,262.74Z" transform="translate(-134.09 -241.04)" fill="#0b44a8"/><path d="M174.49,262.57l.07-.06h0a.56.56,0,0,0,.18-.41.57.57,0,0,0-.57-.56.56.56,0,0,0-.31,1h0c-2.44,0-5.24-2.28-7.92-2.28a3.36,3.36,0,0,0-2.66,1.11v-.74h-.95v.74a3.36,3.36,0,0,0-2.66-1.11c-2.68,0-5.48,2.24-7.92,2.28l-.31-.77-.3.73h-.09l.07.06-3.07,7.51h-.63a4.54,4.54,0,0,0,2,3v.65h4.11V273a4.54,4.54,0,0,0,2-3h-.63L152,263.13c1.54.63,4.12.4,7-.62,2.7-.95,2.75,2.23,2.75,2.23h2.09s.05-3.18,2.75-2.23c2.91,1,5.48,1.25,7,.62l-2.83,6.95h-.64a4.58,4.58,0,0,0,2,3v.69h4.11V273a4.54,4.54,0,0,0,2-3h-.63Z" transform="translate(-134.09 -241.04)" fill="none"/><path d="M164.59,270.1a.26.26,0,0,0,.26-.26v-.39a.26.26,0,0,0-.26-.26h0v-.42h.19a.35.35,0,0,0,.35-.35.35.35,0,0,0-.35-.35h-.21v-2.52c-.22-.5-1.42-.52-1.62-.52h-.25c-.17,0-1.4,0-1.63.52v2.52h-.21a.35.35,0,0,0-.35.35.35.35,0,0,0,.35.35H161v.42h0a.26.26,0,0,0-.26.26v.39a.26.26,0,0,0,.26.26s-.06,3-1.41,4.65a.09.09,0,0,0,0,.14,7.52,7.52,0,0,1,2.7,5.28.32.32,0,0,0-.23.3.31.31,0,0,0,.31.31.31.31,0,0,0,.28-.18.28.28,0,0,0,0-.13v-7a.59.59,0,0,1-.5-.59.61.61,0,0,1,1.22,0,.62.62,0,0,1-.52.6v7a.28.28,0,0,0,0,.13.31.31,0,0,0,.28.18.31.31,0,0,0,.31-.31.32.32,0,0,0-.23-.3,7.49,7.49,0,0,1,2.7-5.28.1.1,0,0,0,0-.14C164.68,273.14,164.63,270.09,164.59,270.1Z" transform="translate(-134.09 -241.04)" fill="none"/><path d="M163.28,260.38l1-2.89s-.1-1.44-1.3-1.65a.55.55,0,0,0,.27-.47.57.57,0,0,0-.57-.56.56.56,0,0,0-.56.56.57.57,0,0,0,.26.47c-1.2.21-1.3,1.65-1.3,1.65l1.23,2.89Z" transform="translate(-134.09 -241.04)" fill="none"/><path d="M164.59,270.1a.26.26,0,0,0,.26-.26v-.39a.26.26,0,0,0-.26-.26h0v-.42h.19a.35.35,0,0,0,.35-.35.35.35,0,0,0-.35-.35h-.21v-2.52c-.22-.5-1.42-.52-1.62-.52h-.25c-.17,0-1.4,0-1.63.52v2.52h-.21a.35.35,0,0,0-.35.35.35.35,0,0,0,.35.35H161v.42h0a.26.26,0,0,0-.26.26v.39a.26.26,0,0,0,.26.26s-.06,3-1.41,4.65a.09.09,0,0,0,0,.14,7.52,7.52,0,0,1,2.7,5.28.32.32,0,0,0-.23.3.31.31,0,0,0,.31.31.31.31,0,0,0,.28-.18.28.28,0,0,0,0-.13v-7a.59.59,0,0,1-.5-.59.61.61,0,0,1,1.22,0,.62.62,0,0,1-.52.6v7a.28.28,0,0,0,0,.13.31.31,0,0,0,.28.18.31.31,0,0,0,.31-.31.32.32,0,0,0-.23-.3,7.49,7.49,0,0,1,2.7-5.28.1.1,0,0,0,0-.14C164.68,273.14,164.63,270.09,164.59,270.1Z" transform="translate(-134.09 -241.04)" fill="none"/><path d="M174.49,262.57l.07-.06h0a.56.56,0,0,0,.18-.41.57.57,0,0,0-.57-.56.56.56,0,0,0-.31,1h0c-2.44,0-5.24-2.28-7.92-2.28a3.36,3.36,0,0,0-2.66,1.11v-.74h-.95v.74a3.36,3.36,0,0,0-2.66-1.11c-2.68,0-5.48,2.24-7.92,2.28h0a.53.53,0,0,1-.7-.05h0l.07.06-3.07,7.51h-.63a4.54,4.54,0,0,0,2,3v.65h4.11V273a4.54,4.54,0,0,0,2-3h-.63L152,263.13c1.54.63,4.12.4,7-.62,2.7-.95,2.75,2.23,2.75,2.23h2.09s.05-3.18,2.75-2.23c2.91,1,5.48,1.25,7,.62l-2.83,6.95h-.64a4.58,4.58,0,0,0,2,3v.69h4.11V273a4.54,4.54,0,0,0,2-3h-.63Z" transform="translate(-134.09 -241.04)" fill="none"/><path d="M162.8,250.14l-16.15,3.41v18.27c0,6.56,7.79,10.93,12.55,13l2.88-3.4h1.5l2.86,3.38c4.77-2.06,12.52-6.42,12.52-13V253.55Zm-.4,5.7a.57.57,0,0,1-.26-.47.56.56,0,0,1,.56-.56.57.57,0,0,1,.57.56.55.55,0,0,1-.27.47c1.2.21,1.3,1.65,1.3,1.65l-1,2.89h-.95l-1.23-2.89S161.2,256.05,162.4,255.84Zm3.59,19a7.49,7.49,0,0,0-2.7,5.28.32.32,0,0,1,.23.3.31.31,0,0,1-.31.31.31.31,0,0,1-.28-.18.28.28,0,0,1,0-.13v-7a.62.62,0,0,0,.52-.6.61.61,0,0,0-1.22,0,.59.59,0,0,0,.5.59v7a.28.28,0,0,1,0,.13.31.31,0,0,1-.28.18.31.31,0,0,1-.31-.31.32.32,0,0,1,.23-.3,7.52,7.52,0,0,0-2.7-5.28.09.09,0,0,1,0-.14c1.35-1.61,1.41-4.65,1.41-4.65a.26.26,0,0,1-.26-.26v-.39a.26.26,0,0,1,.26-.26h0v-.42h-.19a.35.35,0,0,1-.35-.35.35.35,0,0,1,.35-.35h.21v-2.52c.23-.51,1.46-.52,1.63-.52h.25c.2,0,1.4,0,1.62.52v2.52h.21a.35.35,0,0,1,.35.35.35.35,0,0,1-.35.35h-.19v.42h0a.26.26,0,0,1,.26.26v.39a.26.26,0,0,1-.26.26s.09,3,1.41,4.65A.1.1,0,0,1,166,274.89ZM176.23,273v.69h-4.11V273a4.58,4.58,0,0,1-2-3h.64l2.83-6.95c-1.54.63-4.11.4-7-.62-2.7-.95-2.75,2.23-2.75,2.23h-2.09s0-3.18-2.75-2.23c-2.91,1-5.49,1.25-7,.62l2.84,6.95h.63a4.54,4.54,0,0,1-2,3v.65h-4.11V273a4.54,4.54,0,0,1-2-3h.63l3.07-7.51-.07-.06h0a.57.57,0,1,1,.7.05h0c2.44,0,5.24-2.28,7.92-2.28a3.36,3.36,0,0,1,2.66,1.11v-.74h.95v.74a3.36,3.36,0,0,1,2.66-1.11c2.68,0,5.48,2.24,7.92,2.28h0a.56.56,0,0,1,.31-1,.57.57,0,0,1,.57.56.56.56,0,0,1-.18.41h0l-.07.06,3.07,7.51h.63A4.54,4.54,0,0,1,176.23,273Z" transform="translate(-134.09 -241.04)" fill="#0b44a8"/><path d="M211.11,262v.26a1.32,1.32,0,0,0-.77.34.93.93,0,0,0-.24.69,1.7,1.7,0,0,0,0,.38l.79,5.44a1.57,1.57,0,0,0,.41.92,1.69,1.69,0,0,0,.92.43v.26h-4.3v-.26a1.42,1.42,0,0,0,.77-.42,1.38,1.38,0,0,0,.23-.84,6.07,6.07,0,0,0-.05-.66l-.71-5-2.87,7.15H205l-2.83-7.15-.76,5.12a3.74,3.74,0,0,0,0,.55,1.06,1.06,0,0,0,1.07,1.22v.26h-3.16v-.26a1.3,1.3,0,0,0,1-.46,3.21,3.21,0,0,0,.51-1.46l.86-5.69a1.78,1.78,0,0,0-1.27-.59V262h3.16l2.27,5.75,2.3-5.75Z" transform="translate(-134.09 -241.04)" fill="#0b44a8"/><path d="M222.61,266.34a4.39,4.39,0,0,1-1.34,3.29,5.18,5.18,0,0,1-6.82,0,4.75,4.75,0,0,1,0-6.59,5.15,5.15,0,0,1,6.82,0A4.41,4.41,0,0,1,222.61,266.34Zm-2.09.06a5.67,5.67,0,0,0-.68-3.09,2.37,2.37,0,0,0-4,0,5.79,5.79,0,0,0-.68,3.1,5.4,5.4,0,0,0,.69,3,2.2,2.2,0,0,0,2,1.05,2.25,2.25,0,0,0,2-1.05A5.3,5.3,0,0,0,220.52,266.4Z" transform="translate(-134.09 -241.04)" fill="#0b44a8"/><path d="M230,262.23V262H233v.26a1.23,1.23,0,0,0-1.26,1.42v7.14h-.29l-6.27-7.06v5.32a1.46,1.46,0,0,0,.26,1,1.75,1.75,0,0,0,1,.4v.26h-3v-.26a1.32,1.32,0,0,0,.87-.41,1.58,1.58,0,0,0,.27-1v-5.92a8.29,8.29,0,0,0-.7-.67,1.12,1.12,0,0,0-.46-.19V262H226l5.09,5.85v-3.93a2.27,2.27,0,0,0-.22-1.19A1.37,1.37,0,0,0,230,262.23Z" transform="translate(-134.09 -241.04)" fill="#0b44a8"/><path d="M238.67,270.69v-.26a2,2,0,0,0,.75-.25.47.47,0,0,0,.22-.41,2.13,2.13,0,0,0-.16-.67l-.51-1.34h-3.11l-.43,1.15a2.2,2.2,0,0,0-.16.72c0,.38.29.65.87.8v.26h-2.81v-.26a1.4,1.4,0,0,0,.88-.53,4.59,4.59,0,0,0,.75-1.44l2.51-6.71h1.19l2.65,7A4,4,0,0,0,242,270a1.32,1.32,0,0,0,.92.41v.26Zm-2.53-3.56h2.6l-1.33-3.53Z" transform="translate(-134.09 -241.04)" fill="#0b44a8"/><path d="M251.32,265h-.24a3.92,3.92,0,0,0-1.07-2,2.69,2.69,0,0,0-1.89-.73,2.25,2.25,0,0,0-1.94,1,5.74,5.74,0,0,0,.12,5.74,2.8,2.8,0,0,0,2.31,1.05,3.31,3.31,0,0,0,1.45-.32,4.77,4.77,0,0,0,1.35-1.06v.46a4.14,4.14,0,0,1-3.53,1.77,4.4,4.4,0,0,1-3.25-1.24,4.33,4.33,0,0,1-1.25-3.21,4.61,4.61,0,0,1,4.71-4.71,5.73,5.73,0,0,1,1.85.36,2.15,2.15,0,0,0,.61.16c.21,0,.39-.15.53-.45h.24Z" transform="translate(-134.09 -241.04)" fill="#0b44a8"/><path d="M262,266.34a4.39,4.39,0,0,1-1.34,3.29,5.2,5.2,0,0,1-6.83,0,4.73,4.73,0,0,1,0-6.59,4.69,4.69,0,0,1,3.4-1.29,4.75,4.75,0,0,1,3.42,1.29A4.41,4.41,0,0,1,262,266.34Zm-2.09.06a5.76,5.76,0,0,0-.68-3.09,2.23,2.23,0,0,0-2-1.07,2.19,2.19,0,0,0-2,1.07,5.79,5.79,0,0,0-.68,3.1,5.49,5.49,0,0,0,.68,3,2.36,2.36,0,0,0,3.93,0A5.3,5.3,0,0,0,259.91,266.4Z" transform="translate(-134.09 -241.04)" fill="#0b44a8"/><path d="M262.8,273.39v-.26c.95-.33,1.42-.89,1.42-1.68a.81.81,0,0,0-.08-.38c-.05-.12-.11-.18-.19-.18h-.25a.77.77,0,0,1-.61-.3,1.07,1.07,0,0,1-.26-.71,1,1,0,0,1,.31-.76,1.1,1.1,0,0,1,.8-.3,1.27,1.27,0,0,1,1,.55,2.14,2.14,0,0,1,.43,1.33,2.53,2.53,0,0,1-.8,1.78A2.82,2.82,0,0,1,262.8,273.39Z" transform="translate(-134.09 -241.04)" fill="#0b44a8"/><path d="M280.89,262v.26a1.32,1.32,0,0,0-.77.34.93.93,0,0,0-.24.69,1.7,1.7,0,0,0,0,.38l.79,5.44a1.57,1.57,0,0,0,.41.92,1.69,1.69,0,0,0,.92.43v.26h-4.3v-.26a1.42,1.42,0,0,0,.77-.42,1.38,1.38,0,0,0,.23-.84,6.07,6.07,0,0,0-.05-.66l-.71-5-2.87,7.15h-.31L272,263.54l-.76,5.12a3.74,3.74,0,0,0,0,.55,1.06,1.06,0,0,0,1.07,1.22v.26h-3.16v-.26a1.3,1.3,0,0,0,1-.46,3.21,3.21,0,0,0,.51-1.46l.86-5.69a1.78,1.78,0,0,0-1.27-.59V262h3.15l2.28,5.75,2.3-5.75Z" transform="translate(-134.09 -241.04)" fill="#0b44a8"/><path d="M287.06,262v.26a1.76,1.76,0,0,0-.87.39,1.58,1.58,0,0,0-.22,1v5.58a1.21,1.21,0,0,0,.21.82,1.75,1.75,0,0,0,.88.4v.26h-4.12v-.26a2.41,2.41,0,0,0,.69-.25.72.72,0,0,0,.32-.35,2.1,2.1,0,0,0,.1-.81v-5.57a1.27,1.27,0,0,0-.22-.83,1.9,1.9,0,0,0-.89-.39V262Z" transform="translate(-134.09 -241.04)" fill="#0b44a8"/><path d="M288.13,270.69v-.26a1,1,0,0,0,1.1-1.11v-5.9a1.17,1.17,0,0,0-.23-.84,1.7,1.7,0,0,0-.87-.35V262h4.14a4.61,4.61,0,0,1,2.51.58,1.83,1.83,0,0,1,.88,1.61,2,2,0,0,1-.46,1.29,2.63,2.63,0,0,1-1.31.79v0a1.23,1.23,0,0,1,.66.5,11.71,11.71,0,0,1,1,1.7,9.49,9.49,0,0,0,1,1.56,1.36,1.36,0,0,0,.83.4v.26h-2.51a11.61,11.61,0,0,1-1.27-2.12,12.44,12.44,0,0,0-.79-1.4,1.53,1.53,0,0,0-.54-.49,2.79,2.79,0,0,0-1.12-.14v2.67a1.24,1.24,0,0,0,.26.86,1.4,1.4,0,0,0,.86.36v.26Zm3.62-8.22h-.6V266h.42a2.16,2.16,0,0,0,1.52-.44,1.86,1.86,0,0,0,.48-1.42C293.57,263,293,262.47,291.75,262.47Z" transform="translate(-134.09 -241.04)" fill="#0b44a8"/><path d="M303,270.69v-.26a2,2,0,0,0,.76-.25.47.47,0,0,0,.22-.41,2,2,0,0,0-.17-.67l-.5-1.34H300.2l-.43,1.15a2.26,2.26,0,0,0-.17.72c0,.38.3.65.88.8v.26h-2.82v-.26a1.42,1.42,0,0,0,.89-.53,5.06,5.06,0,0,0,.75-1.44l2.51-6.71H303l2.65,7a4,4,0,0,0,.71,1.3,1.31,1.31,0,0,0,.91.41v.26Zm-2.52-3.56h2.6l-1.33-3.53Z" transform="translate(-134.09 -241.04)" fill="#0b44a8"/><path d="M314.24,262.23V262h2.93v.26a1.23,1.23,0,0,0-1.26,1.42v7.14h-.29l-6.27-7.06v5.32a1.46,1.46,0,0,0,.26,1,1.75,1.75,0,0,0,1,.4v.26h-3v-.26a1.38,1.38,0,0,0,.88-.41,1.65,1.65,0,0,0,.26-1v-5.92a8.29,8.29,0,0,0-.7-.67,1.14,1.14,0,0,0-.45-.19V262h2.61l5.1,5.85v-3.93a2.25,2.25,0,0,0-.23-1.19A1.34,1.34,0,0,0,314.24,262.23Z" transform="translate(-134.09 -241.04)" fill="#0b44a8"/><path d="M317.83,270.69v-.26a2,2,0,0,0,.9-.41,1.62,1.62,0,0,0,.21-1v-5.55a1.26,1.26,0,0,0-.21-.83,2,2,0,0,0-.9-.41V262h4.46a5.64,5.64,0,0,1,3.84,1.23,4.11,4.11,0,0,1,1.4,3.24,4,4,0,0,1-1.25,3.09,4.86,4.86,0,0,1-3.41,1.16Zm4.16-8.22h-1.13v6.7a.92.92,0,0,0,.32.79,1.92,1.92,0,0,0,1.09.23,2.89,2.89,0,0,0,2.35-1,4.35,4.35,0,0,0,.83-2.84,4.23,4.23,0,0,0-.91-2.84A3.23,3.23,0,0,0,322,262.47Z" transform="translate(-134.09 -241.04)" fill="#0b44a8"/><path d="M332.55,270.69v-.26a2,2,0,0,0,.76-.25.47.47,0,0,0,.22-.41,2,2,0,0,0-.17-.67l-.5-1.34h-3.11l-.43,1.15a2.26,2.26,0,0,0-.17.72c0,.38.3.65.88.8v.26h-2.82v-.26a1.42,1.42,0,0,0,.89-.53,5.06,5.06,0,0,0,.75-1.44l2.51-6.71h1.19l2.65,7a4,4,0,0,0,.71,1.3,1.31,1.31,0,0,0,.91.41v.26ZM330,267.13h2.6l-1.33-3.53Z" transform="translate(-134.09 -241.04)" fill="#0b44a8"/><path d="M342.44,263.84a1.8,1.8,0,0,1,.78-1.5,3.24,3.24,0,0,1,2-.59,3.18,3.18,0,0,1,1.82.45,1.45,1.45,0,0,1,.65,1.26,1.74,1.74,0,0,1-.56,1.29,2.88,2.88,0,0,1-1.51.75c1,1,1.73,1.83,2.22,2.44a3.56,3.56,0,0,0,.57-1.59.83.83,0,0,0-.57-.85v-.25h2.57v.25a1.6,1.6,0,0,0-.74.44,7.26,7.26,0,0,0-.9,1.45c-.22.42-.4.76-.54,1a8.09,8.09,0,0,0,1.2,1.16,1.68,1.68,0,0,0,.92.32,1.06,1.06,0,0,0,.74-.31l.19.17a2.6,2.6,0,0,1-3.24.94,4.16,4.16,0,0,1-1-.81,4.9,4.9,0,0,1-3,1,3.23,3.23,0,0,1-2.07-.63,2,2,0,0,1-.8-1.65c0-1.13.76-2,2.29-2.74a5.35,5.35,0,0,1-.82-1.11A2,2,0,0,1,342.44,263.84Zm.64,3.79a2.4,2.4,0,0,0,.64,1.68,2,2,0,0,0,1.51.71,2.35,2.35,0,0,0,1.47-.57,33,33,0,0,0-2.81-3.15,2.3,2.3,0,0,0-.63.61A1.37,1.37,0,0,0,343.08,267.63Zm1-4.36a1.45,1.45,0,0,0,.26.78,5.63,5.63,0,0,0,.91,1,1.29,1.29,0,0,0,.63-.4,1,1,0,0,0,.25-.64,1.91,1.91,0,0,0-.36-1.16,1,1,0,0,0-.82-.5.86.86,0,0,0-.63.25A.88.88,0,0,0,344.09,263.27Z" transform="translate(-134.09 -241.04)" fill="#0b44a8"/><path d="M362.28,262v.26a1.61,1.61,0,0,0-.86.44,3.38,3.38,0,0,0-.65,1.17l-2.69,7.07h-.28l-2.75-7a4.57,4.57,0,0,0-.68-1.28,1.4,1.4,0,0,0-.86-.41V262h4v.26c-.49.08-.73.29-.73.63a1.87,1.87,0,0,0,.15.62l1.74,4.42,1.55-4.18a2.12,2.12,0,0,0,.14-.65c0-.47-.32-.74-.94-.84V262Z" transform="translate(-134.09 -241.04)" fill="#0b44a8"/><path d="M368.72,265H369v2.7h-.29a1.12,1.12,0,0,0-1.2-1.12H366v2.56a1.06,1.06,0,0,0,.27.83,1.39,1.39,0,0,0,.92.24h.51q1.27,0,1.83-1.62h.25l-.16,2.12H363v-.26a1.53,1.53,0,0,0,.87-.39,1.6,1.6,0,0,0,.22-1v-5.6a1.24,1.24,0,0,0-.22-.85,1.62,1.62,0,0,0-.87-.36V262h6.53v1.94h-.25a2.5,2.5,0,0,0-.54-1.15,1.57,1.57,0,0,0-1-.29H366v3.6h1.54a1.15,1.15,0,0,0,.8-.25A1.57,1.57,0,0,0,368.72,265Z" transform="translate(-134.09 -241.04)" fill="#0b44a8"/><path d="M370.54,270.69v-.26a1.88,1.88,0,0,0,.89-.41,1.62,1.62,0,0,0,.21-1v-5.55a1.26,1.26,0,0,0-.21-.83,1.88,1.88,0,0,0-.89-.41V262H375a5.63,5.63,0,0,1,3.83,1.23,4.09,4.09,0,0,1,1.41,3.24,4,4,0,0,1-1.26,3.09,4.83,4.83,0,0,1-3.4,1.16Zm4.16-8.22h-1.14v6.7a.89.89,0,0,0,.33.79,1.9,1.9,0,0,0,1.09.23,2.85,2.85,0,0,0,2.34-1,4.29,4.29,0,0,0,.83-2.84,4.18,4.18,0,0,0-.91-2.84A3.19,3.19,0,0,0,374.7,262.47Z" transform="translate(-134.09 -241.04)" fill="#0b44a8"/><path d="M385.26,270.69v-.26a2,2,0,0,0,.76-.25.49.49,0,0,0,.22-.41,2.22,2.22,0,0,0-.17-.67l-.5-1.34h-3.11l-.43,1.15a2.26,2.26,0,0,0-.17.72c0,.38.29.65.87.8v.26h-2.81v-.26a1.42,1.42,0,0,0,.89-.53,5.06,5.06,0,0,0,.75-1.44l2.5-6.71h1.19l2.65,7a4,4,0,0,0,.72,1.3,1.29,1.29,0,0,0,.91.41v.26Zm-2.53-3.56h2.6L384,263.6Z" transform="translate(-134.09 -241.04)" fill="#0b44a8"/><path d="M396.49,262.23V262h2.94v.26a1.24,1.24,0,0,0-1.27,1.42v7.14h-.28l-6.27-7.06v5.32a1.52,1.52,0,0,0,.25,1,1.79,1.79,0,0,0,1,.4v.26h-3v-.26a1.35,1.35,0,0,0,.87-.41,1.58,1.58,0,0,0,.27-1v-5.92c-.34-.35-.58-.57-.7-.67a1.12,1.12,0,0,0-.46-.19V262h2.62l5.09,5.85v-3.93a2.27,2.27,0,0,0-.22-1.19A1.37,1.37,0,0,0,396.49,262.23Z" transform="translate(-134.09 -241.04)" fill="#0b44a8"/><path d="M405.13,270.69v-.26a2,2,0,0,0,.76-.25.47.47,0,0,0,.22-.41,2,2,0,0,0-.17-.67l-.5-1.34h-3.11l-.43,1.15a2.26,2.26,0,0,0-.17.72c0,.38.3.65.88.8v.26h-2.82v-.26a1.42,1.42,0,0,0,.89-.53,5.06,5.06,0,0,0,.75-1.44l2.51-6.71h1.19l2.65,7a4,4,0,0,0,.71,1.3,1.31,1.31,0,0,0,.91.41v.26Zm-2.52-3.56h2.6l-1.33-3.53Z" transform="translate(-134.09 -241.04)" fill="#0b44a8"/><ellipse cx="79.42" cy="36.11" rx="1.51" ry="1.57" fill="#2b2b2b"/><path d="M222.6,279.86v-.16q.45,0,.45-.33a.59.59,0,0,0,0-.21l-.49-1.53h-1.7l-.36,1.11a2.21,2.21,0,0,0-.13.61c0,.23.14.35.42.35v.16h-1.37v-.16a.73.73,0,0,0,.46-.2,2.05,2.05,0,0,0,.33-.66l1.46-4.54h.54L223.7,279a1.29,1.29,0,0,0,.28.54.77.77,0,0,0,.48.12v.16Zm-1.68-2.56h1.49l-.75-2.34Z" transform="translate(-134.09 -241.04)" fill="#2b2b2b"/><path d="M228.63,279.86v-.16a.51.51,0,0,0,.47-.19,1.27,1.27,0,0,0,.13-.68V275.4a1.29,1.29,0,0,0-.13-.69.51.51,0,0,0-.47-.19v-.16h2.45a2.91,2.91,0,0,1,2.16.8,2.77,2.77,0,0,1,.81,2,2.54,2.54,0,0,1-.76,1.94,3,3,0,0,1-2.15.72Zm2.3-5.29h-1v4.06a1.67,1.67,0,0,0,.14.81.6.6,0,0,0,.54.21h.54a1.92,1.92,0,0,0,1.53-.65,2.68,2.68,0,0,0,.56-1.79,2.85,2.85,0,0,0-.61-1.92A2.11,2.11,0,0,0,230.93,274.57Z" transform="translate(-134.09 -241.04)" fill="#2b2b2b"/><path d="M242.84,274.36v.17c-.38,0-.7.35-1,1.07l-1.56,4.34h-.14l-1.64-4.47a2.4,2.4,0,0,0-.4-.78.64.64,0,0,0-.47-.17v-.16h1.91v.16c-.3,0-.46.12-.46.37a.74.74,0,0,0,.06.27l1.29,3.56,1.23-3.43a1.29,1.29,0,0,0,.08-.38q0-.39-.48-.39v-.16Z" transform="translate(-134.09 -241.04)" fill="#2b2b2b"/><path d="M246.69,277.08a2.8,2.8,0,0,1,.81-2,2.72,2.72,0,0,1,2-.82,2.68,2.68,0,0,1,2,.83,2.82,2.82,0,0,1,.82,2,2.92,2.92,0,0,1-.82,2.08,2.71,2.71,0,0,1-2,.84,2.67,2.67,0,0,1-2-.84A2.87,2.87,0,0,1,246.69,277.08Zm.81,0a3.22,3.22,0,0,0,.55,2,1.77,1.77,0,0,0,2.9,0,3.08,3.08,0,0,0,.56-1.9,3.25,3.25,0,0,0-.54-2,1.71,1.71,0,0,0-1.43-.74,1.75,1.75,0,0,0-1.48.73A3.12,3.12,0,0,0,247.5,277.09Z" transform="translate(-134.09 -241.04)" fill="#2b2b2b"/><path d="M262.33,277.48v.16a.62.62,0,0,0-.5.17.85.85,0,0,0-.15.57v1.48a4,4,0,0,1-.69.1c-.34,0-.6,0-.79,0a3.23,3.23,0,0,1-2.28-.75,2.54,2.54,0,0,1-.82-2,3.31,3.31,0,0,1,.36-1.55,2.79,2.79,0,0,1,1-1.1,2.59,2.59,0,0,1,1.36-.4,3,3,0,0,1,.94.16,1.73,1.73,0,0,0,.5.1.27.27,0,0,0,.29-.18h.17v1.62h-.15a1.61,1.61,0,0,0-.58-1.08,1.81,1.81,0,0,0-1.17-.41,1.67,1.67,0,0,0-1.37.7,2.84,2.84,0,0,0-.54,1.8,3.19,3.19,0,0,0,.62,2,1.9,1.9,0,0,0,1.56.8c.59,0,.88-.2.88-.59v-.6a1.51,1.51,0,0,0-.12-.71.52.52,0,0,0-.46-.2h-.2v-.16Z" transform="translate(-134.09 -241.04)" fill="#2b2b2b"/><path d="M269.71,279.86v-.16q.45,0,.45-.33a.59.59,0,0,0,0-.21l-.49-1.53h-1.69l-.36,1.11a2.33,2.33,0,0,0-.14.61c0,.23.14.35.42.35v.16h-1.37v-.16a.73.73,0,0,0,.46-.2,1.71,1.71,0,0,0,.33-.66l1.46-4.54h.54l1.54,4.74a1.19,1.19,0,0,0,.28.54.72.72,0,0,0,.47.12v.16ZM268,277.3h1.49l-.75-2.34Z" transform="translate(-134.09 -241.04)" fill="#2b2b2b"/><path d="M275.75,279.86v-.16a.53.53,0,0,0,.47-.19,1.37,1.37,0,0,0,.13-.68V275.4a1.39,1.39,0,0,0-.13-.69.53.53,0,0,0-.47-.19v-.16h2.44a3,3,0,0,1,2.17.8,2.77,2.77,0,0,1,.81,2,2.55,2.55,0,0,1-.77,1.94,3,3,0,0,1-2.14.72Zm2.3-5.29h-1v4.06a1.67,1.67,0,0,0,.14.81.6.6,0,0,0,.54.21h.54a1.92,1.92,0,0,0,1.53-.65,2.63,2.63,0,0,0,.56-1.79,2.85,2.85,0,0,0-.61-1.92A2.09,2.09,0,0,0,278.05,274.57Z" transform="translate(-134.09 -241.04)" fill="#2b2b2b"/><path d="M285.84,277.08a2.8,2.8,0,0,1,.81-2,2.72,2.72,0,0,1,2-.82,2.68,2.68,0,0,1,2,.83,2.81,2.81,0,0,1,.81,2,2.87,2.87,0,0,1-.82,2.08,2.79,2.79,0,0,1-4,0A2.87,2.87,0,0,1,285.84,277.08Zm.81,0a3.15,3.15,0,0,0,.55,2,1.77,1.77,0,0,0,2.9,0,3.08,3.08,0,0,0,.56-1.9,3.19,3.19,0,0,0-.55-2,1.69,1.69,0,0,0-1.42-.74,1.75,1.75,0,0,0-1.48.73A3.12,3.12,0,0,0,286.65,277.09Z" transform="translate(-134.09 -241.04)" fill="#2b2b2b"/><path d="M298.84,274.28H299v1.29h-.16a1.31,1.31,0,0,0-.37-.84,1.12,1.12,0,0,0-.8-.3,1,1,0,0,0-.69.23.76.76,0,0,0-.26.6,1,1,0,0,0,.22.63,3.61,3.61,0,0,0,.93.74,4.23,4.23,0,0,1,1.13.91,1.48,1.48,0,0,1,.29.89,1.54,1.54,0,0,1-.45,1.11,1.39,1.39,0,0,1-1.06.46,2.69,2.69,0,0,1-.91-.21,1.48,1.48,0,0,0-.3-.08c-.08,0-.15.07-.2.21h-.16v-1.49h.16a1.35,1.35,0,0,0,.39,1,1.25,1.25,0,0,0,.88.37,1.08,1.08,0,0,0,.77-.27.91.91,0,0,0,.29-.71,1,1,0,0,0-.23-.64,4,4,0,0,0-1-.79,3.76,3.76,0,0,1-.82-.63,1.55,1.55,0,0,1-.31-.5,2,2,0,0,1-.1-.61,1.37,1.37,0,0,1,1.44-1.42,2.22,2.22,0,0,1,.76.15,1.11,1.11,0,0,0,.27.06.11.11,0,0,0,.09,0A.52.52,0,0,0,298.84,274.28Z" transform="translate(-134.09 -241.04)" fill="#2b2b2b"/><path d="M311.73,279.86v-.16q.45,0,.45-.33a.59.59,0,0,0,0-.21l-.49-1.53H310l-.36,1.11a2.21,2.21,0,0,0-.13.61c0,.23.14.35.42.35v.16h-1.37v-.16a.73.73,0,0,0,.46-.2,1.89,1.89,0,0,0,.32-.66l1.47-4.54h.54l1.53,4.74a1.29,1.29,0,0,0,.28.54.76.76,0,0,0,.47.12v.16Zm-1.68-2.56h1.49l-.75-2.34Z" transform="translate(-134.09 -241.04)" fill="#2b2b2b"/><path d="M320.61,274.28h.15v1.29h-.16a1.31,1.31,0,0,0-.37-.84,1.12,1.12,0,0,0-.8-.3,1,1,0,0,0-.69.23.76.76,0,0,0-.26.6,1,1,0,0,0,.21.63,3.91,3.91,0,0,0,.94.74,4.23,4.23,0,0,1,1.13.91,1.48,1.48,0,0,1,.29.89,1.54,1.54,0,0,1-.45,1.11,1.39,1.39,0,0,1-1.06.46,2.69,2.69,0,0,1-.91-.21,1.48,1.48,0,0,0-.3-.08c-.08,0-.15.07-.2.21H318v-1.49h.16a1.35,1.35,0,0,0,.39,1,1.25,1.25,0,0,0,.88.37,1.08,1.08,0,0,0,.77-.27.91.91,0,0,0,.29-.71,1,1,0,0,0-.23-.64,4,4,0,0,0-1-.79,3.76,3.76,0,0,1-.82-.63,1.55,1.55,0,0,1-.31-.5,2,2,0,0,1-.1-.61,1.35,1.35,0,0,1,.4-1,1.39,1.39,0,0,1,1-.4,2.22,2.22,0,0,1,.76.15,1.11,1.11,0,0,0,.27.06.11.11,0,0,0,.09,0A.52.52,0,0,0,320.61,274.28Z" transform="translate(-134.09 -241.04)" fill="#2b2b2b"/><path d="M328.14,274.28h.15v1.29h-.16a1.26,1.26,0,0,0-.37-.84,1.12,1.12,0,0,0-.8-.3,1,1,0,0,0-.69.23.76.76,0,0,0-.26.6,1,1,0,0,0,.22.63,3.61,3.61,0,0,0,.93.74,4.23,4.23,0,0,1,1.13.91,1.48,1.48,0,0,1,.29.89,1.57,1.57,0,0,1-.44,1.11,1.42,1.42,0,0,1-1.06.46,2.74,2.74,0,0,1-.92-.21,1.46,1.46,0,0,0-.29-.08c-.09,0-.16.07-.2.21h-.16v-1.49h.16a1.34,1.34,0,0,0,.38,1,1.26,1.26,0,0,0,.89.37,1.1,1.1,0,0,0,.77-.27.94.94,0,0,0,.29-.71,1,1,0,0,0-.24-.64,4,4,0,0,0-1-.79,4,4,0,0,1-.82-.63,1.55,1.55,0,0,1-.31-.5,2,2,0,0,1-.09-.61,1.38,1.38,0,0,1,.39-1,1.39,1.39,0,0,1,1-.4,2.28,2.28,0,0,1,.77.15,1.11,1.11,0,0,0,.27.06s.07,0,.08,0S328.12,274.34,328.14,274.28Z" transform="translate(-134.09 -241.04)" fill="#2b2b2b"/><path d="M333.09,277.08a2.8,2.8,0,0,1,.81-2,2.71,2.71,0,0,1,2-.82,2.67,2.67,0,0,1,2,.83,2.78,2.78,0,0,1,.82,2,2.92,2.92,0,0,1-.82,2.08,2.71,2.71,0,0,1-2,.84,2.67,2.67,0,0,1-2-.84A2.91,2.91,0,0,1,333.09,277.08Zm.81,0a3.22,3.22,0,0,0,.54,2,1.71,1.71,0,0,0,1.44.75,1.74,1.74,0,0,0,1.47-.76,3.15,3.15,0,0,0,.56-1.9,3.25,3.25,0,0,0-.55-2,1.71,1.71,0,0,0-1.43-.74,1.77,1.77,0,0,0-1.48.73A3.11,3.11,0,0,0,333.9,277.09Z" transform="translate(-134.09 -241.04)" fill="#2b2b2b"/><path d="M348.15,274.28v1.64H348a2.17,2.17,0,0,0-.6-1.13,1.65,1.65,0,0,0-1.11-.36,1.72,1.72,0,0,0-1.43.68,2.85,2.85,0,0,0-.53,1.8,3.28,3.28,0,0,0,.56,2,1.74,1.74,0,0,0,1.46.75,1.94,1.94,0,0,0,1.84-1.21l.14.14a2.25,2.25,0,0,1-.86,1,2.5,2.5,0,0,1-1.35.38,2.67,2.67,0,0,1-1.33-.35,2.5,2.5,0,0,1-.94-1,3,3,0,0,1-.33-1.42,3.13,3.13,0,0,1,.78-2.18,2.5,2.5,0,0,1,1.95-.86,4.32,4.32,0,0,1,1,.15,2.85,2.85,0,0,0,.48.08.29.29,0,0,0,.28-.17Z" transform="translate(-134.09 -241.04)" fill="#2b2b2b"/><path d="M354.46,274.36v.16a.52.52,0,0,0-.47.19,1.29,1.29,0,0,0-.13.69v3.43a1.22,1.22,0,0,0,.13.68.52.52,0,0,0,.47.19v.16h-1.9v-.16a.53.53,0,0,0,.47-.18,1.29,1.29,0,0,0,.13-.69V275.4a1.3,1.3,0,0,0-.13-.7.53.53,0,0,0-.47-.18v-.16Z" transform="translate(-134.09 -241.04)" fill="#2b2b2b"/><path d="M361.81,279.86v-.16q.45,0,.45-.33a.59.59,0,0,0,0-.21l-.49-1.53H360l-.36,1.11a2.33,2.33,0,0,0-.14.61c0,.23.14.35.42.35v.16H358.6v-.16a.72.72,0,0,0,.45-.2,1.71,1.71,0,0,0,.33-.66l1.46-4.54h.54l1.54,4.74a1.19,1.19,0,0,0,.28.54.74.74,0,0,0,.47.12v.16Zm-1.67-2.56h1.49l-.75-2.34Z" transform="translate(-134.09 -241.04)" fill="#2b2b2b"/><path d="M367.85,279.86v-.16a.52.52,0,0,0,.47-.19,1.37,1.37,0,0,0,.13-.68V275.4a1.39,1.39,0,0,0-.13-.69.52.52,0,0,0-.47-.19v-.16h2.44a2.94,2.94,0,0,1,2.17.8,2.77,2.77,0,0,1,.81,2,2.55,2.55,0,0,1-.77,1.94,3,3,0,0,1-2.14.72Zm2.3-5.29h-1v4.06a1.69,1.69,0,0,0,.13.81.6.6,0,0,0,.54.21h.54a2,2,0,0,0,1.54-.65,2.68,2.68,0,0,0,.55-1.79,2.85,2.85,0,0,0-.61-1.92A2.09,2.09,0,0,0,370.15,274.57Z" transform="translate(-134.09 -241.04)" fill="#2b2b2b"/><path d="M377.94,277.08a2.8,2.8,0,0,1,.81-2,2.72,2.72,0,0,1,2-.82,2.68,2.68,0,0,1,2,.83,2.81,2.81,0,0,1,.81,2,2.91,2.91,0,0,1-.81,2.08,2.71,2.71,0,0,1-2,.84,2.67,2.67,0,0,1-2-.84A2.87,2.87,0,0,1,377.94,277.08Zm.81,0a3.22,3.22,0,0,0,.55,2,1.77,1.77,0,0,0,2.9,0,3.08,3.08,0,0,0,.56-1.9,3.19,3.19,0,0,0-.55-2,1.69,1.69,0,0,0-1.42-.74,1.75,1.75,0,0,0-1.48.73A3.12,3.12,0,0,0,378.75,277.09Z" transform="translate(-134.09 -241.04)" fill="#2b2b2b"/><path d="M390.94,274.28h.15v1.29h-.16a1.26,1.26,0,0,0-.37-.84,1.12,1.12,0,0,0-.8-.3,1,1,0,0,0-.69.23.76.76,0,0,0-.26.6,1,1,0,0,0,.22.63,3.61,3.61,0,0,0,.93.74,4.23,4.23,0,0,1,1.13.91,1.48,1.48,0,0,1,.29.89,1.57,1.57,0,0,1-.44,1.11,1.42,1.42,0,0,1-1.06.46,2.74,2.74,0,0,1-.92-.21,1.46,1.46,0,0,0-.29-.08q-.14,0-.21.21h-.15v-1.49h.15a1.39,1.39,0,0,0,.39,1,1.26,1.26,0,0,0,.89.37,1.1,1.1,0,0,0,.77-.27.94.94,0,0,0,.29-.71,1,1,0,0,0-.24-.64,4,4,0,0,0-1-.79,4,4,0,0,1-.82-.63,1.55,1.55,0,0,1-.31-.5,2,2,0,0,1-.1-.61,1.37,1.37,0,0,1,1.44-1.42,2.32,2.32,0,0,1,.77.15,1,1,0,0,0,.27.06s.07,0,.08,0S390.92,274.34,390.94,274.28Z" transform="translate(-134.09 -241.04)" fill="#2b2b2b"/><ellipse cx="263.4" cy="36.11" rx="1.51" ry="1.57" fill="#2b2b2b"/></svg>