<?xml version="1.0" encoding="UTF-8" standalone="no"?><!-- Generator: Gravit.io --><svg xmlns="http://www.w3.org/2000/svg" xmlns:xlink="http://www.w3.org/1999/xlink" style="isolation:isolate" viewBox="0 0 375 667" width="375pt" height="667pt"><defs><clipPath id="_clipPath_8Niw795Op1w6sIbNeNqZ0ux6xVi51Czo"><rect width="375" height="667"/></clipPath></defs><g clip-path="url(#_clipPath_8Niw795Op1w6sIbNeNqZ0ux6xVi51Czo)"><rect x="0" y="0" width="362" height="362" transform="matrix(1,0,0,1,0,0)" fill="none"/><path d=" M 0 0 L 362 0 L 362 362 L 0 362 L 0 0 Z " fill="none"/><g><path d=" M 17.528 58.436 C 17.612 58.533 17.688 58.635 17.759 58.74 C 17.831 58.844 17.898 58.942 17.959 59.045 C 18.082 59.248 18.183 59.453 18.265 59.629 C 18.347 59.804 18.409 59.956 18.45 60.065 C 18.491 60.174 18.51 60.239 18.51 60.239 C 18.51 60.239 18.444 60.23 18.331 60.206 C 18.275 60.193 18.207 60.177 18.13 60.156 C 18.053 60.134 17.969 60.101 17.877 60.066 C 17.786 60.03 17.689 59.987 17.589 59.939 C 17.539 59.914 17.487 59.889 17.436 59.859 C 17.386 59.829 17.335 59.796 17.284 59.762 C 17.08 59.624 16.873 59.464 16.7 59.249 C 16.612 59.144 16.535 59.036 16.467 58.928 C 16.433 58.875 16.402 58.819 16.374 58.762 C 16.346 58.706 16.32 58.65 16.296 58.594 C 16.2 58.373 16.137 58.162 16.098 57.977 C 16.06 57.788 16.044 57.628 16.037 57.516 C 16.03 57.403 16.032 57.337 16.032 57.337 C 16.032 57.337 16.086 57.358 16.176 57.403 C 16.221 57.425 16.274 57.454 16.334 57.489 C 16.395 57.521 16.464 57.558 16.537 57.602 C 16.683 57.688 16.845 57.809 17.017 57.941 C 17.102 58.009 17.188 58.084 17.273 58.169 L 17.337 58.234 L 17.401 58.298 C 17.444 58.342 17.487 58.388 17.528 58.436 Z " fill="rgb(186,140,26)"/><path d=" M 16.561 61.289 C 16.711 61.273 16.854 61.246 16.989 61.212 C 17.125 61.178 17.255 61.128 17.374 61.08 C 17.614 60.98 17.817 60.867 17.982 60.754 C 18.149 60.638 18.276 60.53 18.362 60.45 C 18.448 60.371 18.493 60.321 18.493 60.321 C 18.493 60.321 18.428 60.299 18.316 60.271 C 18.26 60.257 18.191 60.242 18.112 60.226 C 18.033 60.21 17.946 60.188 17.849 60.172 C 17.752 60.154 17.646 60.138 17.533 60.125 C 17.477 60.12 17.419 60.114 17.359 60.108 C 17.3 60.101 17.239 60.096 17.177 60.091 C 16.929 60.072 16.654 60.081 16.373 60.102 C 16.231 60.115 16.093 60.137 15.958 60.164 C 15.891 60.179 15.825 60.192 15.76 60.206 C 15.696 60.22 15.633 60.235 15.571 60.251 C 15.324 60.315 15.097 60.396 14.905 60.471 C 14.715 60.543 14.559 60.613 14.45 60.666 C 14.341 60.718 14.281 60.753 14.281 60.753 C 14.281 60.753 14.345 60.794 14.462 60.856 C 14.52 60.887 14.591 60.923 14.674 60.962 C 14.757 60.999 14.853 61.036 14.958 61.074 C 15.169 61.148 15.415 61.228 15.691 61.265 C 15.828 61.285 15.97 61.301 16.115 61.308 C 16.152 61.309 16.188 61.311 16.225 61.311 C 16.262 61.311 16.299 61.309 16.336 61.307 C 16.411 61.304 16.486 61.298 16.561 61.289 Z " fill="rgb(186,140,26)"/><path d=" M 15.031 57.243 C 15.088 57.361 15.145 57.47 15.193 57.586 C 15.24 57.702 15.282 57.818 15.319 57.933 C 15.337 57.99 15.354 58.047 15.37 58.103 C 15.387 58.157 15.403 58.211 15.417 58.264 C 15.446 58.37 15.471 58.471 15.491 58.567 C 15.532 58.758 15.558 58.922 15.573 59.039 C 15.58 59.097 15.586 59.143 15.59 59.174 C 15.593 59.206 15.594 59.222 15.594 59.222 C 15.594 59.222 15.579 59.216 15.549 59.205 C 15.52 59.194 15.479 59.174 15.428 59.148 C 15.324 59.096 15.179 59.018 15.015 58.911 C 14.932 58.859 14.85 58.79 14.763 58.719 C 14.677 58.647 14.589 58.567 14.503 58.48 C 14.481 58.458 14.46 58.436 14.438 58.414 C 14.418 58.391 14.397 58.366 14.377 58.341 C 14.337 58.292 14.297 58.241 14.258 58.188 C 14.181 58.082 14.109 57.97 14.044 57.851 C 13.92 57.605 13.842 57.354 13.793 57.122 C 13.747 56.885 13.736 56.659 13.738 56.47 C 13.74 56.279 13.756 56.125 13.775 56.011 C 13.793 55.899 13.81 55.835 13.81 55.835 C 13.81 55.835 13.821 55.844 13.843 55.86 C 13.865 55.876 13.894 55.903 13.935 55.932 C 14.015 55.993 14.124 56.084 14.245 56.206 C 14.49 56.446 14.792 56.786 15.031 57.243 Z " fill="rgb(186,140,26)"/><path d=" M 13.464 59.809 C 13.611 59.83 13.761 59.829 13.901 59.825 C 14.041 59.82 14.176 59.806 14.302 59.786 C 14.366 59.776 14.427 59.765 14.487 59.752 C 14.547 59.737 14.605 59.721 14.661 59.705 C 14.773 59.672 14.876 59.636 14.969 59.6 C 15.156 59.527 15.302 59.452 15.403 59.395 C 15.453 59.367 15.492 59.342 15.519 59.325 C 15.545 59.307 15.559 59.297 15.559 59.297 C 15.559 59.297 15.5 59.265 15.398 59.208 C 15.296 59.153 15.147 59.08 14.964 59.007 C 14.871 58.972 14.775 58.927 14.668 58.889 C 14.562 58.849 14.448 58.811 14.327 58.778 C 14.297 58.77 14.266 58.761 14.235 58.753 C 14.204 58.744 14.174 58.735 14.143 58.727 C 14.08 58.709 14.016 58.693 13.951 58.678 C 13.82 58.649 13.682 58.626 13.539 58.61 C 13.259 58.571 12.984 58.563 12.725 58.576 C 12.469 58.585 12.235 58.607 12.031 58.638 C 11.829 58.667 11.657 58.706 11.542 58.731 C 11.425 58.757 11.359 58.778 11.359 58.778 C 11.359 58.778 11.372 58.791 11.398 58.816 C 11.424 58.84 11.46 58.878 11.512 58.919 C 11.614 59.003 11.763 59.118 11.949 59.241 C 11.996 59.271 12.045 59.302 12.096 59.334 C 12.148 59.363 12.203 59.393 12.26 59.422 C 12.373 59.48 12.494 59.537 12.622 59.59 C 12.686 59.616 12.751 59.642 12.818 59.665 C 12.887 59.686 12.956 59.706 13.027 59.724 C 13.169 59.76 13.315 59.79 13.464 59.809 Z " fill="rgb(186,140,26)"/><path d=" M 12.854 55.518 C 12.889 55.641 12.916 55.766 12.936 55.891 C 12.946 55.953 12.955 56.015 12.963 56.077 C 12.971 56.138 12.979 56.197 12.985 56.256 C 13.01 56.492 13.016 56.718 13.014 56.915 C 13.011 57.112 13.005 57.273 12.995 57.39 C 12.985 57.506 12.975 57.573 12.975 57.573 C 12.975 57.573 12.919 57.536 12.827 57.465 C 12.733 57.397 12.612 57.284 12.478 57.141 C 12.41 57.069 12.34 56.989 12.27 56.902 C 12.201 56.812 12.136 56.712 12.071 56.608 C 12.008 56.502 11.946 56.391 11.892 56.272 C 11.842 56.15 11.797 56.023 11.761 55.891 C 11.727 55.758 11.698 55.631 11.687 55.5 C 11.674 55.37 11.671 55.244 11.674 55.124 C 11.677 55.004 11.686 54.889 11.7 54.782 C 11.713 54.675 11.736 54.571 11.758 54.478 C 11.803 54.292 11.855 54.141 11.896 54.037 C 11.936 53.933 11.965 53.874 11.965 53.874 C 11.965 53.874 12.007 53.916 12.07 53.995 C 12.101 54.034 12.138 54.082 12.178 54.139 C 12.219 54.196 12.261 54.263 12.31 54.333 C 12.358 54.404 12.408 54.482 12.457 54.569 C 12.481 54.612 12.505 54.657 12.529 54.704 C 12.54 54.728 12.552 54.751 12.564 54.776 C 12.576 54.8 12.588 54.823 12.601 54.848 C 12.65 54.945 12.697 55.051 12.739 55.163 C 12.76 55.22 12.779 55.278 12.798 55.338 C 12.816 55.398 12.837 55.456 12.854 55.518 Z " fill="rgb(186,140,26)"/><path d=" M 10.769 57.674 C 10.912 57.723 11.053 57.76 11.19 57.788 C 11.259 57.801 11.326 57.813 11.392 57.822 C 11.459 57.83 11.526 57.835 11.591 57.838 C 11.85 57.851 12.084 57.835 12.28 57.807 C 12.476 57.779 12.64 57.733 12.751 57.699 C 12.862 57.665 12.924 57.639 12.924 57.639 C 12.924 57.639 12.875 57.591 12.785 57.518 C 12.693 57.446 12.568 57.338 12.407 57.223 C 12.326 57.166 12.237 57.106 12.14 57.046 C 12.045 56.985 11.945 56.919 11.835 56.858 C 11.726 56.797 11.609 56.738 11.486 56.682 C 11.366 56.623 11.239 56.568 11.104 56.52 C 10.971 56.47 10.832 56.433 10.703 56.396 C 10.573 56.359 10.443 56.33 10.317 56.306 C 10.191 56.282 10.068 56.264 9.951 56.251 C 9.833 56.237 9.726 56.223 9.624 56.215 C 9.421 56.198 9.249 56.195 9.128 56.196 C 9.007 56.197 8.937 56.202 8.937 56.202 C 8.937 56.202 8.979 56.267 9.059 56.373 C 9.099 56.425 9.148 56.488 9.207 56.559 C 9.266 56.629 9.332 56.708 9.413 56.785 C 9.493 56.864 9.581 56.947 9.678 57.03 C 9.726 57.071 9.777 57.113 9.829 57.154 C 9.855 57.175 9.881 57.196 9.908 57.216 C 9.936 57.236 9.965 57.255 9.993 57.275 C 10.109 57.352 10.232 57.427 10.361 57.495 C 10.425 57.53 10.491 57.562 10.558 57.593 C 10.625 57.624 10.697 57.649 10.769 57.674 Z " fill="rgb(186,140,26)"/><path d=" M 11.103 53.353 C 11.106 53.417 11.107 53.482 11.106 53.546 C 11.104 53.611 11.103 53.674 11.101 53.736 C 11.097 53.86 11.086 53.982 11.072 54.101 C 11.057 54.22 11.039 54.335 11.018 54.445 C 10.998 54.554 10.979 54.656 10.957 54.75 C 10.915 54.94 10.869 55.099 10.834 55.211 C 10.799 55.323 10.774 55.386 10.774 55.386 C 10.774 55.386 10.728 55.337 10.655 55.247 C 10.619 55.201 10.576 55.145 10.529 55.08 C 10.483 55.014 10.429 54.942 10.382 54.854 C 10.286 54.681 10.18 54.478 10.101 54.244 C 10.063 54.126 10.03 54.002 10.004 53.874 C 9.978 53.745 9.956 53.615 9.955 53.475 C 9.95 53.337 9.956 53.204 9.97 53.076 C 9.983 52.948 10.003 52.826 10.035 52.708 C 10.097 52.473 10.178 52.267 10.259 52.097 C 10.279 52.054 10.299 52.014 10.319 51.976 C 10.341 51.938 10.361 51.902 10.381 51.868 C 10.421 51.801 10.459 51.744 10.491 51.697 C 10.554 51.604 10.596 51.553 10.596 51.553 C 10.596 51.553 10.625 51.604 10.667 51.695 C 10.707 51.788 10.773 51.915 10.832 52.076 C 10.862 52.157 10.891 52.245 10.918 52.341 C 10.95 52.435 10.979 52.535 11.003 52.642 C 11.029 52.749 11.047 52.865 11.065 52.983 C 11.085 53.1 11.098 53.224 11.103 53.353 Z " fill="rgb(186,140,26)"/><path d=" M 8.602 54.994 C 8.665 55.034 8.729 55.071 8.793 55.106 C 8.825 55.123 8.857 55.14 8.888 55.156 C 8.921 55.171 8.954 55.186 8.987 55.199 C 9.117 55.255 9.245 55.3 9.369 55.336 C 9.492 55.372 9.612 55.4 9.724 55.42 C 9.838 55.44 9.949 55.451 10.048 55.458 C 10.248 55.472 10.414 55.467 10.529 55.459 C 10.645 55.45 10.71 55.439 10.71 55.439 C 10.71 55.439 10.674 55.381 10.604 55.288 C 10.568 55.242 10.525 55.186 10.473 55.124 C 10.422 55.062 10.358 54.996 10.295 54.919 C 10.167 54.768 10.003 54.605 9.816 54.437 C 9.725 54.351 9.626 54.266 9.518 54.184 C 9.411 54.101 9.294 54.023 9.177 53.943 C 9.059 53.864 8.937 53.795 8.815 53.732 C 8.693 53.668 8.57 53.613 8.455 53.56 C 8.222 53.456 7.997 53.376 7.799 53.316 C 7.749 53.302 7.702 53.288 7.656 53.275 C 7.612 53.262 7.569 53.25 7.53 53.239 C 7.45 53.217 7.379 53.199 7.321 53.186 C 7.204 53.16 7.135 53.149 7.135 53.149 C 7.135 53.149 7.16 53.222 7.213 53.344 C 7.263 53.467 7.355 53.633 7.473 53.824 C 7.532 53.92 7.599 54.021 7.673 54.125 C 7.752 54.226 7.839 54.329 7.933 54.431 C 8.028 54.533 8.127 54.636 8.239 54.731 C 8.353 54.824 8.474 54.913 8.602 54.994 Z " fill="rgb(186,140,26)"/><path d=" M 9.864 50.855 C 9.825 51.107 9.753 51.351 9.669 51.578 C 9.593 51.801 9.505 52.008 9.42 52.184 C 9.335 52.36 9.253 52.507 9.198 52.606 C 9.141 52.706 9.104 52.763 9.104 52.763 C 9.104 52.763 9.067 52.706 9.014 52.602 C 8.965 52.496 8.9 52.344 8.838 52.156 C 8.77 51.971 8.726 51.743 8.697 51.498 C 8.69 51.437 8.684 51.375 8.68 51.311 C 8.675 51.248 8.678 51.182 8.68 51.117 C 8.685 50.985 8.698 50.851 8.721 50.716 C 8.732 50.649 8.745 50.584 8.762 50.52 C 8.78 50.455 8.8 50.392 8.822 50.331 C 8.866 50.208 8.915 50.093 8.968 49.986 C 9.071 49.773 9.202 49.589 9.321 49.441 C 9.44 49.293 9.551 49.179 9.631 49.103 C 9.712 49.027 9.763 48.987 9.763 48.987 C 9.763 48.987 9.841 49.208 9.878 49.55 C 9.906 49.719 9.925 49.919 9.922 50.141 C 9.927 50.359 9.913 50.599 9.864 50.855 Z " fill="rgb(186,140,26)"/><path d=" M 7.066 51.896 C 7.286 52.109 7.517 52.275 7.739 52.402 C 7.969 52.526 8.189 52.612 8.379 52.672 C 8.569 52.73 8.729 52.764 8.846 52.78 C 8.962 52.797 9.03 52.8 9.03 52.8 C 9.03 52.8 9.005 52.737 8.954 52.631 C 8.908 52.524 8.837 52.373 8.739 52.2 C 8.636 52.029 8.525 51.827 8.377 51.622 C 8.34 51.571 8.302 51.52 8.261 51.468 C 8.219 51.416 8.182 51.363 8.139 51.31 C 8.055 51.205 7.962 51.101 7.86 50.998 C 7.81 50.947 7.757 50.899 7.705 50.851 C 7.655 50.803 7.604 50.756 7.553 50.711 C 7.45 50.622 7.345 50.539 7.24 50.463 C 7.028 50.311 6.832 50.182 6.655 50.078 C 6.478 49.974 6.324 49.896 6.214 49.844 C 6.104 49.792 6.038 49.767 6.038 49.767 C 6.038 49.767 6.081 50.074 6.219 50.502 C 6.298 50.713 6.402 50.954 6.536 51.197 C 6.679 51.438 6.856 51.68 7.066 51.896 Z " fill="rgb(186,140,26)"/><path d=" M 9.209 48.141 C 9.16 48.259 9.101 48.375 9.043 48.485 C 8.986 48.595 8.925 48.701 8.862 48.802 C 8.736 49.003 8.595 49.186 8.48 49.338 C 8.362 49.49 8.253 49.614 8.175 49.699 C 8.096 49.784 8.046 49.831 8.046 49.831 C 8.046 49.831 8.025 49.767 7.998 49.654 C 7.984 49.597 7.969 49.528 7.954 49.448 C 7.946 49.409 7.938 49.367 7.933 49.322 C 7.927 49.277 7.923 49.23 7.919 49.18 C 7.912 49.081 7.906 48.975 7.906 48.862 C 7.906 48.749 7.907 48.63 7.925 48.507 C 7.941 48.384 7.964 48.258 7.995 48.131 C 8.01 48.067 8.028 48.004 8.047 47.94 C 8.067 47.877 8.094 47.813 8.121 47.75 C 8.176 47.624 8.238 47.505 8.305 47.396 C 8.372 47.286 8.44 47.185 8.52 47.092 C 8.676 46.907 8.837 46.756 8.983 46.638 C 9.057 46.578 9.125 46.527 9.189 46.484 C 9.254 46.441 9.312 46.405 9.361 46.377 C 9.458 46.32 9.517 46.292 9.517 46.292 C 9.517 46.292 9.522 46.351 9.521 46.452 C 9.52 46.554 9.525 46.697 9.509 46.869 C 9.501 46.955 9.489 47.048 9.473 47.146 C 9.462 47.245 9.445 47.348 9.422 47.456 C 9.399 47.564 9.368 47.676 9.331 47.79 C 9.299 47.905 9.259 48.022 9.209 48.141 Z " fill="rgb(186,140,26)"/><path d=" M 6.253 48.529 C 6.335 48.658 6.418 48.776 6.511 48.883 C 6.605 48.99 6.702 49.086 6.799 49.173 C 6.994 49.346 7.18 49.481 7.359 49.58 C 7.534 49.679 7.686 49.747 7.794 49.79 C 7.902 49.832 7.967 49.851 7.967 49.851 C 7.967 49.851 7.958 49.783 7.933 49.668 C 7.921 49.611 7.905 49.542 7.884 49.464 C 7.873 49.424 7.861 49.383 7.849 49.339 C 7.838 49.295 7.826 49.249 7.813 49.201 C 7.786 49.105 7.754 49.002 7.716 48.894 C 7.678 48.786 7.63 48.674 7.586 48.557 C 7.54 48.44 7.487 48.32 7.425 48.199 C 7.394 48.138 7.361 48.077 7.326 48.016 C 7.29 47.955 7.258 47.893 7.22 47.832 C 7.147 47.71 7.067 47.594 6.984 47.484 C 6.901 47.374 6.811 47.27 6.731 47.172 C 6.566 46.977 6.397 46.807 6.244 46.667 C 6.168 46.597 6.095 46.535 6.032 46.48 C 5.969 46.426 5.913 46.38 5.866 46.342 C 5.772 46.267 5.714 46.228 5.714 46.228 C 5.714 46.228 5.706 46.305 5.701 46.438 C 5.697 46.571 5.709 46.76 5.732 46.983 C 5.745 47.095 5.761 47.215 5.785 47.34 C 5.813 47.466 5.848 47.597 5.889 47.73 C 5.931 47.863 5.978 47.999 6.037 48.133 C 6.1 48.268 6.172 48.4 6.253 48.529 Z " fill="rgb(186,140,26)"/><path d=" M 9.155 45.342 C 9.083 45.447 9.004 45.547 8.922 45.642 C 8.841 45.737 8.752 45.826 8.672 45.911 C 8.508 46.08 8.339 46.228 8.187 46.35 C 8.111 46.412 8.038 46.466 7.975 46.514 C 7.912 46.562 7.856 46.602 7.809 46.635 C 7.715 46.701 7.657 46.736 7.657 46.736 C 7.657 46.736 7.649 46.668 7.644 46.551 C 7.64 46.435 7.652 46.269 7.674 46.072 C 7.687 45.974 7.702 45.868 7.726 45.758 C 7.753 45.648 7.786 45.533 7.826 45.417 C 7.867 45.3 7.913 45.181 7.97 45.064 C 8.031 44.948 8.101 44.832 8.179 44.72 C 8.259 44.609 8.341 44.507 8.431 44.415 C 8.523 44.323 8.618 44.241 8.712 44.168 C 8.902 44.021 9.083 43.908 9.259 43.827 C 9.431 43.745 9.58 43.691 9.686 43.657 C 9.792 43.623 9.855 43.609 9.855 43.609 C 9.855 43.609 9.848 43.668 9.827 43.766 C 9.817 43.816 9.803 43.875 9.784 43.942 C 9.774 43.976 9.764 44.012 9.753 44.049 C 9.743 44.087 9.733 44.127 9.721 44.168 C 9.697 44.25 9.667 44.339 9.631 44.431 C 9.596 44.524 9.551 44.62 9.509 44.72 C 9.466 44.821 9.414 44.924 9.354 45.027 C 9.324 45.079 9.292 45.132 9.258 45.184 C 9.223 45.236 9.192 45.289 9.155 45.342 Z " fill="rgb(186,140,26)"/><path d=" M 6.186 45.069 C 6.239 45.213 6.3 45.347 6.366 45.472 C 6.432 45.596 6.5 45.711 6.579 45.817 C 6.734 46.029 6.895 46.202 7.04 46.338 C 7.114 46.406 7.182 46.465 7.246 46.515 C 7.311 46.565 7.369 46.606 7.418 46.639 C 7.515 46.705 7.575 46.737 7.575 46.737 C 7.575 46.737 7.579 46.669 7.578 46.552 C 7.577 46.434 7.582 46.268 7.567 46.069 C 7.56 45.969 7.548 45.862 7.533 45.748 C 7.523 45.635 7.507 45.515 7.485 45.39 C 7.463 45.266 7.434 45.137 7.399 45.005 C 7.369 44.873 7.33 44.739 7.283 44.603 C 7.236 44.467 7.178 44.335 7.123 44.21 C 7.069 44.084 7.01 43.964 6.949 43.85 C 6.828 43.623 6.691 43.418 6.58 43.249 C 6.465 43.079 6.36 42.942 6.283 42.847 C 6.207 42.753 6.158 42.702 6.158 42.702 C 6.158 42.702 6.135 42.775 6.104 42.905 C 6.088 42.969 6.071 43.048 6.053 43.138 C 6.045 43.184 6.035 43.232 6.029 43.283 C 6.022 43.334 6.017 43.388 6.011 43.444 C 6.001 43.556 5.994 43.678 5.991 43.806 C 5.988 43.935 5.986 44.069 6.002 44.209 C 6.016 44.348 6.036 44.492 6.065 44.636 C 6.079 44.708 6.096 44.781 6.115 44.853 C 6.133 44.925 6.16 44.997 6.186 45.069 Z " fill="rgb(186,140,26)"/><path d=" M 9.709 42.604 C 9.661 42.647 9.61 42.688 9.561 42.727 C 9.513 42.768 9.465 42.807 9.416 42.844 C 9.317 42.919 9.216 42.987 9.115 43.051 C 8.909 43.176 8.719 43.284 8.546 43.371 C 8.373 43.456 8.222 43.521 8.114 43.564 C 8.006 43.607 7.941 43.628 7.941 43.628 C 7.941 43.628 7.976 43.359 8.101 42.984 C 8.173 42.8 8.268 42.59 8.393 42.379 C 8.526 42.17 8.691 41.962 8.889 41.779 C 9.097 41.599 9.317 41.462 9.529 41.359 C 9.749 41.259 9.96 41.194 10.142 41.151 C 10.325 41.108 10.478 41.087 10.592 41.08 C 10.704 41.071 10.769 41.072 10.769 41.072 C 10.769 41.072 10.748 41.127 10.705 41.217 C 10.665 41.31 10.604 41.44 10.517 41.587 C 10.425 41.733 10.327 41.906 10.191 42.079 C 10.157 42.122 10.121 42.166 10.083 42.209 C 10.045 42.252 10.01 42.298 9.971 42.342 C 9.892 42.431 9.805 42.519 9.709 42.604 Z " fill="rgb(186,140,26)"/><path d=" M 6.872 41.674 C 6.881 41.75 6.891 41.823 6.906 41.895 C 6.922 41.968 6.94 42.038 6.959 42.107 C 6.999 42.244 7.044 42.373 7.094 42.493 C 7.19 42.732 7.315 42.938 7.43 43.104 C 7.545 43.27 7.653 43.396 7.732 43.481 C 7.811 43.567 7.86 43.611 7.86 43.611 C 7.86 43.611 7.946 43.353 7.997 42.957 C 8.031 42.761 8.059 42.531 8.065 42.276 C 8.08 42.025 8.078 41.751 8.04 41.463 C 8.013 41.179 7.953 40.906 7.879 40.654 C 7.814 40.406 7.734 40.179 7.657 39.987 C 7.579 39.794 7.503 39.635 7.452 39.527 C 7.399 39.419 7.364 39.358 7.364 39.358 C 7.364 39.358 7.323 39.424 7.263 39.542 C 7.207 39.663 7.132 39.837 7.059 40.049 C 6.981 40.26 6.924 40.518 6.883 40.794 C 6.873 40.863 6.864 40.933 6.857 41.005 C 6.85 41.076 6.85 41.15 6.849 41.224 C 6.848 41.372 6.855 41.523 6.872 41.674 Z " fill="rgb(186,140,26)"/><path d=" M 10.847 40.058 C 10.737 40.122 10.624 40.178 10.509 40.227 C 10.395 40.277 10.278 40.32 10.17 40.361 C 9.949 40.442 9.733 40.501 9.544 40.545 C 9.448 40.566 9.361 40.585 9.285 40.601 C 9.207 40.617 9.139 40.629 9.083 40.638 C 8.97 40.657 8.903 40.663 8.903 40.663 C 8.903 40.663 8.924 40.598 8.97 40.491 C 9.013 40.383 9.096 40.238 9.2 40.071 C 9.253 39.988 9.313 39.9 9.38 39.81 C 9.452 39.723 9.531 39.634 9.617 39.546 C 9.703 39.459 9.794 39.371 9.897 39.291 C 10.002 39.213 10.114 39.138 10.232 39.072 C 10.291 39.039 10.35 39.009 10.41 38.981 C 10.439 38.967 10.469 38.954 10.498 38.941 C 10.529 38.929 10.56 38.918 10.59 38.907 C 10.712 38.864 10.832 38.831 10.948 38.806 C 11.064 38.78 11.176 38.762 11.282 38.751 C 11.39 38.74 11.494 38.737 11.588 38.737 C 11.777 38.737 11.934 38.753 12.044 38.769 C 12.154 38.784 12.217 38.799 12.217 38.799 C 12.217 38.799 12.186 38.849 12.126 38.929 C 12.096 38.97 12.058 39.017 12.013 39.071 C 11.969 39.124 11.912 39.18 11.858 39.246 C 11.746 39.374 11.6 39.512 11.431 39.652 C 11.349 39.724 11.259 39.794 11.161 39.862 C 11.063 39.93 10.955 39.994 10.847 40.058 Z " fill="rgb(186,140,26)"/><path d=" M 8.285 38.517 C 8.272 38.669 8.269 38.817 8.276 38.958 C 8.281 39.1 8.295 39.234 8.321 39.364 C 8.37 39.622 8.441 39.849 8.514 40.035 C 8.532 40.081 8.551 40.125 8.569 40.167 C 8.588 40.209 8.608 40.248 8.626 40.285 C 8.664 40.358 8.699 40.421 8.728 40.472 C 8.788 40.573 8.828 40.628 8.828 40.628 C 8.828 40.628 8.861 40.569 8.91 40.463 C 8.957 40.355 9.033 40.207 9.104 40.021 C 9.14 39.928 9.176 39.827 9.211 39.717 C 9.25 39.61 9.287 39.495 9.32 39.373 C 9.354 39.252 9.381 39.121 9.407 38.988 C 9.436 38.856 9.458 38.718 9.473 38.574 C 9.481 38.503 9.486 38.431 9.489 38.36 C 9.492 38.289 9.495 38.219 9.498 38.151 C 9.502 38.014 9.499 37.88 9.493 37.75 C 9.486 37.62 9.474 37.495 9.46 37.376 C 9.447 37.259 9.433 37.15 9.417 37.047 C 9.386 36.844 9.348 36.674 9.319 36.555 C 9.29 36.436 9.268 36.369 9.268 36.369 C 9.268 36.369 9.216 36.425 9.133 36.529 C 9.092 36.58 9.043 36.644 8.989 36.718 C 8.936 36.793 8.875 36.876 8.819 36.974 C 8.707 37.169 8.584 37.398 8.486 37.66 C 8.439 37.792 8.396 37.931 8.361 38.073 C 8.326 38.216 8.296 38.362 8.285 38.517 Z " fill="rgb(186,140,26)"/><path d=" M 12.516 37.828 C 12.394 37.865 12.266 37.89 12.147 37.916 C 12.027 37.941 11.907 37.959 11.789 37.973 C 11.671 37.987 11.556 37.996 11.446 38.001 C 11.335 38.007 11.234 38.012 11.138 38.013 C 10.946 38.016 10.782 38.009 10.667 38.001 C 10.551 37.993 10.484 37.983 10.484 37.983 C 10.484 37.983 10.52 37.926 10.59 37.834 C 10.626 37.787 10.669 37.732 10.721 37.67 C 10.773 37.609 10.831 37.54 10.903 37.473 C 10.974 37.404 11.053 37.333 11.14 37.262 C 11.183 37.226 11.228 37.19 11.275 37.155 C 11.298 37.137 11.322 37.12 11.346 37.102 C 11.372 37.085 11.397 37.069 11.423 37.052 C 11.528 36.988 11.639 36.925 11.756 36.87 C 11.814 36.841 11.874 36.815 11.935 36.79 C 11.996 36.765 12.062 36.746 12.127 36.727 C 12.259 36.691 12.388 36.664 12.514 36.648 C 12.577 36.639 12.639 36.633 12.7 36.628 C 12.762 36.625 12.824 36.625 12.884 36.626 C 13.124 36.63 13.341 36.661 13.523 36.7 C 13.706 36.74 13.859 36.795 13.963 36.834 C 14.067 36.874 14.126 36.903 14.126 36.903 C 14.126 36.903 14.084 36.944 14.006 37.007 C 13.927 37.069 13.819 37.162 13.679 37.259 C 13.608 37.308 13.53 37.358 13.444 37.407 C 13.361 37.458 13.272 37.512 13.175 37.562 C 13.078 37.612 12.972 37.659 12.861 37.702 C 12.753 37.75 12.638 37.792 12.516 37.828 Z " fill="rgb(186,140,26)"/><path d=" M 10.35 35.755 C 10.303 35.901 10.264 36.039 10.243 36.181 C 10.22 36.323 10.207 36.46 10.202 36.59 C 10.196 36.72 10.198 36.844 10.205 36.959 C 10.211 37.075 10.228 37.187 10.244 37.286 C 10.278 37.486 10.322 37.648 10.357 37.759 C 10.392 37.871 10.419 37.933 10.419 37.933 C 10.419 37.933 10.465 37.884 10.538 37.792 C 10.575 37.747 10.618 37.691 10.665 37.625 C 10.712 37.559 10.762 37.483 10.82 37.402 C 10.877 37.321 10.936 37.231 10.995 37.133 C 11.024 37.084 11.054 37.033 11.083 36.98 C 11.097 36.953 11.111 36.926 11.126 36.899 C 11.141 36.872 11.156 36.845 11.171 36.818 C 11.232 36.708 11.29 36.59 11.344 36.465 C 11.37 36.403 11.396 36.338 11.421 36.272 C 11.445 36.206 11.472 36.142 11.495 36.074 C 11.542 35.938 11.581 35.802 11.612 35.667 C 11.628 35.6 11.642 35.533 11.655 35.466 C 11.668 35.401 11.681 35.337 11.692 35.273 C 11.737 35.02 11.76 34.779 11.77 34.57 C 11.781 34.362 11.786 34.193 11.783 34.07 C 11.78 33.949 11.774 33.879 11.774 33.879 C 11.774 33.879 11.71 33.921 11.606 34.002 C 11.5 34.081 11.361 34.208 11.206 34.37 C 11.129 34.45 11.047 34.54 10.966 34.638 C 10.886 34.738 10.808 34.849 10.732 34.965 C 10.656 35.082 10.583 35.205 10.517 35.336 C 10.454 35.47 10.397 35.61 10.35 35.755 Z " fill="rgb(186,140,26)"/><path d=" M 14.624 36.018 C 14.371 36.037 14.122 36.027 13.884 35.999 C 13.649 35.974 13.432 35.939 13.242 35.896 C 13.053 35.856 12.892 35.808 12.783 35.777 C 12.673 35.745 12.61 35.722 12.61 35.722 C 12.61 35.722 12.623 35.71 12.645 35.688 C 12.667 35.666 12.699 35.633 12.744 35.597 C 12.834 35.523 12.965 35.423 13.13 35.317 C 13.461 35.107 13.944 34.894 14.485 34.86 C 14.618 34.848 14.753 34.857 14.881 34.869 C 15.008 34.882 15.13 34.903 15.245 34.929 C 15.303 34.943 15.358 34.956 15.413 34.973 C 15.468 34.99 15.521 35.009 15.572 35.027 C 15.674 35.066 15.768 35.106 15.853 35.147 C 16.024 35.228 16.158 35.309 16.251 35.37 C 16.297 35.4 16.333 35.426 16.357 35.445 C 16.382 35.464 16.395 35.474 16.395 35.474 C 16.395 35.474 16.344 35.502 16.257 35.552 C 16.169 35.599 16.041 35.662 15.882 35.722 C 15.801 35.75 15.717 35.788 15.624 35.819 C 15.531 35.851 15.431 35.88 15.325 35.906 C 15.298 35.911 15.271 35.917 15.244 35.924 C 15.217 35.93 15.189 35.937 15.162 35.943 C 15.107 35.956 15.05 35.968 14.992 35.978 C 14.875 35.998 14.753 36.012 14.624 36.018 Z " fill="rgb(186,140,26)"/><path d=" M 12.96 33.515 C 12.807 33.78 12.704 34.049 12.635 34.297 C 12.568 34.549 12.54 34.789 12.527 34.989 C 12.516 35.191 12.521 35.354 12.533 35.473 C 12.545 35.591 12.558 35.658 12.558 35.658 C 12.558 35.658 12.571 35.648 12.596 35.629 C 12.621 35.61 12.655 35.58 12.702 35.545 C 12.794 35.474 12.922 35.368 13.064 35.23 C 13.352 34.956 13.713 34.575 14.01 34.082 C 14.082 33.955 14.152 33.837 14.213 33.712 C 14.274 33.59 14.328 33.466 14.376 33.345 C 14.4 33.285 14.423 33.224 14.444 33.166 C 14.466 33.108 14.487 33.052 14.506 32.996 C 14.545 32.885 14.578 32.779 14.607 32.679 C 14.664 32.48 14.702 32.31 14.725 32.189 C 14.736 32.129 14.745 32.081 14.751 32.049 C 14.756 32.017 14.759 32 14.759 32 C 14.759 32 14.741 32.007 14.707 32.02 C 14.674 32.033 14.628 32.056 14.569 32.085 C 14.451 32.144 14.286 32.234 14.097 32.353 C 14.002 32.411 13.907 32.488 13.807 32.567 C 13.707 32.646 13.606 32.734 13.505 32.83 C 13.48 32.854 13.455 32.878 13.43 32.903 C 13.406 32.929 13.382 32.955 13.358 32.982 C 13.31 33.036 13.263 33.091 13.217 33.149 C 13.126 33.264 13.039 33.386 12.96 33.515 Z " fill="rgb(186,140,26)"/><path d=" M 16.204 32.427 C 16.068 32.493 15.941 32.566 15.824 32.643 C 15.765 32.68 15.71 32.721 15.656 32.764 C 15.602 32.807 15.551 32.85 15.503 32.893 C 15.308 33.067 15.152 33.242 15.032 33.402 C 14.912 33.567 14.826 33.711 14.77 33.815 C 14.715 33.918 14.688 33.98 14.688 33.98 C 14.688 33.98 14.755 33.98 14.871 33.969 C 14.929 33.963 14.999 33.956 15.078 33.944 C 15.158 33.934 15.248 33.925 15.345 33.909 C 15.54 33.88 15.765 33.824 16.006 33.763 C 16.126 33.731 16.251 33.691 16.378 33.643 C 16.409 33.631 16.441 33.619 16.473 33.606 C 16.505 33.594 16.537 33.582 16.569 33.57 C 16.634 33.545 16.698 33.518 16.763 33.488 C 16.893 33.428 17.017 33.362 17.136 33.291 C 17.254 33.221 17.367 33.155 17.474 33.082 C 17.687 32.94 17.876 32.787 18.033 32.654 C 18.19 32.524 18.316 32.406 18.402 32.321 C 18.488 32.235 18.534 32.182 18.534 32.182 C 18.534 32.182 18.459 32.165 18.329 32.144 C 18.264 32.134 18.185 32.124 18.095 32.114 C 18.004 32.105 17.901 32.103 17.79 32.102 C 17.678 32.101 17.558 32.104 17.431 32.112 C 17.368 32.117 17.303 32.12 17.237 32.129 C 17.171 32.139 17.104 32.15 17.035 32.163 C 16.763 32.216 16.477 32.289 16.204 32.427 Z " fill="rgb(186,140,26)"/><path d=" M 25.495 63 C 25.436 63 25.377 62.98 25.328 62.938 C 23.728 61.553 18.499 60.581 18.446 60.572 C 12.79 59.168 10.11 55.602 8.855 52.857 C 6.826 48.416 7.191 43.285 8.6 40.512 C 11.068 35.657 15.857 32.87 15.905 32.843 C 16.027 32.773 16.183 32.815 16.253 32.937 C 16.323 33.059 16.281 33.216 16.159 33.285 C 16.112 33.312 11.452 36.028 9.055 40.744 C 7.701 43.407 7.358 48.351 9.32 52.645 C 10.528 55.288 13.11 58.722 18.554 60.073 C 18.759 60.11 23.958 61.077 25.662 62.552 C 25.769 62.644 25.781 62.805 25.688 62.912 C 25.638 62.97 25.567 63 25.495 63 Z " fill="rgb(186,140,26)"/><path d=" M 27.822 58.436 C 27.739 58.533 27.662 58.635 27.591 58.74 C 27.52 58.844 27.452 58.942 27.391 59.045 C 27.268 59.248 27.167 59.453 27.085 59.629 C 27.003 59.804 26.941 59.956 26.9 60.065 C 26.859 60.174 26.84 60.239 26.84 60.239 C 26.84 60.239 26.906 60.23 27.019 60.206 C 27.076 60.193 27.144 60.177 27.221 60.156 C 27.298 60.134 27.382 60.101 27.473 60.066 C 27.564 60.03 27.661 59.987 27.761 59.939 C 27.812 59.914 27.863 59.889 27.914 59.859 C 27.964 59.829 28.016 59.796 28.066 59.762 C 28.27 59.624 28.477 59.464 28.651 59.249 C 28.738 59.144 28.816 59.036 28.883 58.928 C 28.918 58.875 28.948 58.819 28.977 58.762 C 29.004 58.706 29.031 58.65 29.054 58.594 C 29.15 58.373 29.213 58.162 29.252 57.977 C 29.29 57.788 29.306 57.628 29.313 57.516 C 29.32 57.403 29.318 57.337 29.318 57.337 C 29.318 57.337 29.264 57.358 29.174 57.403 C 29.129 57.425 29.076 57.454 29.016 57.489 C 28.955 57.521 28.886 57.558 28.813 57.602 C 28.667 57.688 28.506 57.809 28.333 57.941 C 28.248 58.009 28.162 58.084 28.077 58.169 L 28.014 58.234 L 27.949 58.298 C 27.906 58.342 27.864 58.388 27.822 58.436 Z " fill="rgb(186,140,26)"/><path d=" M 28.789 61.289 C 28.639 61.273 28.496 61.246 28.361 61.212 C 28.225 61.178 28.096 61.128 27.977 61.08 C 27.737 60.98 27.534 60.867 27.368 60.754 C 27.202 60.638 27.074 60.53 26.989 60.45 C 26.903 60.371 26.858 60.321 26.858 60.321 C 26.858 60.321 26.922 60.299 27.035 60.271 C 27.091 60.257 27.159 60.242 27.238 60.226 C 27.317 60.21 27.405 60.188 27.502 60.172 C 27.598 60.154 27.704 60.138 27.817 60.125 C 27.874 60.12 27.932 60.114 27.991 60.108 C 28.05 60.101 28.111 60.096 28.173 60.091 C 28.421 60.072 28.696 60.081 28.977 60.102 C 29.119 60.115 29.257 60.137 29.392 60.164 C 29.459 60.179 29.525 60.192 29.59 60.206 C 29.654 60.22 29.717 60.235 29.779 60.251 C 30.026 60.315 30.253 60.396 30.445 60.471 C 30.635 60.543 30.791 60.613 30.9 60.666 C 31.009 60.718 31.069 60.753 31.069 60.753 C 31.069 60.753 31.005 60.794 30.888 60.856 C 30.83 60.887 30.759 60.923 30.676 60.962 C 30.593 60.999 30.497 61.036 30.392 61.074 C 30.181 61.148 29.936 61.228 29.659 61.265 C 29.523 61.285 29.38 61.301 29.235 61.308 C 29.199 61.309 29.163 61.311 29.126 61.311 C 29.088 61.311 29.051 61.309 29.014 61.307 C 28.94 61.304 28.864 61.298 28.789 61.289 Z " fill="rgb(186,140,26)"/><path d=" M 30.319 57.243 C 30.262 57.361 30.205 57.47 30.158 57.586 C 30.11 57.702 30.068 57.818 30.031 57.933 C 30.013 57.99 29.996 58.047 29.98 58.103 C 29.963 58.157 29.948 58.211 29.933 58.264 C 29.904 58.37 29.88 58.471 29.859 58.567 C 29.818 58.758 29.792 58.922 29.777 59.039 C 29.77 59.097 29.765 59.143 29.761 59.174 C 29.758 59.206 29.756 59.222 29.756 59.222 C 29.756 59.222 29.772 59.216 29.801 59.205 C 29.83 59.194 29.871 59.174 29.923 59.148 C 30.026 59.096 30.171 59.018 30.335 58.911 C 30.418 58.859 30.501 58.79 30.587 58.719 C 30.673 58.647 30.761 58.567 30.847 58.48 C 30.869 58.458 30.89 58.436 30.912 58.414 C 30.932 58.391 30.953 58.366 30.973 58.341 C 31.014 58.292 31.053 58.241 31.092 58.188 C 31.169 58.082 31.241 57.97 31.306 57.851 C 31.43 57.605 31.509 57.354 31.557 57.122 C 31.603 56.885 31.614 56.659 31.613 56.47 C 31.61 56.279 31.594 56.125 31.576 56.011 C 31.557 55.899 31.541 55.835 31.541 55.835 C 31.541 55.835 31.529 55.844 31.508 55.86 C 31.486 55.876 31.456 55.903 31.416 55.932 C 31.336 55.993 31.226 56.084 31.105 56.206 C 30.86 56.446 30.558 56.786 30.319 57.243 Z " fill="rgb(186,140,26)"/><path d=" M 31.886 59.809 C 31.739 59.83 31.59 59.829 31.45 59.825 C 31.309 59.82 31.175 59.806 31.048 59.786 C 30.985 59.776 30.924 59.765 30.864 59.752 C 30.803 59.737 30.745 59.721 30.689 59.705 C 30.577 59.672 30.474 59.636 30.381 59.6 C 30.195 59.527 30.048 59.452 29.948 59.395 C 29.898 59.367 29.858 59.342 29.832 59.325 C 29.805 59.307 29.791 59.297 29.791 59.297 C 29.791 59.297 29.85 59.265 29.952 59.208 C 30.055 59.153 30.203 59.08 30.387 59.007 C 30.48 58.972 30.575 58.927 30.682 58.889 C 30.788 58.849 30.902 58.811 31.023 58.778 C 31.054 58.77 31.085 58.761 31.115 58.753 C 31.146 58.744 31.176 58.735 31.208 58.727 C 31.27 58.709 31.334 58.693 31.399 58.678 C 31.531 58.649 31.668 58.626 31.811 58.61 C 32.092 58.571 32.366 58.563 32.625 58.576 C 32.881 58.585 33.115 58.607 33.319 58.638 C 33.521 58.667 33.693 58.706 33.809 58.731 C 33.925 58.757 33.992 58.778 33.992 58.778 C 33.992 58.778 33.978 58.791 33.952 58.816 C 33.927 58.84 33.89 58.878 33.838 58.919 C 33.736 59.003 33.587 59.118 33.401 59.241 C 33.355 59.271 33.305 59.302 33.255 59.334 C 33.202 59.363 33.147 59.393 33.091 59.422 C 32.977 59.48 32.856 59.537 32.728 59.59 C 32.665 59.616 32.6 59.642 32.532 59.665 C 32.464 59.686 32.394 59.706 32.323 59.724 C 32.181 59.76 32.035 59.79 31.886 59.809 Z " fill="rgb(186,140,26)"/><path d=" M 32.497 55.518 C 32.462 55.641 32.435 55.766 32.414 55.891 C 32.404 55.953 32.395 56.015 32.388 56.077 C 32.379 56.138 32.371 56.197 32.365 56.256 C 32.34 56.492 32.334 56.718 32.337 56.915 C 32.339 57.112 32.345 57.273 32.356 57.39 C 32.365 57.506 32.375 57.573 32.375 57.573 C 32.375 57.573 32.431 57.536 32.523 57.465 C 32.617 57.397 32.738 57.284 32.873 57.141 C 32.94 57.069 33.01 56.989 33.081 56.902 C 33.149 56.812 33.215 56.712 33.279 56.608 C 33.342 56.502 33.404 56.391 33.458 56.272 C 33.509 56.15 33.554 56.023 33.589 55.891 C 33.624 55.758 33.652 55.631 33.664 55.5 C 33.676 55.37 33.679 55.244 33.677 55.124 C 33.674 55.004 33.664 54.889 33.651 54.782 C 33.637 54.675 33.614 54.571 33.592 54.478 C 33.547 54.292 33.495 54.141 33.454 54.037 C 33.414 53.933 33.385 53.874 33.385 53.874 C 33.385 53.874 33.344 53.916 33.281 53.995 C 33.249 54.034 33.212 54.082 33.172 54.139 C 33.131 54.196 33.089 54.263 33.04 54.333 C 32.992 54.404 32.942 54.482 32.894 54.569 C 32.869 54.612 32.845 54.657 32.821 54.704 C 32.81 54.728 32.798 54.751 32.787 54.776 C 32.774 54.8 32.762 54.823 32.749 54.848 C 32.7 54.945 32.653 55.051 32.612 55.163 C 32.591 55.22 32.571 55.278 32.552 55.338 C 32.534 55.398 32.513 55.456 32.497 55.518 Z " fill="rgb(186,140,26)"/><path d=" M 34.582 57.674 C 34.438 57.723 34.297 57.76 34.16 57.788 C 34.091 57.801 34.024 57.813 33.958 57.822 C 33.891 57.83 33.824 57.835 33.759 57.838 C 33.5 57.851 33.266 57.835 33.07 57.807 C 32.874 57.779 32.71 57.733 32.6 57.699 C 32.488 57.665 32.426 57.639 32.426 57.639 C 32.426 57.639 32.475 57.591 32.565 57.518 C 32.657 57.446 32.783 57.338 32.943 57.223 C 33.024 57.166 33.113 57.106 33.21 57.046 C 33.305 56.985 33.405 56.919 33.515 56.858 C 33.624 56.797 33.741 56.738 33.864 56.682 C 33.984 56.623 34.112 56.568 34.246 56.52 C 34.379 56.47 34.518 56.433 34.647 56.396 C 34.778 56.359 34.907 56.33 35.033 56.306 C 35.159 56.282 35.282 56.264 35.4 56.251 C 35.517 56.237 35.624 56.223 35.726 56.215 C 35.929 56.198 36.101 56.195 36.222 56.196 C 36.343 56.197 36.413 56.202 36.413 56.202 C 36.413 56.202 36.371 56.267 36.291 56.373 C 36.251 56.425 36.202 56.488 36.143 56.559 C 36.084 56.629 36.018 56.708 35.937 56.785 C 35.857 56.864 35.769 56.947 35.672 57.03 C 35.624 57.071 35.574 57.113 35.522 57.154 C 35.495 57.175 35.469 57.196 35.442 57.216 C 35.414 57.236 35.385 57.255 35.357 57.275 C 35.241 57.352 35.118 57.427 34.99 57.495 C 34.925 57.53 34.859 57.562 34.792 57.593 C 34.725 57.624 34.653 57.649 34.582 57.674 Z " fill="rgb(186,140,26)"/><path d=" M 34.247 53.353 C 34.244 53.417 34.243 53.482 34.245 53.546 C 34.246 53.611 34.248 53.674 34.249 53.736 C 34.253 53.86 34.264 53.982 34.278 54.101 C 34.293 54.22 34.312 54.335 34.333 54.445 C 34.353 54.554 34.372 54.656 34.393 54.75 C 34.436 54.94 34.481 55.099 34.516 55.211 C 34.551 55.323 34.576 55.386 34.576 55.386 C 34.576 55.386 34.622 55.337 34.695 55.247 C 34.731 55.201 34.774 55.145 34.821 55.08 C 34.867 55.014 34.921 54.942 34.968 54.854 C 35.064 54.681 35.17 54.478 35.249 54.244 C 35.287 54.126 35.32 54.002 35.346 53.874 C 35.372 53.745 35.394 53.615 35.395 53.475 C 35.4 53.337 35.394 53.204 35.381 53.076 C 35.367 52.948 35.347 52.826 35.315 52.708 C 35.254 52.473 35.173 52.267 35.091 52.097 C 35.071 52.054 35.051 52.014 35.031 51.976 C 35.01 51.938 34.989 51.902 34.969 51.868 C 34.929 51.801 34.891 51.744 34.86 51.697 C 34.796 51.604 34.755 51.553 34.755 51.553 C 34.755 51.553 34.725 51.604 34.683 51.695 C 34.644 51.788 34.577 51.915 34.518 52.076 C 34.488 52.157 34.459 52.245 34.432 52.341 C 34.401 52.435 34.372 52.535 34.347 52.642 C 34.321 52.749 34.303 52.865 34.285 52.983 C 34.266 53.1 34.253 53.224 34.247 53.353 Z " fill="rgb(186,140,26)"/><path d=" M 36.749 54.994 C 36.685 55.034 36.621 55.071 36.557 55.106 C 36.525 55.123 36.494 55.14 36.462 55.156 C 36.429 55.171 36.396 55.186 36.363 55.199 C 36.233 55.255 36.105 55.3 35.981 55.336 C 35.858 55.372 35.739 55.4 35.626 55.42 C 35.512 55.44 35.402 55.451 35.302 55.458 C 35.102 55.472 34.937 55.467 34.821 55.459 C 34.706 55.45 34.64 55.439 34.64 55.439 C 34.64 55.439 34.676 55.381 34.747 55.288 C 34.782 55.242 34.826 55.186 34.878 55.124 C 34.929 55.062 34.992 54.996 35.055 54.919 C 35.183 54.768 35.347 54.605 35.534 54.437 C 35.625 54.351 35.725 54.266 35.832 54.184 C 35.939 54.101 36.056 54.023 36.173 53.943 C 36.292 53.864 36.413 53.795 36.535 53.732 C 36.657 53.668 36.781 53.613 36.895 53.56 C 37.128 53.456 37.354 53.376 37.551 53.316 C 37.601 53.302 37.649 53.288 37.694 53.275 C 37.739 53.262 37.781 53.25 37.82 53.239 C 37.901 53.217 37.971 53.199 38.03 53.186 C 38.146 53.16 38.216 53.149 38.216 53.149 C 38.216 53.149 38.19 53.222 38.137 53.344 C 38.087 53.467 37.995 53.633 37.878 53.824 C 37.819 53.92 37.752 54.021 37.677 54.125 C 37.598 54.226 37.512 54.329 37.417 54.431 C 37.323 54.533 37.223 54.636 37.111 54.731 C 36.997 54.824 36.876 54.913 36.749 54.994 Z " fill="rgb(186,140,26)"/><path d=" M 35.486 50.855 C 35.526 51.107 35.597 51.351 35.681 51.578 C 35.757 51.801 35.846 52.008 35.931 52.184 C 36.015 52.36 36.098 52.507 36.153 52.606 C 36.209 52.706 36.247 52.763 36.247 52.763 C 36.247 52.763 36.283 52.706 36.336 52.602 C 36.386 52.496 36.45 52.344 36.513 52.156 C 36.58 51.971 36.624 51.743 36.654 51.498 C 36.661 51.437 36.667 51.375 36.67 51.311 C 36.675 51.248 36.672 51.182 36.67 51.117 C 36.665 50.985 36.653 50.851 36.63 50.716 C 36.618 50.649 36.605 50.584 36.588 50.52 C 36.57 50.455 36.55 50.392 36.528 50.331 C 36.485 50.208 36.435 50.093 36.382 49.986 C 36.279 49.773 36.149 49.589 36.03 49.441 C 35.91 49.293 35.799 49.179 35.719 49.103 C 35.638 49.027 35.587 48.987 35.587 48.987 C 35.587 48.987 35.509 49.208 35.472 49.55 C 35.444 49.719 35.425 49.919 35.428 50.141 C 35.423 50.359 35.437 50.599 35.486 50.855 Z " fill="rgb(186,140,26)"/><path d=" M 38.285 51.896 C 38.064 52.109 37.833 52.275 37.611 52.402 C 37.381 52.526 37.161 52.612 36.971 52.672 C 36.781 52.73 36.622 52.764 36.504 52.78 C 36.388 52.797 36.32 52.8 36.32 52.8 C 36.32 52.8 36.346 52.737 36.396 52.631 C 36.443 52.524 36.513 52.373 36.612 52.2 C 36.715 52.029 36.825 51.827 36.973 51.622 C 37.01 51.571 37.049 51.52 37.09 51.468 C 37.131 51.416 37.169 51.363 37.211 51.31 C 37.295 51.205 37.388 51.101 37.49 50.998 C 37.54 50.947 37.594 50.899 37.645 50.851 C 37.695 50.803 37.746 50.756 37.798 50.711 C 37.9 50.622 38.005 50.539 38.11 50.463 C 38.322 50.311 38.518 50.182 38.695 50.078 C 38.872 49.974 39.026 49.896 39.136 49.844 C 39.246 49.792 39.312 49.767 39.312 49.767 C 39.312 49.767 39.269 50.074 39.131 50.502 C 39.052 50.713 38.948 50.954 38.814 51.197 C 38.671 51.438 38.494 51.68 38.285 51.896 Z " fill="rgb(186,140,26)"/><path d=" M 36.141 48.141 C 36.19 48.259 36.249 48.375 36.308 48.485 C 36.364 48.595 36.425 48.701 36.489 48.802 C 36.614 49.003 36.756 49.186 36.87 49.338 C 36.988 49.49 37.097 49.614 37.175 49.699 C 37.254 49.784 37.304 49.831 37.304 49.831 C 37.304 49.831 37.325 49.767 37.353 49.654 C 37.366 49.597 37.381 49.528 37.397 49.448 C 37.404 49.409 37.412 49.367 37.418 49.322 C 37.423 49.277 37.427 49.23 37.431 49.18 C 37.439 49.081 37.444 48.975 37.444 48.862 C 37.444 48.749 37.444 48.63 37.425 48.507 C 37.409 48.384 37.386 48.258 37.356 48.131 C 37.34 48.067 37.322 48.004 37.303 47.94 C 37.284 47.877 37.256 47.813 37.229 47.75 C 37.175 47.624 37.112 47.505 37.046 47.396 C 36.978 47.286 36.91 47.185 36.83 47.092 C 36.674 46.907 36.513 46.756 36.367 46.638 C 36.294 46.578 36.226 46.527 36.161 46.484 C 36.096 46.441 36.038 46.405 35.99 46.377 C 35.892 46.32 35.833 46.292 35.833 46.292 C 35.833 46.292 35.828 46.351 35.829 46.452 C 35.83 46.554 35.825 46.697 35.842 46.869 C 35.849 46.955 35.862 47.048 35.877 47.146 C 35.888 47.245 35.905 47.348 35.928 47.456 C 35.951 47.564 35.982 47.676 36.019 47.79 C 36.051 47.905 36.091 48.022 36.141 48.141 Z " fill="rgb(186,140,26)"/><path d=" M 39.097 48.529 C 39.016 48.658 38.932 48.776 38.839 48.883 C 38.745 48.99 38.648 49.086 38.551 49.173 C 38.356 49.346 38.171 49.481 37.992 49.58 C 37.816 49.679 37.664 49.747 37.556 49.79 C 37.448 49.832 37.384 49.851 37.384 49.851 C 37.384 49.851 37.393 49.783 37.417 49.668 C 37.429 49.611 37.446 49.542 37.467 49.464 C 37.478 49.424 37.489 49.383 37.501 49.339 C 37.512 49.295 37.524 49.249 37.537 49.201 C 37.564 49.105 37.596 49.002 37.634 48.894 C 37.672 48.786 37.72 48.674 37.764 48.557 C 37.81 48.44 37.863 48.32 37.926 48.199 C 37.956 48.138 37.99 48.077 38.025 48.016 C 38.061 47.955 38.092 47.893 38.13 47.832 C 38.204 47.71 38.284 47.594 38.367 47.484 C 38.449 47.374 38.539 47.27 38.619 47.172 C 38.784 46.977 38.954 46.807 39.106 46.667 C 39.182 46.597 39.255 46.535 39.318 46.48 C 39.381 46.426 39.437 46.38 39.484 46.342 C 39.578 46.267 39.636 46.228 39.636 46.228 C 39.636 46.228 39.644 46.305 39.649 46.438 C 39.653 46.571 39.641 46.76 39.618 46.983 C 39.605 47.095 39.589 47.215 39.565 47.34 C 39.537 47.466 39.502 47.597 39.461 47.73 C 39.419 47.863 39.372 47.999 39.313 48.133 C 39.25 48.268 39.178 48.4 39.097 48.529 Z " fill="rgb(186,140,26)"/><path d=" M 36.195 45.342 C 36.267 45.447 36.346 45.547 36.428 45.642 C 36.509 45.737 36.598 45.826 36.678 45.911 C 36.842 46.08 37.011 46.228 37.163 46.35 C 37.239 46.412 37.312 46.466 37.376 46.514 C 37.438 46.562 37.495 46.602 37.542 46.635 C 37.636 46.701 37.693 46.736 37.693 46.736 C 37.693 46.736 37.701 46.668 37.706 46.551 C 37.71 46.435 37.699 46.269 37.676 46.072 C 37.663 45.974 37.648 45.868 37.625 45.758 C 37.597 45.648 37.564 45.533 37.524 45.417 C 37.483 45.3 37.438 45.181 37.38 45.064 C 37.319 44.948 37.249 44.832 37.171 44.72 C 37.091 44.609 37.009 44.507 36.919 44.415 C 36.827 44.323 36.733 44.241 36.638 44.168 C 36.448 44.021 36.267 43.908 36.091 43.827 C 35.92 43.745 35.771 43.691 35.665 43.657 C 35.559 43.623 35.495 43.609 35.495 43.609 C 35.495 43.609 35.502 43.668 35.523 43.766 C 35.534 43.816 35.548 43.875 35.566 43.942 C 35.576 43.976 35.586 44.012 35.597 44.049 C 35.607 44.087 35.617 44.127 35.63 44.168 C 35.653 44.25 35.683 44.339 35.719 44.431 C 35.754 44.524 35.799 44.62 35.841 44.72 C 35.885 44.821 35.936 44.924 35.996 45.027 C 36.026 45.079 36.058 45.132 36.092 45.184 C 36.127 45.236 36.158 45.289 36.195 45.342 Z " fill="rgb(186,140,26)"/><path d=" M 39.164 45.069 C 39.111 45.213 39.05 45.347 38.984 45.472 C 38.918 45.596 38.851 45.711 38.771 45.817 C 38.617 46.029 38.456 46.202 38.31 46.338 C 38.237 46.406 38.169 46.465 38.105 46.515 C 38.039 46.565 37.981 46.606 37.932 46.639 C 37.835 46.705 37.776 46.737 37.776 46.737 C 37.776 46.737 37.771 46.669 37.772 46.552 C 37.773 46.434 37.768 46.268 37.784 46.069 C 37.791 45.969 37.803 45.862 37.817 45.748 C 37.828 45.635 37.843 45.515 37.865 45.39 C 37.887 45.266 37.917 45.137 37.951 45.005 C 37.982 44.873 38.02 44.739 38.068 44.603 C 38.115 44.467 38.172 44.335 38.228 44.21 C 38.281 44.084 38.341 43.964 38.402 43.85 C 38.522 43.623 38.66 43.418 38.77 43.249 C 38.885 43.079 38.99 42.942 39.067 42.847 C 39.143 42.753 39.192 42.702 39.192 42.702 C 39.192 42.702 39.215 42.775 39.247 42.905 C 39.262 42.969 39.279 43.048 39.297 43.138 C 39.305 43.184 39.315 43.232 39.322 43.283 C 39.328 43.334 39.334 43.388 39.339 43.444 C 39.349 43.556 39.357 43.678 39.36 43.806 C 39.362 43.935 39.364 44.069 39.348 44.209 C 39.334 44.348 39.314 44.492 39.285 44.636 C 39.271 44.708 39.254 44.781 39.236 44.853 C 39.217 44.925 39.19 44.997 39.164 45.069 Z " fill="rgb(186,140,26)"/><path d=" M 35.642 42.604 C 35.69 42.647 35.74 42.688 35.789 42.727 C 35.837 42.768 35.885 42.807 35.935 42.844 C 36.033 42.919 36.134 42.987 36.235 43.051 C 36.441 43.176 36.632 43.284 36.804 43.371 C 36.977 43.456 37.128 43.521 37.236 43.564 C 37.344 43.607 37.409 43.628 37.409 43.628 C 37.409 43.628 37.374 43.359 37.249 42.984 C 37.178 42.8 37.082 42.59 36.958 42.379 C 36.825 42.17 36.659 41.962 36.461 41.779 C 36.253 41.599 36.033 41.462 35.821 41.359 C 35.602 41.259 35.39 41.194 35.208 41.151 C 35.025 41.108 34.872 41.087 34.758 41.08 C 34.646 41.071 34.581 41.072 34.581 41.072 C 34.581 41.072 34.602 41.127 34.645 41.217 C 34.685 41.31 34.746 41.44 34.833 41.587 C 34.925 41.733 35.023 41.906 35.16 42.079 C 35.193 42.122 35.229 42.166 35.267 42.209 C 35.305 42.252 35.34 42.298 35.38 42.342 C 35.458 42.431 35.545 42.519 35.642 42.604 Z " fill="rgb(186,140,26)"/><path d=" M 38.478 41.674 C 38.469 41.75 38.459 41.823 38.444 41.895 C 38.428 41.968 38.41 42.038 38.391 42.107 C 38.352 42.244 38.306 42.373 38.257 42.493 C 38.161 42.732 38.035 42.938 37.92 43.104 C 37.805 43.27 37.697 43.396 37.619 43.481 C 37.54 43.567 37.49 43.611 37.49 43.611 C 37.49 43.611 37.405 43.353 37.354 42.957 C 37.319 42.761 37.291 42.531 37.285 42.276 C 37.27 42.025 37.272 41.751 37.31 41.463 C 37.337 41.179 37.397 40.906 37.471 40.654 C 37.537 40.406 37.616 40.179 37.694 39.987 C 37.771 39.794 37.847 39.635 37.898 39.527 C 37.951 39.419 37.986 39.358 37.986 39.358 C 37.986 39.358 38.027 39.424 38.087 39.542 C 38.143 39.663 38.218 39.837 38.291 40.049 C 38.37 40.26 38.426 40.518 38.468 40.794 C 38.477 40.863 38.486 40.933 38.493 41.005 C 38.501 41.076 38.501 41.15 38.502 41.224 C 38.503 41.372 38.495 41.523 38.478 41.674 Z " fill="rgb(186,140,26)"/><path d=" M 34.503 40.058 C 34.613 40.122 34.726 40.178 34.841 40.227 C 34.956 40.277 35.072 40.32 35.18 40.361 C 35.401 40.442 35.617 40.501 35.807 40.545 C 35.902 40.566 35.989 40.585 36.065 40.601 C 36.143 40.617 36.211 40.629 36.267 40.638 C 36.38 40.657 36.447 40.663 36.447 40.663 C 36.447 40.663 36.426 40.598 36.38 40.491 C 36.337 40.383 36.255 40.238 36.15 40.071 C 36.097 39.988 36.037 39.9 35.97 39.81 C 35.899 39.723 35.82 39.634 35.734 39.546 C 35.647 39.459 35.556 39.371 35.453 39.291 C 35.348 39.213 35.236 39.138 35.118 39.072 C 35.059 39.039 35 39.009 34.941 38.981 C 34.911 38.967 34.881 38.954 34.852 38.941 C 34.821 38.929 34.79 38.918 34.76 38.907 C 34.638 38.864 34.518 38.831 34.402 38.806 C 34.286 38.78 34.174 38.762 34.068 38.751 C 33.96 38.74 33.856 38.737 33.762 38.737 C 33.573 38.737 33.416 38.753 33.306 38.769 C 33.196 38.784 33.133 38.799 33.133 38.799 C 33.133 38.799 33.164 38.849 33.224 38.929 C 33.254 38.97 33.292 39.017 33.337 39.071 C 33.382 39.124 33.438 39.18 33.493 39.246 C 33.604 39.374 33.751 39.512 33.919 39.652 C 34.001 39.724 34.091 39.794 34.189 39.862 C 34.287 39.93 34.395 39.994 34.503 40.058 Z " fill="rgb(186,140,26)"/><path d=" M 37.066 38.517 C 37.079 38.669 37.081 38.817 37.075 38.958 C 37.069 39.1 37.055 39.234 37.029 39.364 C 36.981 39.622 36.909 39.849 36.836 40.035 C 36.818 40.081 36.8 40.125 36.781 40.167 C 36.762 40.209 36.743 40.248 36.724 40.285 C 36.687 40.358 36.652 40.421 36.622 40.472 C 36.562 40.573 36.522 40.628 36.522 40.628 C 36.522 40.628 36.489 40.569 36.44 40.463 C 36.394 40.355 36.317 40.207 36.246 40.021 C 36.21 39.928 36.174 39.827 36.14 39.717 C 36.101 39.61 36.063 39.495 36.03 39.373 C 35.996 39.252 35.97 39.121 35.943 38.988 C 35.915 38.856 35.892 38.718 35.877 38.574 C 35.87 38.503 35.864 38.431 35.861 38.36 C 35.858 38.289 35.855 38.219 35.853 38.151 C 35.848 38.014 35.851 37.88 35.858 37.75 C 35.864 37.62 35.876 37.495 35.891 37.376 C 35.904 37.259 35.917 37.15 35.933 37.047 C 35.964 36.844 36.002 36.674 36.031 36.555 C 36.061 36.436 36.083 36.369 36.083 36.369 C 36.083 36.369 36.135 36.425 36.217 36.529 C 36.259 36.58 36.307 36.644 36.361 36.718 C 36.414 36.793 36.476 36.876 36.531 36.974 C 36.643 37.169 36.767 37.398 36.865 37.66 C 36.912 37.792 36.954 37.931 36.99 38.073 C 37.025 38.216 37.055 38.362 37.066 38.517 Z " fill="rgb(186,140,26)"/><path d=" M 32.835 37.828 C 32.956 37.865 33.084 37.89 33.204 37.916 C 33.324 37.941 33.444 37.959 33.561 37.973 C 33.679 37.987 33.794 37.996 33.905 38.001 C 34.015 38.007 34.116 38.012 34.213 38.013 C 34.404 38.016 34.568 38.009 34.683 38.001 C 34.799 37.993 34.866 37.983 34.866 37.983 C 34.866 37.983 34.83 37.926 34.76 37.834 C 34.725 37.787 34.681 37.732 34.63 37.67 C 34.577 37.609 34.52 37.54 34.447 37.473 C 34.376 37.404 34.297 37.333 34.21 37.262 C 34.167 37.226 34.122 37.19 34.075 37.155 C 34.052 37.137 34.028 37.12 34.004 37.102 C 33.978 37.085 33.953 37.069 33.927 37.052 C 33.823 36.988 33.711 36.925 33.594 36.87 C 33.536 36.841 33.476 36.815 33.415 36.79 C 33.354 36.765 33.288 36.746 33.223 36.727 C 33.092 36.691 32.962 36.664 32.836 36.648 C 32.773 36.639 32.711 36.633 32.65 36.628 C 32.588 36.625 32.526 36.625 32.466 36.626 C 32.227 36.63 32.01 36.661 31.827 36.7 C 31.644 36.74 31.491 36.795 31.388 36.834 C 31.283 36.874 31.225 36.903 31.225 36.903 C 31.225 36.903 31.266 36.944 31.344 37.007 C 31.424 37.069 31.531 37.162 31.672 37.259 C 31.742 37.308 31.82 37.358 31.906 37.407 C 31.99 37.458 32.078 37.512 32.176 37.562 C 32.273 37.612 32.378 37.659 32.489 37.702 C 32.597 37.75 32.712 37.792 32.835 37.828 Z " fill="rgb(186,140,26)"/><path d=" M 35.001 35.755 C 35.047 35.901 35.086 36.039 35.107 36.181 C 35.13 36.323 35.143 36.46 35.149 36.59 C 35.154 36.72 35.152 36.844 35.146 36.959 C 35.139 37.075 35.122 37.187 35.106 37.286 C 35.072 37.486 35.028 37.648 34.993 37.759 C 34.958 37.871 34.931 37.933 34.931 37.933 C 34.931 37.933 34.885 37.884 34.812 37.792 C 34.776 37.747 34.733 37.691 34.685 37.625 C 34.638 37.559 34.588 37.483 34.53 37.402 C 34.473 37.321 34.414 37.231 34.355 37.133 C 34.326 37.084 34.297 37.033 34.268 36.98 C 34.254 36.953 34.239 36.926 34.225 36.899 C 34.21 36.872 34.194 36.845 34.179 36.818 C 34.119 36.708 34.06 36.59 34.007 36.465 C 33.98 36.403 33.954 36.338 33.93 36.272 C 33.905 36.206 33.878 36.142 33.855 36.074 C 33.808 35.938 33.77 35.802 33.738 35.667 C 33.722 35.6 33.708 35.533 33.696 35.466 C 33.682 35.401 33.669 35.337 33.658 35.273 C 33.613 35.02 33.591 34.779 33.58 34.57 C 33.569 34.362 33.564 34.193 33.568 34.07 C 33.57 33.949 33.576 33.879 33.576 33.879 C 33.576 33.879 33.64 33.921 33.744 34.002 C 33.851 34.081 33.989 34.208 34.144 34.37 C 34.222 34.45 34.303 34.54 34.385 34.638 C 34.465 34.738 34.542 34.849 34.618 34.965 C 34.694 35.082 34.768 35.205 34.834 35.336 C 34.896 35.47 34.953 35.61 35.001 35.755 Z " fill="rgb(186,140,26)"/><path d=" M 30.726 36.018 C 30.978 36.037 31.229 36.027 31.467 35.999 C 31.701 35.974 31.919 35.939 32.109 35.896 C 32.297 35.856 32.458 35.808 32.567 35.777 C 32.677 35.745 32.739 35.722 32.739 35.722 C 32.739 35.722 32.728 35.71 32.706 35.688 C 32.683 35.666 32.651 35.633 32.606 35.597 C 32.516 35.523 32.385 35.423 32.22 35.317 C 31.889 35.107 31.406 34.894 30.865 34.86 C 30.732 34.848 30.597 34.857 30.47 34.869 C 30.342 34.882 30.22 34.903 30.105 34.929 C 30.047 34.943 29.992 34.956 29.937 34.973 C 29.882 34.99 29.829 35.009 29.778 35.027 C 29.676 35.066 29.582 35.106 29.497 35.147 C 29.326 35.228 29.192 35.309 29.1 35.37 C 29.054 35.4 29.018 35.426 28.993 35.445 C 28.969 35.464 28.956 35.474 28.956 35.474 C 28.956 35.474 29.006 35.502 29.094 35.552 C 29.181 35.599 29.309 35.662 29.469 35.722 C 29.55 35.75 29.633 35.788 29.726 35.819 C 29.819 35.851 29.919 35.88 30.026 35.906 C 30.052 35.911 30.079 35.917 30.107 35.924 C 30.134 35.93 30.161 35.937 30.188 35.943 C 30.243 35.956 30.3 35.968 30.358 35.978 C 30.475 35.998 30.598 36.012 30.726 36.018 Z " fill="rgb(186,140,26)"/><path d=" M 32.39 33.515 C 32.543 33.78 32.646 34.049 32.716 34.297 C 32.782 34.549 32.811 34.789 32.823 34.989 C 32.834 35.191 32.829 35.354 32.817 35.473 C 32.805 35.591 32.793 35.658 32.793 35.658 C 32.793 35.658 32.779 35.648 32.754 35.629 C 32.729 35.61 32.695 35.58 32.648 35.545 C 32.556 35.474 32.428 35.368 32.286 35.23 C 31.998 34.956 31.637 34.575 31.341 34.082 C 31.269 33.955 31.198 33.837 31.137 33.712 C 31.076 33.59 31.022 33.466 30.974 33.345 C 30.95 33.285 30.928 33.224 30.906 33.166 C 30.884 33.108 30.863 33.052 30.844 32.996 C 30.805 32.885 30.772 32.779 30.743 32.679 C 30.686 32.48 30.649 32.31 30.625 32.189 C 30.614 32.129 30.605 32.081 30.599 32.049 C 30.594 32.017 30.592 32 30.592 32 C 30.592 32 30.61 32.007 30.643 32.02 C 30.676 32.033 30.722 32.056 30.782 32.085 C 30.899 32.144 31.065 32.234 31.253 32.353 C 31.348 32.411 31.443 32.488 31.544 32.567 C 31.643 32.646 31.745 32.734 31.845 32.83 C 31.87 32.854 31.895 32.878 31.92 32.903 C 31.944 32.929 31.968 32.955 31.993 32.982 C 32.04 33.036 32.087 33.091 32.133 33.149 C 32.225 33.264 32.311 33.386 32.39 33.515 Z " fill="rgb(186,140,26)"/><path d=" M 29.146 32.427 C 29.283 32.493 29.409 32.566 29.526 32.643 C 29.585 32.68 29.641 32.721 29.694 32.764 C 29.748 32.807 29.799 32.85 29.848 32.893 C 30.042 33.067 30.198 33.242 30.318 33.402 C 30.439 33.567 30.524 33.711 30.58 33.815 C 30.636 33.918 30.662 33.98 30.662 33.98 C 30.662 33.98 30.595 33.98 30.479 33.969 C 30.421 33.963 30.351 33.956 30.272 33.944 C 30.192 33.934 30.103 33.925 30.005 33.909 C 29.81 33.88 29.585 33.824 29.344 33.763 C 29.224 33.731 29.099 33.691 28.972 33.643 C 28.941 33.631 28.909 33.619 28.877 33.606 C 28.845 33.594 28.813 33.582 28.781 33.57 C 28.717 33.545 28.652 33.518 28.587 33.488 C 28.457 33.428 28.333 33.362 28.214 33.291 C 28.096 33.221 27.983 33.155 27.876 33.082 C 27.663 32.94 27.474 32.787 27.317 32.654 C 27.16 32.524 27.035 32.406 26.949 32.321 C 26.863 32.235 26.817 32.182 26.817 32.182 C 26.817 32.182 26.891 32.165 27.021 32.144 C 27.086 32.134 27.165 32.124 27.256 32.114 C 27.346 32.105 27.449 32.103 27.561 32.102 C 27.672 32.101 27.792 32.104 27.919 32.112 C 27.982 32.117 28.047 32.12 28.113 32.129 C 28.179 32.139 28.247 32.15 28.315 32.163 C 28.588 32.216 28.873 32.289 29.146 32.427 Z " fill="rgb(186,140,26)"/><path d=" M 19.855 63 C 19.914 63 19.974 62.98 20.022 62.938 C 21.622 61.553 26.851 60.581 26.904 60.572 C 32.561 59.168 35.24 55.602 36.495 52.857 C 38.524 48.416 38.159 43.285 36.75 40.512 C 34.282 35.657 29.494 32.87 29.446 32.843 C 29.323 32.773 29.167 32.815 29.097 32.937 C 29.027 33.059 29.069 33.216 29.192 33.285 C 29.238 33.312 33.898 36.028 36.295 40.744 C 37.649 43.407 37.993 48.351 36.03 52.645 C 34.823 55.288 32.24 58.722 26.796 60.073 C 26.591 60.11 21.392 61.077 19.688 62.552 C 19.581 62.644 19.57 62.805 19.662 62.912 C 19.712 62.97 19.784 63 19.855 63 Z " fill="rgb(186,140,26)"/><path d=" M 29.24 44.957 L 27.529 49.153 L 31.221 49.153 L 29.453 44.82 C 29.388 44.871 29.316 44.915 29.24 44.957 Z " fill="rgb(11,68,168)"/><path d=" M 15.868 44.82 L 14.1 49.153 L 17.792 49.153 L 16.08 44.957 C 16.004 44.915 15.932 44.871 15.868 44.82 Z " fill="rgb(11,68,168)"/><path d=" M 30.588 50.901 L 30.588 51.312 L 28.161 51.312 L 28.161 50.901 C 27.185 50.327 27.001 49.153 27.001 49.153 L 27.376 49.153 L 29.051 45.047 C 28.141 45.419 26.618 45.285 24.902 44.682 C 23.308 44.122 23.279 45.998 23.279 45.998 L 22.66 45.998 L 22.042 45.998 C 22.042 45.998 22.013 44.122 20.418 44.682 C 18.702 45.285 17.179 45.419 16.27 45.047 L 17.945 49.153 L 18.32 49.153 C 18.32 49.153 18.135 50.327 17.16 50.901 L 17.16 51.284 L 14.732 51.284 L 14.732 50.901 C 13.757 50.327 13.573 49.153 13.573 49.153 L 13.948 49.153 L 15.756 44.719 C 15.744 44.706 15.728 44.695 15.716 44.682 C 15.717 44.682 15.717 44.682 15.718 44.682 C 15.654 44.621 15.613 44.537 15.613 44.441 C 15.613 44.257 15.762 44.108 15.946 44.108 C 16.13 44.108 16.279 44.257 16.279 44.441 C 16.279 44.555 16.219 44.65 16.132 44.71 L 16.132 44.711 C 17.57 44.69 19.225 43.365 20.807 43.365 C 21.629 43.365 22.112 43.715 22.377 44.023 L 22.377 43.583 L 22.943 43.583 L 22.943 44.023 C 23.208 43.715 23.69 43.365 24.513 43.365 C 26.096 43.365 27.75 44.69 29.188 44.711 L 29.188 44.71 C 29.102 44.65 29.041 44.555 29.041 44.441 C 29.041 44.257 29.191 44.108 29.374 44.108 C 29.559 44.108 29.708 44.257 29.708 44.441 C 29.708 44.536 29.667 44.621 29.602 44.682 C 29.603 44.682 29.604 44.682 29.605 44.682 C 29.593 44.695 29.577 44.706 29.564 44.719 L 31.373 49.153 L 31.748 49.153 C 31.748 49.153 31.564 50.327 30.588 50.901 Z  M 24.544 51.991 C 24.288 52.197 23.035 53.294 22.945 55.114 C 23.024 55.134 23.084 55.205 23.084 55.291 C 23.084 55.392 23.002 55.473 22.901 55.473 C 22.827 55.473 22.764 55.429 22.735 55.365 C 22.725 55.343 22.719 55.318 22.719 55.291 L 22.719 51.142 C 22.89 51.115 23.023 50.968 23.023 50.788 C 23.023 50.59 22.862 50.429 22.663 50.429 C 22.465 50.429 22.305 50.59 22.305 50.788 C 22.305 50.963 22.43 51.109 22.596 51.141 L 22.596 55.291 C 22.596 55.318 22.59 55.343 22.58 55.365 C 22.552 55.429 22.488 55.473 22.414 55.473 C 22.313 55.473 22.231 55.392 22.231 55.291 C 22.231 55.205 22.291 55.134 22.37 55.114 C 22.28 53.296 21.029 52.199 20.772 51.992 C 20.747 51.972 20.744 51.936 20.765 51.911 C 21.568 50.963 21.602 49.163 21.602 49.163 C 21.517 49.163 21.448 49.094 21.448 49.009 L 21.448 48.784 C 21.448 48.699 21.517 48.63 21.602 48.63 L 21.614 48.63 L 21.614 48.382 L 21.501 48.382 C 21.387 48.382 21.294 48.289 21.294 48.174 C 21.294 48.06 21.387 47.967 21.501 47.967 L 21.626 47.967 L 21.626 46.476 C 21.758 46.178 22.486 46.168 22.585 46.168 L 22.585 46.167 L 22.737 46.167 L 22.737 46.168 C 22.854 46.169 23.559 46.183 23.689 46.476 L 23.689 47.967 L 23.813 47.967 C 23.928 47.967 24.021 48.06 24.021 48.174 C 24.021 48.289 23.928 48.382 23.813 48.382 L 23.701 48.382 L 23.701 48.63 L 23.713 48.63 C 23.798 48.63 23.867 48.699 23.867 48.784 L 23.867 49.009 C 23.867 49.094 23.798 49.163 23.713 49.163 C 23.741 49.157 23.766 50.96 24.551 51.912 C 24.571 51.936 24.569 51.971 24.544 51.991 Z  M 22.424 40.743 C 22.331 40.683 22.266 40.585 22.266 40.467 C 22.266 40.283 22.416 40.134 22.599 40.134 C 22.784 40.134 22.933 40.283 22.933 40.467 C 22.933 40.585 22.868 40.683 22.776 40.743 C 23.484 40.865 23.544 41.716 23.544 41.716 L 22.943 43.424 L 22.377 43.424 L 21.656 41.716 C 21.656 41.716 21.715 40.866 22.424 40.743 Z  M 22.66 37.377 L 13.119 39.392 L 13.119 50.178 C 13.119 54.057 17.722 56.637 20.534 57.852 L 22.233 55.842 L 22.675 55.842 L 23.117 55.842 L 24.809 57.843 C 27.622 56.624 32.202 54.047 32.202 50.178 L 32.202 39.392 L 22.66 37.377 Z " fill="rgb(11,68,168)"/></g></g></svg>