<?xml version="1.0" encoding="UTF-8" standalone="no"?><!-- Generator: Gravit.io --><svg xmlns="http://www.w3.org/2000/svg" xmlns:xlink="http://www.w3.org/1999/xlink" style="isolation:isolate" viewBox="0 0 375 667" width="375pt" height="667pt"><defs><clipPath id="_clipPath_lPxiTAvNQKwkfSGjgQpXMvQ4PLlH8yzX"><rect width="375" height="667"/></clipPath></defs><g clip-path="url(#_clipPath_lPxiTAvNQKwkfSGjgQpXMvQ4PLlH8yzX)"><rect x="0" y="0" width="362" height="362" transform="matrix(1,0,0,1,0,0)" fill="none"/><path d=" M 0 0 L 362 0 L 362 362 L 0 362 L 0 0 Z " fill="none"/><g><path d=" M 296.055 321.089 L 298.924 321.089 L 297.458 317.183 L 296.055 321.089 Z  M 298.844 325.019 L 298.844 324.738 C 299.239 324.663 299.518 324.57 299.681 324.46 C 299.843 324.35 299.925 324.197 299.925 323.997 C 299.925 323.838 299.863 323.591 299.739 323.258 L 299.183 321.78 L 295.747 321.78 L 295.272 323.057 C 295.15 323.384 295.089 323.646 295.089 323.844 C 295.089 324.269 295.412 324.566 296.055 324.738 L 296.055 325.019 L 292.945 325.019 L 292.945 324.738 C 293.321 324.673 293.647 324.478 293.926 324.151 C 294.204 323.824 294.48 323.291 294.755 322.552 L 297.523 315.142 L 298.837 315.142 L 301.765 322.849 C 302.033 323.535 302.296 324.012 302.554 324.283 C 302.812 324.554 303.148 324.705 303.561 324.738 L 303.561 325.019 L 298.844 325.019 Z " fill="rgb(11,68,168)"/><path d=" M 84.506 315.391 L 84.506 315.672 C 84.115 315.741 83.831 315.866 83.654 316.046 C 83.478 316.225 83.388 316.481 83.388 316.813 C 83.386 316.938 83.395 317.076 83.417 317.231 L 84.288 323.243 C 84.352 323.682 84.501 324.02 84.735 324.255 C 84.967 324.491 85.309 324.652 85.759 324.737 L 85.759 325.019 L 81.002 325.019 L 81.002 324.737 C 81.398 324.635 81.682 324.477 81.854 324.263 C 82.025 324.049 82.111 323.741 82.111 323.339 C 82.111 323.141 82.092 322.9 82.055 322.616 L 81.267 317.119 L 78.098 325.019 L 77.755 325.019 L 74.628 317.119 L 73.793 322.776 C 73.761 323.001 73.745 323.206 73.745 323.388 C 73.745 324.228 74.139 324.678 74.926 324.737 L 74.926 325.019 L 71.439 325.019 L 71.439 324.737 C 71.948 324.716 72.331 324.546 72.588 324.227 C 72.845 323.908 73.032 323.372 73.149 322.616 L 74.1 316.33 C 73.692 315.908 73.226 315.688 72.7 315.672 L 72.7 315.391 L 76.184 315.391 L 78.695 321.739 L 81.242 315.391 L 84.506 315.391 Z " fill="rgb(11,68,168)"/><path d=" M 94.905 320.277 C 94.905 318.782 94.655 317.644 94.153 316.862 C 93.652 316.08 92.92 315.688 91.955 315.688 C 91.002 315.688 90.276 316.08 89.778 316.862 C 89.28 317.644 89.03 318.788 89.03 320.293 C 89.03 321.692 89.282 322.779 89.786 323.556 C 90.289 324.333 91.012 324.722 91.955 324.722 C 92.882 324.722 93.605 324.336 94.125 323.564 C 94.645 322.792 94.905 321.697 94.905 320.277 Z  M 97.211 320.213 C 97.211 321.686 96.719 322.897 95.733 323.845 C 94.747 324.794 93.487 325.267 91.955 325.267 C 90.428 325.267 89.175 324.794 88.194 323.845 C 87.214 322.897 86.724 321.686 86.724 320.213 C 86.724 318.74 87.215 317.526 88.198 316.572 C 89.182 315.619 90.434 315.142 91.955 315.142 C 93.487 315.142 94.747 315.619 95.733 316.572 C 96.719 317.526 97.211 318.74 97.211 320.213 Z " fill="rgb(11,68,168)"/><path d=" M 105.4 315.673 L 105.4 315.391 L 108.647 315.391 L 108.647 315.673 C 107.715 315.726 107.249 316.251 107.249 317.248 L 107.249 325.131 L 106.934 325.131 L 100.008 317.327 L 100.008 323.212 C 100.008 323.726 100.102 324.086 100.289 324.292 C 100.477 324.498 100.854 324.647 101.423 324.738 L 101.423 325.019 L 98.103 325.019 L 98.103 324.738 C 98.554 324.668 98.876 324.514 99.071 324.275 C 99.268 324.038 99.365 323.666 99.365 323.163 L 99.365 316.629 C 98.99 316.243 98.732 315.996 98.59 315.89 C 98.447 315.783 98.28 315.71 98.087 315.673 L 98.087 315.391 L 100.98 315.391 L 106.606 321.845 L 106.606 317.513 C 106.606 316.875 106.522 316.435 106.354 316.191 C 106.187 315.947 105.869 315.774 105.4 315.673 Z " fill="rgb(11,68,168)"/><path d=" M 112.159 321.089 L 115.027 321.089 L 113.561 317.183 L 112.159 321.089 Z  M 114.948 325.019 L 114.948 324.738 C 115.342 324.663 115.622 324.57 115.785 324.46 C 115.947 324.35 116.029 324.197 116.029 323.997 C 116.029 323.838 115.967 323.591 115.843 323.258 L 115.286 321.78 L 111.85 321.78 L 111.375 323.057 C 111.253 323.384 111.193 323.646 111.193 323.844 C 111.193 324.269 111.515 324.566 112.159 324.738 L 112.159 325.019 L 109.049 325.019 L 109.049 324.738 C 109.424 324.673 109.75 324.478 110.029 324.151 C 110.308 323.824 110.584 323.291 110.858 322.552 L 113.627 315.142 L 114.941 315.142 L 117.869 322.849 C 118.137 323.535 118.4 324.012 118.658 324.283 C 118.915 324.554 119.251 324.705 119.665 324.738 L 119.665 325.019 L 114.948 325.019 Z " fill="rgb(11,68,168)"/><path d=" M 128.931 318.75 L 128.665 318.75 C 128.446 317.781 128.05 317.028 127.476 316.492 C 126.903 315.957 126.206 315.688 125.387 315.688 C 124.492 315.688 123.78 316.066 123.253 316.821 C 122.726 317.577 122.461 318.592 122.461 319.867 C 122.461 321.287 122.769 322.385 123.386 323.162 C 124.002 323.94 124.851 324.327 125.933 324.327 C 126.517 324.327 127.053 324.207 127.54 323.966 C 128.028 323.725 128.524 323.336 129.027 322.801 L 129.027 323.307 C 128.074 324.614 126.774 325.268 125.13 325.268 C 123.656 325.268 122.459 324.811 121.537 323.897 C 120.616 322.984 120.155 321.798 120.155 320.341 C 120.155 318.863 120.652 317.626 121.646 316.633 C 122.64 315.639 123.876 315.142 125.355 315.142 C 125.96 315.142 126.643 315.276 127.404 315.544 C 127.73 315.662 127.953 315.72 128.071 315.72 C 128.306 315.72 128.505 315.555 128.665 315.222 L 128.931 315.222 L 128.931 318.75 Z " fill="rgb(11,68,168)"/><path d=" M 138.414 320.277 C 138.414 318.782 138.163 317.644 137.662 316.862 C 137.161 316.08 136.429 315.688 135.465 315.688 C 134.511 315.688 133.785 316.08 133.287 316.862 C 132.789 317.644 132.539 318.788 132.539 320.293 C 132.539 321.692 132.791 322.779 133.295 323.556 C 133.799 324.333 134.521 324.722 135.465 324.722 C 136.391 324.722 137.115 324.336 137.634 323.564 C 138.154 322.792 138.414 321.697 138.414 320.277 Z  M 140.72 320.213 C 140.72 321.686 140.227 322.897 139.241 323.845 C 138.255 324.794 136.996 325.267 135.465 325.267 C 133.937 325.267 132.684 324.794 131.703 323.845 C 130.723 322.897 130.233 321.686 130.233 320.213 C 130.233 318.74 130.724 317.526 131.708 316.572 C 132.69 315.619 133.942 315.142 135.465 315.142 C 136.996 315.142 138.255 315.619 139.241 316.572 C 140.227 317.526 140.72 318.74 140.72 320.213 Z " fill="rgb(11,68,168)"/><path d=" M 141.612 328 L 141.612 327.719 C 142.657 327.349 143.179 326.728 143.179 325.854 C 143.179 325.71 143.15 325.571 143.091 325.437 C 143.032 325.302 142.962 325.236 142.882 325.236 C 142.866 325.236 142.831 325.241 142.778 325.252 C 142.703 325.263 142.644 325.268 142.601 325.268 C 142.339 325.268 142.114 325.157 141.926 324.934 C 141.738 324.712 141.645 324.448 141.645 324.143 C 141.645 323.8 141.758 323.52 141.986 323.303 C 142.214 323.086 142.507 322.977 142.866 322.977 C 143.316 322.977 143.699 323.18 144.015 323.584 C 144.331 323.989 144.489 324.477 144.489 325.051 C 144.489 325.758 144.195 326.413 143.606 327.015 C 143.016 327.619 142.352 327.946 141.612 328 Z " fill="rgb(11,68,168)"/><path d=" M 161.591 315.391 L 161.591 315.672 C 161.2 315.741 160.915 315.866 160.738 316.046 C 160.562 316.225 160.474 316.481 160.474 316.813 C 160.471 316.938 160.481 317.076 160.502 317.231 L 161.373 323.243 C 161.437 323.682 161.586 324.02 161.819 324.255 C 162.053 324.491 162.394 324.652 162.845 324.737 L 162.845 325.019 L 158.087 325.019 L 158.087 324.737 C 158.483 324.635 158.767 324.477 158.939 324.263 C 159.11 324.049 159.196 323.741 159.196 323.339 C 159.196 323.141 159.177 322.9 159.139 322.616 L 158.351 317.119 L 155.184 325.019 L 154.84 325.019 L 151.714 317.119 L 150.879 322.776 C 150.846 323.001 150.83 323.206 150.83 323.388 C 150.83 324.228 151.224 324.678 152.012 324.737 L 152.012 325.019 L 148.523 325.019 L 148.523 324.737 C 149.033 324.716 149.416 324.546 149.673 324.227 C 149.93 323.908 150.117 323.372 150.234 322.616 L 151.185 316.33 C 150.777 315.908 150.311 315.688 149.785 315.672 L 149.785 315.391 L 153.269 315.391 L 155.781 321.739 L 158.327 315.391 L 161.591 315.391 Z " fill="rgb(11,68,168)"/><path d=" M 168.406 315.391 L 168.406 315.672 C 167.932 315.78 167.612 315.923 167.448 316.102 C 167.283 316.282 167.2 316.653 167.2 317.216 L 167.2 323.388 C 167.2 323.821 167.278 324.124 167.432 324.295 C 167.587 324.467 167.911 324.614 168.406 324.737 L 168.406 325.019 L 163.857 325.019 L 163.857 324.737 C 164.2 324.652 164.456 324.558 164.625 324.456 C 164.793 324.354 164.911 324.225 164.978 324.07 C 165.045 323.915 165.079 323.618 165.079 323.178 L 165.079 317.022 C 165.079 316.588 165 316.284 164.842 316.11 C 164.684 315.936 164.355 315.79 163.857 315.672 L 163.857 315.391 L 168.406 315.391 Z " fill="rgb(11,68,168)"/><path d=" M 173.589 315.937 L 172.93 315.937 L 172.93 319.883 C 173.096 319.894 173.252 319.899 173.396 319.899 C 174.162 319.899 174.721 319.735 175.071 319.405 C 175.422 319.076 175.598 318.555 175.598 317.842 C 175.598 316.572 174.928 315.937 173.589 315.937 Z  M 169.587 325.019 L 169.587 324.738 C 170.401 324.673 170.808 324.263 170.808 323.508 L 170.808 316.99 C 170.808 316.546 170.724 316.237 170.556 316.066 C 170.386 315.895 170.064 315.764 169.587 315.672 L 169.587 315.391 L 174.167 315.391 C 175.368 315.391 176.29 315.603 176.936 316.027 C 177.582 316.449 177.905 317.044 177.905 317.81 C 177.905 318.362 177.736 318.836 177.4 319.232 C 177.065 319.629 176.584 319.919 175.957 320.101 L 175.957 320.132 C 176.182 320.186 176.426 320.373 176.688 320.691 C 176.95 321.011 177.332 321.636 177.831 322.568 C 178.319 323.473 178.675 324.047 178.897 324.287 C 179.119 324.529 179.423 324.678 179.809 324.738 L 179.809 325.019 L 177.033 325.019 C 176.669 324.588 176.202 323.809 175.632 322.679 C 175.24 321.903 174.948 321.386 174.758 321.129 C 174.568 320.871 174.37 320.691 174.164 320.587 C 173.957 320.482 173.546 320.43 172.93 320.43 L 172.93 323.387 C 172.93 323.81 173.024 324.125 173.211 324.331 C 173.399 324.537 173.717 324.673 174.167 324.738 L 174.167 325.019 L 169.587 325.019 Z " fill="rgb(11,68,168)"/><path d=" M 183.233 321.089 L 186.101 321.089 L 184.636 317.183 L 183.233 321.089 Z  M 186.022 325.019 L 186.022 324.738 C 186.417 324.663 186.695 324.57 186.858 324.46 C 187.021 324.35 187.102 324.197 187.102 323.997 C 187.102 323.838 187.041 323.591 186.917 323.258 L 186.361 321.78 L 182.925 321.78 L 182.449 323.057 C 182.327 323.384 182.266 323.646 182.266 323.844 C 182.266 324.269 182.589 324.566 183.233 324.738 L 183.233 325.019 L 180.122 325.019 L 180.122 324.738 C 180.498 324.673 180.824 324.478 181.104 324.151 C 181.382 323.824 181.658 323.291 181.932 322.552 L 184.7 315.142 L 186.015 315.142 L 188.942 322.849 C 189.211 323.535 189.474 324.012 189.731 324.283 C 189.989 324.554 190.325 324.705 190.739 324.738 L 190.739 325.019 L 186.022 325.019 Z " fill="rgb(11,68,168)"/><path d=" M 198.43 315.673 L 198.43 315.391 L 201.676 315.391 L 201.676 315.673 C 200.745 315.726 200.278 316.251 200.278 317.248 L 200.278 325.131 L 199.963 325.131 L 193.037 317.327 L 193.037 323.212 C 193.037 323.726 193.131 324.086 193.318 324.292 C 193.506 324.498 193.884 324.647 194.451 324.738 L 194.451 325.019 L 191.132 325.019 L 191.132 324.738 C 191.582 324.668 191.905 324.514 192.101 324.275 C 192.296 324.038 192.395 323.666 192.395 323.163 L 192.395 316.629 C 192.019 316.243 191.76 315.996 191.619 315.89 C 191.476 315.783 191.309 315.71 191.116 315.673 L 191.116 315.391 L 194.009 315.391 L 199.635 321.845 L 199.635 317.513 C 199.635 316.875 199.551 316.435 199.384 316.191 C 199.216 315.947 198.898 315.774 198.43 315.673 Z " fill="rgb(11,68,168)"/><path d=" M 206.996 315.937 L 205.742 315.937 L 205.742 323.339 C 205.742 323.751 205.863 324.044 206.105 324.215 C 206.345 324.386 206.747 324.472 207.309 324.472 C 208.424 324.472 209.287 324.102 209.897 323.363 C 210.509 322.624 210.814 321.579 210.814 320.229 C 210.814 318.905 210.478 317.86 209.809 317.09 C 209.139 316.322 208.202 315.937 206.996 315.937 Z  M 202.399 325.019 L 202.399 324.738 C 202.909 324.598 203.239 324.444 203.392 324.275 C 203.545 324.106 203.621 323.74 203.621 323.178 L 203.621 317.038 C 203.621 316.605 203.545 316.302 203.392 316.13 C 203.239 315.959 202.909 315.806 202.399 315.672 L 202.399 315.391 L 207.326 315.391 C 209.114 315.391 210.528 315.844 211.565 316.749 C 212.601 317.654 213.12 318.846 213.12 320.325 C 213.12 321.75 212.657 322.889 211.729 323.74 C 210.803 324.592 209.549 325.019 207.968 325.019 L 202.399 325.019 Z " fill="rgb(11,68,168)"/><path d=" M 215.877 321.089 L 218.745 321.089 L 217.279 317.183 L 215.877 321.089 Z  M 218.666 325.019 L 218.666 324.738 C 219.06 324.663 219.339 324.57 219.502 324.46 C 219.665 324.35 219.746 324.197 219.746 323.997 C 219.746 323.838 219.685 323.591 219.561 323.258 L 219.004 321.78 L 215.568 321.78 L 215.093 323.057 C 214.971 323.384 214.91 323.646 214.91 323.844 C 214.91 324.269 215.233 324.566 215.877 324.738 L 215.877 325.019 L 212.766 325.019 L 212.766 324.738 C 213.142 324.673 213.469 324.478 213.747 324.151 C 214.025 323.824 214.302 323.291 214.576 322.552 L 217.345 315.142 L 218.659 315.142 L 221.586 322.849 C 221.855 323.535 222.118 324.012 222.375 324.283 C 222.633 324.554 222.969 324.705 223.383 324.738 L 223.383 325.019 L 218.666 325.019 Z " fill="rgb(11,68,168)"/><path d=" M 231.411 316.821 C 231.411 317.104 231.505 317.394 231.693 317.688 C 231.882 317.983 232.217 318.356 232.702 318.81 C 232.989 318.725 233.222 318.576 233.401 318.365 C 233.58 318.153 233.669 317.919 233.669 317.663 C 233.669 317.17 233.539 316.743 233.279 316.379 C 233.019 316.015 232.715 315.833 232.367 315.833 C 232.078 315.833 231.846 315.923 231.672 316.102 C 231.498 316.281 231.411 316.521 231.411 316.821 Z  M 230.294 321.644 C 230.294 322.356 230.529 322.974 230.998 323.496 C 231.467 324.018 232.024 324.279 232.667 324.279 C 233.219 324.279 233.76 324.07 234.292 323.65 C 232.821 321.856 231.788 320.696 231.193 320.166 C 230.856 320.401 230.621 320.629 230.491 320.849 C 230.359 321.069 230.294 321.334 230.294 321.644 Z  M 229.586 317.449 C 229.586 316.779 229.872 316.227 230.443 315.793 C 231.013 315.359 231.77 315.142 232.712 315.142 C 233.57 315.142 234.24 315.309 234.722 315.644 C 235.204 315.978 235.445 316.443 235.445 317.037 C 235.445 317.572 235.24 318.043 234.829 318.453 C 234.417 318.863 233.86 319.14 233.16 319.284 C 234.247 320.41 235.062 321.311 235.609 321.986 C 236.025 321.237 236.233 320.651 236.233 320.228 C 236.233 319.757 236.024 319.444 235.606 319.289 L 235.606 319.008 L 238.444 319.008 L 238.444 319.289 C 238.127 319.374 237.855 319.537 237.627 319.775 C 237.399 320.013 237.068 320.546 236.634 321.371 C 236.393 321.842 236.194 322.215 236.039 322.488 C 236.577 323.102 237.019 323.529 237.367 323.768 C 237.714 324.008 238.054 324.126 238.384 324.126 C 238.678 324.126 238.948 324.011 239.194 323.781 L 239.407 323.969 C 238.877 324.835 238.081 325.267 237.02 325.267 C 236.576 325.267 236.179 325.182 235.831 325.011 C 235.482 324.839 235.097 324.539 234.675 324.11 C 233.629 324.882 232.542 325.267 231.411 325.267 C 230.474 325.267 229.71 325.033 229.121 324.564 C 228.53 324.096 228.236 323.489 228.236 322.744 C 228.236 321.496 229.081 320.488 230.771 319.722 C 230.346 319.251 230.041 318.841 229.86 318.493 C 229.678 318.145 229.586 317.797 229.586 317.449 Z " fill="rgb(11,68,168)"/><path d=" M 251.502 315.391 L 251.502 315.672 C 251.11 315.753 250.793 315.915 250.551 316.158 C 250.309 316.402 250.071 316.832 249.834 317.449 L 246.868 325.268 L 246.552 325.268 L 243.514 317.545 C 243.236 316.843 242.986 316.372 242.767 316.131 C 242.546 315.89 242.231 315.736 241.818 315.672 L 241.818 315.391 L 246.198 315.391 L 246.198 315.672 C 245.662 315.763 245.393 315.995 245.393 316.37 C 245.393 316.541 245.449 316.768 245.562 317.052 L 247.479 321.942 L 249.192 317.32 C 249.294 317.037 249.345 316.795 249.345 316.597 C 249.345 316.088 249 315.78 248.312 315.672 L 248.312 315.391 L 251.502 315.391 Z " fill="rgb(11,68,168)"/><path d=" M 258.622 318.71 L 258.935 318.71 L 258.935 321.692 L 258.622 321.692 C 258.51 320.872 258.065 320.462 257.288 320.462 L 255.592 320.462 L 255.592 323.291 C 255.592 323.724 255.691 324.03 255.889 324.207 C 256.086 324.384 256.427 324.472 256.907 324.472 L 257.469 324.472 C 258.409 324.472 259.084 323.874 259.49 322.68 L 259.771 322.68 L 259.594 325.019 L 252.266 325.019 L 252.266 324.738 C 252.75 324.636 253.072 324.489 253.231 324.299 C 253.391 324.109 253.47 323.741 253.47 323.195 L 253.47 317.006 C 253.47 316.556 253.388 316.244 253.224 316.07 C 253.058 315.896 252.738 315.764 252.266 315.673 L 252.266 315.391 L 259.482 315.391 L 259.482 317.528 L 259.2 317.528 C 259.04 316.902 258.84 316.48 258.602 316.263 C 258.364 316.046 257.982 315.937 257.456 315.937 L 255.592 315.937 L 255.592 319.916 L 257.288 319.916 C 257.674 319.916 257.968 319.824 258.172 319.641 C 258.375 319.457 258.526 319.147 258.622 318.71 Z " fill="rgb(11,68,168)"/><path d=" M 265.22 315.937 L 263.967 315.937 L 263.967 323.339 C 263.967 323.751 264.087 324.044 264.329 324.215 C 264.569 324.386 264.971 324.472 265.534 324.472 C 266.647 324.472 267.512 324.102 268.122 323.363 C 268.732 322.624 269.038 321.579 269.038 320.229 C 269.038 318.905 268.703 317.86 268.033 317.09 C 267.363 316.322 266.425 315.937 265.22 315.937 Z  M 260.624 325.019 L 260.624 324.738 C 261.133 324.598 261.464 324.444 261.616 324.275 C 261.769 324.106 261.845 323.74 261.845 323.178 L 261.845 317.038 C 261.845 316.605 261.769 316.302 261.616 316.13 C 261.464 315.959 261.133 315.806 260.624 315.672 L 260.624 315.391 L 265.55 315.391 C 267.339 315.391 268.752 315.844 269.789 316.749 C 270.825 317.654 271.344 318.846 271.344 320.325 C 271.344 321.75 270.88 322.889 269.954 323.74 C 269.026 324.592 267.773 325.019 266.192 325.019 L 260.624 325.019 Z " fill="rgb(11,68,168)"/><path d=" M 274.1 321.089 L 276.968 321.089 L 275.502 317.183 L 274.1 321.089 Z  M 276.889 325.019 L 276.889 324.738 C 277.284 324.663 277.563 324.57 277.726 324.46 C 277.888 324.35 277.97 324.197 277.97 323.997 C 277.97 323.838 277.908 323.591 277.784 323.258 L 277.228 321.78 L 273.792 321.78 L 273.317 323.057 C 273.194 323.384 273.133 323.646 273.133 323.844 C 273.133 324.269 273.456 324.566 274.1 324.738 L 274.1 325.019 L 270.99 325.019 L 270.99 324.738 C 271.365 324.673 271.692 324.478 271.97 324.151 C 272.249 323.824 272.525 323.291 272.799 322.552 L 275.568 315.142 L 276.882 315.142 L 279.81 322.849 C 280.078 323.535 280.341 324.012 280.599 324.283 C 280.856 324.554 281.192 324.705 281.606 324.738 L 281.606 325.019 L 276.889 325.019 Z " fill="rgb(11,68,168)"/><path d=" M 289.297 315.673 L 289.297 315.391 L 292.544 315.391 L 292.544 315.673 C 291.611 315.726 291.145 316.251 291.145 317.248 L 291.145 325.131 L 290.83 325.131 L 283.904 317.327 L 283.904 323.212 C 283.904 323.726 283.998 324.086 284.185 324.292 C 284.373 324.498 284.751 324.647 285.319 324.738 L 285.319 325.019 L 282 325.019 L 282 324.738 C 282.449 324.668 282.772 324.514 282.968 324.275 C 283.163 324.038 283.262 323.666 283.262 323.163 L 283.262 316.629 C 282.887 316.243 282.628 315.996 282.486 315.89 C 282.344 315.783 282.176 315.71 281.984 315.673 L 281.984 315.391 L 284.876 315.391 L 290.503 321.845 L 290.503 317.513 C 290.503 316.875 290.418 316.435 290.251 316.191 C 290.083 315.947 289.765 315.774 289.297 315.673 Z " fill="rgb(11,68,168)"/></g><g><path d=" M 94.78 333.692 L 96.413 333.692 L 95.592 331.285 L 94.78 333.692 Z  M 96.617 336.34 L 96.617 336.176 C 96.948 336.176 97.114 336.062 97.114 335.835 C 97.114 335.771 97.099 335.697 97.07 335.618 L 96.532 334.04 L 94.673 334.04 L 94.278 335.18 C 94.18 335.468 94.13 335.677 94.13 335.807 C 94.13 336.047 94.283 336.169 94.587 336.176 L 94.587 336.34 L 93.092 336.34 L 93.092 336.176 C 93.306 336.146 93.472 336.077 93.591 335.967 C 93.71 335.856 93.83 335.629 93.952 335.283 L 95.553 330.597 L 96.148 330.597 L 97.829 335.492 C 97.928 335.779 98.031 335.965 98.138 336.049 C 98.245 336.133 98.417 336.176 98.655 336.176 L 98.655 336.34 L 96.617 336.34 Z " fill="rgb(43,43,43)"/><path d=" M 105.757 330.878 L 104.656 330.878 L 104.656 335.072 C 104.656 335.476 104.706 335.751 104.805 335.899 C 104.903 336.048 105.101 336.123 105.397 336.123 L 105.994 336.123 C 106.705 336.123 107.264 335.898 107.672 335.446 C 108.08 334.997 108.284 334.382 108.284 333.604 C 108.284 332.778 108.061 332.117 107.615 331.621 C 107.17 331.126 106.55 330.878 105.757 330.878 Z  M 103.235 336.34 L 103.235 336.176 C 103.483 336.176 103.655 336.109 103.749 335.974 C 103.844 335.841 103.892 335.607 103.892 335.274 L 103.892 331.732 C 103.892 331.392 103.844 331.155 103.749 331.024 C 103.655 330.892 103.483 330.825 103.235 330.825 L 103.235 330.66 L 105.913 330.66 C 106.902 330.66 107.693 330.936 108.287 331.488 C 108.881 332.04 109.177 332.743 109.177 333.595 C 109.177 334.431 108.897 335.097 108.334 335.595 C 107.772 336.092 106.989 336.34 105.987 336.34 L 103.235 336.34 Z " fill="rgb(43,43,43)"/><path d=" M 118.812 330.66 L 118.812 330.834 C 118.387 330.834 118.036 331.203 117.759 331.939 L 116.051 336.417 L 115.888 336.417 L 114.094 331.808 C 113.927 331.382 113.781 331.113 113.66 331.001 C 113.538 330.891 113.363 330.831 113.136 330.825 L 113.136 330.66 L 115.239 330.66 L 115.239 330.825 C 114.901 330.825 114.732 330.952 114.732 331.207 C 114.732 331.291 114.753 331.387 114.796 331.493 L 116.213 335.159 L 117.558 331.619 C 117.614 331.468 117.642 331.337 117.642 331.227 C 117.642 330.959 117.469 330.825 117.124 330.825 L 117.124 330.66 L 118.812 330.66 Z " fill="rgb(43,43,43)"/><path d=" M 123.921 333.483 C 123.921 334.313 124.121 334.983 124.524 335.495 C 124.925 336.007 125.451 336.262 126.103 336.262 C 126.761 336.262 127.295 336.001 127.704 335.479 C 128.114 334.955 128.319 334.303 128.319 333.522 C 128.319 332.683 128.118 332.008 127.716 331.501 C 127.315 330.992 126.795 330.737 126.157 330.737 C 125.479 330.737 124.937 330.988 124.531 331.488 C 124.125 331.989 123.921 332.654 123.921 333.483 Z  M 123.033 333.474 C 123.033 332.631 123.329 331.928 123.921 331.365 C 124.513 330.802 125.252 330.519 126.137 330.519 C 126.996 330.519 127.722 330.805 128.316 331.377 C 128.91 331.948 129.207 332.648 129.207 333.474 C 129.207 334.316 128.908 335.028 128.309 335.61 C 127.71 336.191 126.978 336.481 126.112 336.481 C 125.251 336.481 124.521 336.191 123.926 335.61 C 123.331 335.028 123.033 334.316 123.033 333.474 Z " fill="rgb(43,43,43)"/><path d=" M 140.174 333.88 L 140.174 334.045 C 139.917 334.045 139.734 334.102 139.624 334.217 C 139.514 334.332 139.459 334.53 139.459 334.811 L 139.459 336.339 C 139.324 336.375 139.071 336.408 138.7 336.437 C 138.331 336.466 138.044 336.481 137.84 336.481 C 136.771 336.481 135.937 336.222 135.34 335.706 C 134.743 335.19 134.444 334.508 134.444 333.663 C 134.444 333.072 134.575 332.538 134.837 332.064 C 135.098 331.589 135.463 331.214 135.933 330.937 C 136.401 330.658 136.899 330.519 137.425 330.519 C 137.741 330.519 138.084 330.575 138.456 330.684 C 138.693 330.752 138.874 330.786 138.999 330.786 C 139.164 330.786 139.273 330.723 139.325 330.597 L 139.508 330.597 L 139.508 332.272 L 139.345 332.272 C 139.279 331.808 139.064 331.436 138.7 331.156 C 138.337 330.876 137.912 330.738 137.425 330.738 C 136.813 330.738 136.312 330.977 135.919 331.457 C 135.528 331.936 135.333 332.556 135.333 333.314 C 135.333 334.146 135.558 334.837 136.011 335.386 C 136.464 335.935 137.032 336.209 137.716 336.209 C 138.365 336.209 138.688 336.008 138.688 335.603 L 138.688 334.986 C 138.688 334.637 138.642 334.393 138.549 334.254 C 138.454 334.114 138.289 334.045 138.052 334.045 L 137.83 334.045 L 137.83 333.88 L 140.174 333.88 Z " fill="rgb(43,43,43)"/><path d=" M 146.428 333.692 L 148.061 333.692 L 147.24 331.285 L 146.428 333.692 Z  M 148.264 336.34 L 148.264 336.176 C 148.596 336.176 148.762 336.062 148.762 335.835 C 148.762 335.771 148.747 335.697 148.717 335.618 L 148.179 334.04 L 146.321 334.04 L 145.926 335.18 C 145.827 335.468 145.778 335.677 145.778 335.807 C 145.778 336.047 145.931 336.169 146.235 336.176 L 146.235 336.34 L 144.74 336.34 L 144.74 336.176 C 144.955 336.146 145.12 336.077 145.239 335.967 C 145.358 335.856 145.478 335.629 145.6 335.283 L 147.201 330.597 L 147.796 330.597 L 149.477 335.492 C 149.576 335.779 149.679 335.965 149.786 336.049 C 149.893 336.133 150.065 336.176 150.302 336.176 L 150.302 336.34 L 148.264 336.34 Z " fill="rgb(43,43,43)"/><path d=" M 157.405 330.878 L 156.304 330.878 L 156.304 335.072 C 156.304 335.476 156.353 335.751 156.453 335.899 C 156.551 336.048 156.748 336.123 157.045 336.123 L 157.642 336.123 C 158.352 336.123 158.912 335.898 159.32 335.446 C 159.727 334.997 159.932 334.382 159.932 333.604 C 159.932 332.778 159.708 332.117 159.262 331.621 C 158.817 331.126 158.198 330.878 157.405 330.878 Z  M 154.883 336.34 L 154.883 336.176 C 155.131 336.176 155.303 336.109 155.397 335.974 C 155.492 335.841 155.539 335.607 155.539 335.274 L 155.539 331.732 C 155.539 331.392 155.492 331.155 155.397 331.024 C 155.303 330.892 155.131 330.825 154.883 330.825 L 154.883 330.66 L 157.561 330.66 C 158.55 330.66 159.341 330.936 159.935 331.488 C 160.529 332.04 160.825 332.743 160.825 333.595 C 160.825 334.431 160.545 335.097 159.982 335.595 C 159.42 336.092 158.638 336.34 157.635 336.34 L 154.883 336.34 Z " fill="rgb(43,43,43)"/><path d=" M 166.837 333.483 C 166.837 334.313 167.038 334.983 167.439 335.495 C 167.841 336.007 168.367 336.262 169.018 336.262 C 169.677 336.262 170.211 336.001 170.62 335.479 C 171.03 334.955 171.234 334.303 171.234 333.522 C 171.234 332.683 171.033 332.008 170.632 331.501 C 170.231 330.992 169.711 330.737 169.072 330.737 C 168.395 330.737 167.853 330.988 167.447 331.488 C 167.04 331.989 166.837 332.654 166.837 333.483 Z  M 165.949 333.474 C 165.949 332.631 166.244 331.928 166.837 331.365 C 167.43 330.802 168.168 330.519 169.053 330.519 C 169.912 330.519 170.638 330.805 171.232 331.377 C 171.826 331.948 172.123 332.648 172.123 333.474 C 172.123 334.316 171.823 335.028 171.225 335.61 C 170.626 336.191 169.894 336.481 169.029 336.481 C 168.166 336.481 167.438 336.191 166.842 335.61 C 166.247 335.028 165.949 334.316 165.949 333.474 Z " fill="rgb(43,43,43)"/><path d=" M 180.198 330.578 L 180.362 330.578 L 180.362 331.91 L 180.188 331.91 C 180.149 331.541 180.013 331.254 179.781 331.048 C 179.549 330.841 179.257 330.737 178.905 330.737 C 178.592 330.737 178.34 330.815 178.15 330.97 C 177.96 331.125 177.863 331.332 177.863 331.59 C 177.863 331.828 177.942 332.047 178.1 332.244 C 178.258 332.441 178.601 332.694 179.126 333.004 C 179.738 333.362 180.15 333.675 180.362 333.943 C 180.571 334.211 180.677 334.518 180.677 334.863 C 180.677 335.308 180.516 335.69 180.194 336.006 C 179.871 336.323 179.484 336.48 179.03 336.48 C 178.768 336.48 178.433 336.41 178.026 336.267 C 177.858 336.21 177.751 336.181 177.705 336.181 C 177.61 336.181 177.537 336.253 177.483 336.398 L 177.31 336.398 L 177.31 334.863 L 177.483 334.863 C 177.487 335.286 177.627 335.626 177.905 335.881 C 178.182 336.135 178.506 336.263 178.877 336.263 C 179.229 336.263 179.51 336.171 179.723 335.987 C 179.934 335.802 180.04 335.557 180.04 335.25 C 180.04 335.02 179.953 334.8 179.779 334.591 C 179.605 334.381 179.242 334.11 178.688 333.778 C 178.236 333.505 177.935 333.29 177.784 333.131 C 177.632 332.973 177.521 332.799 177.449 332.61 C 177.377 332.421 177.341 332.214 177.341 331.988 C 177.341 331.552 177.486 331.198 177.777 330.927 C 178.068 330.656 178.447 330.52 178.915 330.52 C 179.171 330.52 179.451 330.57 179.754 330.67 C 179.896 330.716 179.994 330.737 180.05 330.737 C 180.096 330.737 180.127 330.728 180.145 330.709 C 180.16 330.69 180.178 330.645 180.198 330.578 Z " fill="rgb(43,43,43)"/><path d=" M 192.489 333.692 L 194.122 333.692 L 193.301 331.285 L 192.489 333.692 Z  M 194.325 336.34 L 194.325 336.176 C 194.657 336.176 194.823 336.062 194.823 335.835 C 194.823 335.771 194.808 335.697 194.779 335.618 L 194.24 334.04 L 192.381 334.04 L 191.987 335.18 C 191.889 335.468 191.839 335.677 191.839 335.807 C 191.839 336.047 191.992 336.169 192.297 336.176 L 192.297 336.34 L 190.802 336.34 L 190.802 336.176 C 191.016 336.146 191.181 336.077 191.3 335.967 C 191.419 335.856 191.54 335.629 191.66 335.283 L 193.263 330.597 L 193.858 330.597 L 195.538 335.492 C 195.638 335.779 195.74 335.965 195.848 336.049 C 195.954 336.133 196.127 336.176 196.363 336.176 L 196.363 336.34 L 194.325 336.34 Z " fill="rgb(43,43,43)"/><path d=" M 204.063 330.578 L 204.226 330.578 L 204.226 331.91 L 204.053 331.91 C 204.014 331.541 203.879 331.254 203.646 331.048 C 203.415 330.841 203.122 330.737 202.77 330.737 C 202.458 330.737 202.206 330.815 202.016 330.97 C 201.824 331.125 201.728 331.332 201.728 331.59 C 201.728 331.828 201.808 332.047 201.965 332.244 C 202.123 332.441 202.466 332.694 202.992 333.004 C 203.604 333.362 204.016 333.675 204.226 333.943 C 204.437 334.211 204.543 334.518 204.543 334.863 C 204.543 335.308 204.381 335.69 204.059 336.006 C 203.737 336.323 203.35 336.48 202.896 336.48 C 202.633 336.48 202.298 336.41 201.891 336.267 C 201.723 336.21 201.616 336.181 201.57 336.181 C 201.475 336.181 201.402 336.253 201.349 336.398 L 201.176 336.398 L 201.176 334.863 L 201.349 334.863 C 201.352 335.286 201.493 335.626 201.77 335.881 C 202.048 336.135 202.372 336.263 202.742 336.263 C 203.094 336.263 203.376 336.171 203.587 335.987 C 203.8 335.802 203.905 335.557 203.905 335.25 C 203.905 335.02 203.818 334.8 203.645 334.591 C 203.47 334.381 203.106 334.11 202.553 333.778 C 202.102 333.505 201.8 333.29 201.649 333.131 C 201.498 332.973 201.386 332.799 201.314 332.61 C 201.242 332.421 201.206 332.214 201.206 331.988 C 201.206 331.552 201.351 331.198 201.642 330.927 C 201.934 330.656 202.312 330.52 202.781 330.52 C 203.036 330.52 203.317 330.57 203.619 330.67 C 203.761 330.716 203.859 330.737 203.915 330.737 C 203.961 330.737 203.993 330.728 204.009 330.709 C 204.025 330.69 204.044 330.645 204.063 330.578 Z " fill="rgb(43,43,43)"/><path d=" M 212.321 330.578 L 212.484 330.578 L 212.484 331.91 L 212.311 331.91 C 212.272 331.541 212.137 331.254 211.904 331.048 C 211.673 330.841 211.38 330.737 211.028 330.737 C 210.716 330.737 210.464 330.815 210.274 330.97 C 210.083 331.125 209.986 331.332 209.986 331.59 C 209.986 331.828 210.066 332.047 210.223 332.244 C 210.382 332.441 210.724 332.694 211.25 333.004 C 211.862 333.362 212.274 333.675 212.484 333.943 C 212.695 334.211 212.801 334.518 212.801 334.863 C 212.801 335.308 212.639 335.69 212.317 336.006 C 211.995 336.323 211.608 336.48 211.154 336.48 C 210.891 336.48 210.556 336.41 210.149 336.267 C 209.981 336.21 209.874 336.181 209.828 336.181 C 209.733 336.181 209.659 336.253 209.607 336.398 L 209.434 336.398 L 209.434 334.863 L 209.607 334.863 C 209.611 335.286 209.751 335.626 210.028 335.881 C 210.306 336.135 210.63 336.263 211 336.263 C 211.352 336.263 211.634 336.171 211.845 335.987 C 212.058 335.802 212.163 335.557 212.163 335.25 C 212.163 335.02 212.076 334.8 211.903 334.591 C 211.728 334.381 211.365 334.11 210.811 333.778 C 210.36 333.505 210.058 333.29 209.907 333.131 C 209.756 332.973 209.644 332.799 209.572 332.61 C 209.5 332.421 209.464 332.214 209.464 331.988 C 209.464 331.552 209.609 331.198 209.9 330.927 C 210.192 330.656 210.57 330.52 211.039 330.52 C 211.294 330.52 211.575 330.57 211.877 330.67 C 212.019 330.716 212.117 330.737 212.173 330.737 C 212.219 330.737 212.251 330.728 212.268 330.709 C 212.283 330.69 212.302 330.645 212.321 330.578 Z " fill="rgb(43,43,43)"/><path d=" M 218.63 333.483 C 218.63 334.313 218.83 334.983 219.231 335.495 C 219.633 336.007 220.159 336.262 220.81 336.262 C 221.469 336.262 222.002 336.001 222.412 335.479 C 222.822 334.955 223.027 334.303 223.027 333.522 C 223.027 332.683 222.826 332.008 222.424 331.501 C 222.024 330.992 221.503 330.737 220.866 330.737 C 220.188 330.737 219.645 330.988 219.239 331.488 C 218.832 331.989 218.63 332.654 218.63 333.483 Z  M 217.741 333.474 C 217.741 332.631 218.038 331.928 218.63 331.365 C 219.222 330.802 219.96 330.519 220.845 330.519 C 221.704 330.519 222.43 330.805 223.023 331.377 C 223.617 331.948 223.915 332.648 223.915 333.474 C 223.915 334.316 223.615 335.028 223.017 335.61 C 222.419 336.191 221.686 336.481 220.821 336.481 C 219.959 336.481 219.23 336.191 218.634 335.61 C 218.038 335.028 217.741 334.316 217.741 333.474 Z " fill="rgb(43,43,43)"/><path d=" M 234.255 330.578 L 234.255 332.273 L 234.082 332.273 C 233.944 331.747 233.723 331.359 233.418 331.111 C 233.114 330.861 232.709 330.737 232.202 330.737 C 231.544 330.737 231.023 330.97 230.637 331.435 C 230.253 331.899 230.061 332.519 230.061 333.294 C 230.061 334.143 230.264 334.826 230.67 335.345 C 231.076 335.863 231.609 336.122 232.266 336.122 C 233.178 336.122 233.851 335.706 234.285 334.873 L 234.437 335.013 C 234.244 335.466 233.93 335.824 233.497 336.086 C 233.065 336.348 232.573 336.48 232.019 336.48 C 231.496 336.48 231.012 336.359 230.566 336.118 C 230.12 335.875 229.776 335.542 229.535 335.117 C 229.293 334.693 229.172 334.205 229.172 333.653 C 229.172 332.749 229.455 332.001 230.021 331.408 C 230.586 330.816 231.3 330.52 232.162 330.52 C 232.452 330.52 232.818 330.57 233.263 330.67 C 233.513 330.728 233.686 330.757 233.781 330.757 C 233.93 330.757 234.034 330.697 234.092 330.578 L 234.255 330.578 Z " fill="rgb(43,43,43)"/><path d=" M 241.171 330.66 L 241.171 330.825 C 240.923 330.825 240.753 330.891 240.658 331.024 C 240.562 331.156 240.515 331.391 240.515 331.731 L 240.515 335.274 C 240.515 335.613 240.562 335.848 240.658 335.979 C 240.753 336.11 240.923 336.176 241.171 336.176 L 241.171 336.34 L 239.088 336.34 L 239.088 336.176 C 239.342 336.176 239.514 336.111 239.606 335.981 C 239.699 335.852 239.745 335.616 239.745 335.274 L 239.745 331.731 C 239.745 331.382 239.699 331.144 239.609 331.016 C 239.518 330.888 239.344 330.825 239.088 330.825 L 239.088 330.66 L 241.171 330.66 Z " fill="rgb(43,43,43)"/><path d=" M 247.396 333.692 L 249.028 333.692 L 248.207 331.285 L 247.396 333.692 Z  M 249.232 336.34 L 249.232 336.176 C 249.563 336.176 249.729 336.062 249.729 335.835 C 249.729 335.771 249.715 335.697 249.685 335.618 L 249.147 334.04 L 247.288 334.04 L 246.893 335.18 C 246.795 335.468 246.746 335.677 246.746 335.807 C 246.746 336.047 246.898 336.169 247.203 336.176 L 247.203 336.34 L 245.708 336.34 L 245.708 336.176 C 245.922 336.146 246.087 336.077 246.207 335.967 C 246.325 335.856 246.446 335.629 246.567 335.283 L 248.169 330.597 L 248.764 330.597 L 250.446 335.492 C 250.544 335.779 250.647 335.965 250.754 336.049 C 250.86 336.133 251.033 336.176 251.27 336.176 L 251.27 336.34 L 249.232 336.34 Z " fill="rgb(43,43,43)"/><path d=" M 258.372 330.878 L 257.272 330.878 L 257.272 335.072 C 257.272 335.476 257.321 335.751 257.421 335.899 C 257.519 336.048 257.716 336.123 258.013 336.123 L 258.609 336.123 C 259.319 336.123 259.879 335.898 260.287 335.446 C 260.695 334.997 260.9 334.382 260.9 333.604 C 260.9 332.778 260.676 332.117 260.23 331.621 C 259.784 331.126 259.165 330.878 258.372 330.878 Z  M 255.851 336.34 L 255.851 336.176 C 256.1 336.176 256.27 336.109 256.365 335.974 C 256.46 335.841 256.507 335.607 256.507 335.274 L 256.507 331.732 C 256.507 331.392 256.46 331.155 256.365 331.024 C 256.27 330.892 256.1 330.825 255.851 330.825 L 255.851 330.66 L 258.528 330.66 C 259.517 330.66 260.31 330.936 260.903 331.488 C 261.496 332.04 261.793 332.743 261.793 333.595 C 261.793 334.431 261.512 335.097 260.949 335.595 C 260.388 336.092 259.606 336.34 258.602 336.34 L 255.851 336.34 Z " fill="rgb(43,43,43)"/><path d=" M 267.804 333.483 C 267.804 334.313 268.005 334.983 268.406 335.495 C 268.808 336.007 269.334 336.262 269.985 336.262 C 270.644 336.262 271.178 336.001 271.587 335.479 C 271.997 334.955 272.201 334.303 272.201 333.522 C 272.201 332.683 272 332.008 271.599 331.501 C 271.199 330.992 270.678 330.737 270.04 330.737 C 269.362 330.737 268.82 330.988 268.414 331.488 C 268.008 331.989 267.804 332.654 267.804 333.483 Z  M 266.917 333.474 C 266.917 332.631 267.212 331.928 267.804 331.365 C 268.397 330.802 269.136 330.519 270.02 330.519 C 270.879 330.519 271.605 330.805 272.199 331.377 C 272.793 331.948 273.09 332.648 273.09 333.474 C 273.09 334.316 272.79 335.028 272.192 335.61 C 271.593 336.191 270.861 336.481 269.997 336.481 C 269.134 336.481 268.405 336.191 267.809 335.61 C 267.214 335.028 266.917 334.316 266.917 333.474 Z " fill="rgb(43,43,43)"/><path d=" M 281.165 330.578 L 281.328 330.578 L 281.328 331.91 L 281.155 331.91 C 281.116 331.541 280.981 331.254 280.748 331.048 C 280.517 330.841 280.223 330.737 279.872 330.737 C 279.56 330.737 279.308 330.815 279.118 330.97 C 278.926 331.125 278.83 331.332 278.83 331.59 C 278.83 331.828 278.91 332.047 279.067 332.244 C 279.225 332.441 279.568 332.694 280.094 333.004 C 280.706 333.362 281.118 333.675 281.328 333.943 C 281.539 334.211 281.645 334.518 281.645 334.863 C 281.645 335.308 281.482 335.69 281.161 336.006 C 280.839 336.323 280.452 336.48 279.998 336.48 C 279.735 336.48 279.4 336.41 278.993 336.267 C 278.825 336.21 278.718 336.181 278.672 336.181 C 278.577 336.181 278.503 336.253 278.451 336.398 L 278.278 336.398 L 278.278 334.863 L 278.451 334.863 C 278.454 335.286 278.595 335.626 278.871 335.881 C 279.15 336.135 279.474 336.263 279.844 336.263 C 280.196 336.263 280.478 336.171 280.689 335.987 C 280.901 335.802 281.007 335.557 281.007 335.25 C 281.007 335.02 280.92 334.8 280.746 334.591 C 280.572 334.381 280.208 334.11 279.655 333.778 C 279.204 333.505 278.902 333.29 278.751 333.131 C 278.6 332.973 278.488 332.799 278.416 332.61 C 278.344 332.421 278.308 332.214 278.308 331.988 C 278.308 331.552 278.453 331.198 278.744 330.927 C 279.036 330.656 279.414 330.52 279.882 330.52 C 280.138 330.52 280.419 330.57 280.721 330.67 C 280.862 330.716 280.961 330.737 281.017 330.737 C 281.063 330.737 281.095 330.728 281.111 330.709 C 281.127 330.69 281.145 330.645 281.165 330.578 Z " fill="rgb(43,43,43)"/><path d=" M 88.308 333.539 C 88.308 334.435 87.567 335.161 86.654 335.161 C 85.741 335.161 85 334.435 85 333.539 C 85 332.643 85.741 331.916 86.654 331.916 C 87.567 331.916 88.308 332.643 88.308 333.539 Z " fill="rgb(43,43,43)"/><path d=" M 290 333.539 C 290 334.435 289.259 335.161 288.347 335.161 C 287.433 335.161 286.693 334.435 286.693 333.539 C 286.693 332.643 287.433 331.916 288.347 331.916 C 289.259 331.916 290 332.643 290 333.539 Z " fill="rgb(43,43,43)"/></g></g></svg>