<?xml version="1.0" encoding="UTF-8" standalone="no"?><!-- Generator: Gravit.io --><svg xmlns="http://www.w3.org/2000/svg" xmlns:xlink="http://www.w3.org/1999/xlink" style="isolation:isolate" viewBox="0 0 375 667" width="375pt" height="667pt"><defs><clipPath id="_clipPath_WEt6qS4v2uB8gmY7hoYGvU6zA5zCones"><rect width="375" height="667"/></clipPath></defs><g clip-path="url(#_clipPath_WEt6qS4v2uB8gmY7hoYGvU6zA5zCones)"><rect x="0" y="0" width="362" height="362" transform="matrix(1,0,0,1,0,0)" fill="none"/><path d=" M 0 0 L 362 0 L 362 362 L 0 362 L 0 0 Z " fill="none"/><g><path d=" M 269.494 44.207 L 272.362 44.207 L 270.896 40.301 L 269.494 44.207 Z  M 272.282 48.137 L 272.282 47.856 C 272.678 47.781 272.956 47.688 273.119 47.578 C 273.282 47.469 273.364 47.315 273.364 47.116 C 273.364 46.956 273.301 46.709 273.178 46.376 L 272.622 44.898 L 269.186 44.898 L 268.711 46.175 C 268.588 46.502 268.527 46.765 268.527 46.963 C 268.527 47.387 268.85 47.684 269.494 47.856 L 269.494 48.137 L 266.383 48.137 L 266.383 47.856 C 266.759 47.791 267.086 47.596 267.364 47.269 C 267.643 46.942 267.918 46.409 268.193 45.67 L 270.961 38.26 L 272.276 38.26 L 275.204 45.967 C 275.472 46.653 275.735 47.13 275.993 47.401 C 276.25 47.672 276.586 47.824 277 47.856 L 277 48.137 L 272.282 48.137 Z " fill="rgb(11,68,168)"/><g><path d=" M 57.944 38.509 L 57.944 38.791 C 57.553 38.86 57.269 38.984 57.093 39.164 C 56.916 39.344 56.827 39.599 56.827 39.932 C 56.825 40.056 56.834 40.194 56.855 40.349 L 57.726 46.361 C 57.791 46.8 57.939 47.138 58.173 47.374 C 58.406 47.609 58.748 47.77 59.198 47.856 L 59.198 48.137 L 54.441 48.137 L 54.441 47.856 C 54.837 47.754 55.121 47.596 55.293 47.382 C 55.464 47.167 55.55 46.859 55.55 46.457 C 55.55 46.259 55.531 46.018 55.493 45.734 L 54.706 40.237 L 51.537 48.137 L 51.194 48.137 L 48.067 40.237 L 47.232 45.895 C 47.2 46.12 47.184 46.324 47.184 46.506 C 47.184 47.346 47.577 47.797 48.365 47.856 L 48.365 48.137 L 44.877 48.137 L 44.877 47.856 C 45.386 47.834 45.769 47.664 46.026 47.345 C 46.284 47.027 46.471 46.49 46.588 45.734 L 47.539 39.448 C 47.131 39.026 46.664 38.806 46.139 38.791 L 46.139 38.509 L 49.622 38.509 L 52.134 44.857 L 54.68 38.509 L 57.944 38.509 Z " fill="rgb(11,68,168)"/><path d=" M 68.343 43.395 C 68.343 41.9 68.093 40.762 67.592 39.98 C 67.091 39.198 66.358 38.806 65.394 38.806 C 64.44 38.806 63.714 39.198 63.216 39.98 C 62.718 40.762 62.468 41.906 62.468 43.411 C 62.468 44.81 62.721 45.897 63.224 46.675 C 63.728 47.451 64.451 47.84 65.394 47.84 C 66.321 47.84 67.044 47.454 67.564 46.683 C 68.083 45.911 68.343 44.815 68.343 43.395 Z  M 70.65 43.331 C 70.65 44.804 70.157 46.015 69.171 46.964 C 68.185 47.912 66.926 48.385 65.394 48.385 C 63.867 48.385 62.614 47.912 61.633 46.964 C 60.652 46.015 60.162 44.804 60.162 43.331 C 60.162 41.858 60.654 40.644 61.637 39.691 C 62.62 38.737 63.872 38.26 65.394 38.26 C 66.926 38.26 68.185 38.737 69.171 39.691 C 70.157 40.644 70.65 41.858 70.65 43.331 Z " fill="rgb(11,68,168)"/><path d=" M 78.839 38.791 L 78.839 38.509 L 82.086 38.509 L 82.086 38.791 C 81.154 38.844 80.687 39.369 80.687 40.366 L 80.687 48.249 L 80.373 48.249 L 73.447 40.445 L 73.447 46.331 C 73.447 46.844 73.54 47.204 73.728 47.411 C 73.915 47.617 74.293 47.765 74.861 47.856 L 74.861 48.137 L 71.542 48.137 L 71.542 47.856 C 71.992 47.786 72.315 47.632 72.51 47.393 C 72.706 47.156 72.804 46.784 72.804 46.281 L 72.804 39.747 C 72.429 39.362 72.17 39.114 72.028 39.008 C 71.886 38.901 71.718 38.828 71.526 38.791 L 71.526 38.509 L 74.418 38.509 L 80.044 44.963 L 80.044 40.631 C 80.044 39.994 79.961 39.553 79.793 39.309 C 79.625 39.065 79.307 38.892 78.839 38.791 Z " fill="rgb(11,68,168)"/><path d=" M 85.598 44.207 L 88.466 44.207 L 87 40.301 L 85.598 44.207 Z  M 88.386 48.137 L 88.386 47.856 C 88.781 47.781 89.06 47.688 89.223 47.578 C 89.385 47.469 89.467 47.315 89.467 47.116 C 89.467 46.956 89.405 46.709 89.281 46.376 L 88.725 44.898 L 85.289 44.898 L 84.814 46.175 C 84.692 46.502 84.632 46.765 84.632 46.963 C 84.632 47.387 84.953 47.684 85.598 47.856 L 85.598 48.137 L 82.488 48.137 L 82.488 47.856 C 82.862 47.791 83.189 47.596 83.468 47.269 C 83.747 46.942 84.023 46.409 84.296 45.67 L 87.065 38.26 L 88.38 38.26 L 91.308 45.967 C 91.576 46.653 91.839 47.13 92.096 47.401 C 92.354 47.672 92.69 47.824 93.104 47.856 L 93.104 48.137 L 88.386 48.137 Z " fill="rgb(11,68,168)"/><path d=" M 102.369 41.869 L 102.104 41.869 C 101.884 40.899 101.488 40.146 100.915 39.61 C 100.341 39.075 99.645 38.807 98.825 38.807 C 97.93 38.807 97.219 39.184 96.692 39.939 C 96.164 40.695 95.9 41.711 95.9 42.985 C 95.9 44.406 96.208 45.503 96.824 46.281 C 97.44 47.058 98.29 47.445 99.372 47.445 C 99.956 47.445 100.491 47.325 100.979 47.084 C 101.467 46.843 101.962 46.455 102.466 45.919 L 102.466 46.425 C 101.512 47.733 100.213 48.386 98.568 48.386 C 97.095 48.386 95.897 47.929 94.976 47.016 C 94.054 46.102 93.594 44.917 93.594 43.46 C 93.594 41.981 94.09 40.745 95.084 39.751 C 96.078 38.757 97.315 38.261 98.793 38.261 C 99.398 38.261 100.082 38.394 100.842 38.662 C 101.169 38.78 101.392 38.839 101.51 38.839 C 101.745 38.839 101.943 38.673 102.104 38.34 L 102.369 38.34 L 102.369 41.869 Z " fill="rgb(11,68,168)"/><path d=" M 111.853 43.395 C 111.853 41.9 111.602 40.762 111.101 39.98 C 110.6 39.198 109.867 38.806 108.903 38.806 C 107.949 38.806 107.224 39.198 106.725 39.98 C 106.227 40.762 105.978 41.906 105.978 43.411 C 105.978 44.81 106.23 45.897 106.733 46.675 C 107.237 47.451 107.96 47.84 108.903 47.84 C 109.83 47.84 110.553 47.454 111.073 46.683 C 111.592 45.911 111.853 44.815 111.853 43.395 Z  M 114.159 43.331 C 114.159 44.804 113.666 46.015 112.68 46.964 C 111.694 47.912 110.435 48.385 108.903 48.385 C 107.376 48.385 106.123 47.912 105.142 46.964 C 104.161 46.015 103.671 44.804 103.671 43.331 C 103.671 41.858 104.163 40.644 105.146 39.691 C 106.129 38.737 107.381 38.26 108.903 38.26 C 110.435 38.26 111.694 38.737 112.68 39.691 C 113.666 40.644 114.159 41.858 114.159 43.331 Z " fill="rgb(11,68,168)"/><path d=" M 115.051 51.118 L 115.051 50.837 C 116.096 50.468 116.618 49.846 116.618 48.973 C 116.618 48.828 116.588 48.689 116.529 48.555 C 116.471 48.42 116.401 48.354 116.32 48.354 C 116.305 48.354 116.27 48.359 116.216 48.37 C 116.141 48.381 116.082 48.386 116.039 48.386 C 115.777 48.386 115.552 48.275 115.365 48.053 C 115.177 47.83 115.084 47.567 115.084 47.261 C 115.084 46.918 115.197 46.638 115.424 46.421 C 115.652 46.204 115.946 46.096 116.305 46.096 C 116.754 46.096 117.138 46.298 117.454 46.702 C 117.77 47.107 117.928 47.596 117.928 48.169 C 117.928 48.876 117.633 49.532 117.044 50.134 C 116.455 50.737 115.791 51.065 115.051 51.118 Z " fill="rgb(11,68,168)"/><path d=" M 135.029 38.509 L 135.029 38.791 C 134.638 38.86 134.354 38.984 134.177 39.164 C 134 39.344 133.912 39.599 133.912 39.932 C 133.91 40.056 133.919 40.194 133.941 40.349 L 134.811 46.361 C 134.875 46.8 135.025 47.138 135.258 47.374 C 135.491 47.609 135.833 47.77 136.283 47.856 L 136.283 48.137 L 131.526 48.137 L 131.526 47.856 C 131.922 47.754 132.206 47.596 132.377 47.382 C 132.548 47.167 132.634 46.859 132.634 46.457 C 132.634 46.259 132.615 46.018 132.578 45.734 L 131.79 40.237 L 128.622 48.137 L 128.278 48.137 L 125.152 40.237 L 124.317 45.895 C 124.285 46.12 124.269 46.324 124.269 46.506 C 124.269 47.346 124.662 47.797 125.45 47.856 L 125.45 48.137 L 121.962 48.137 L 121.962 47.856 C 122.471 47.834 122.854 47.664 123.111 47.345 C 123.368 47.027 123.555 46.49 123.673 45.734 L 124.624 39.448 C 124.216 39.026 123.75 38.806 123.224 38.791 L 123.224 38.509 L 126.707 38.509 L 129.219 44.857 L 131.765 38.509 L 135.029 38.509 Z " fill="rgb(11,68,168)"/><path d=" M 141.844 38.509 L 141.844 38.791 C 141.37 38.898 141.051 39.041 140.886 39.221 C 140.721 39.4 140.639 39.771 140.639 40.334 L 140.639 46.506 C 140.639 46.939 140.716 47.242 140.871 47.414 C 141.025 47.585 141.349 47.733 141.844 47.856 L 141.844 48.137 L 137.296 48.137 L 137.296 47.856 C 137.639 47.77 137.894 47.676 138.063 47.574 C 138.232 47.473 138.35 47.343 138.417 47.188 C 138.484 47.033 138.517 46.736 138.517 46.297 L 138.517 40.141 C 138.517 39.706 138.438 39.403 138.28 39.229 C 138.122 39.055 137.794 38.908 137.296 38.791 L 137.296 38.509 L 141.844 38.509 Z " fill="rgb(11,68,168)"/><path d=" M 147.027 39.056 L 146.369 39.056 L 146.369 43.001 C 146.535 43.012 146.69 43.017 146.835 43.017 C 147.601 43.017 148.159 42.853 148.51 42.524 C 148.861 42.195 149.036 41.673 149.036 40.96 C 149.036 39.69 148.367 39.056 147.027 39.056 Z  M 143.025 48.137 L 143.025 47.856 C 143.839 47.791 144.247 47.381 144.247 46.626 L 144.247 40.108 C 144.247 39.664 144.163 39.356 143.994 39.184 C 143.825 39.013 143.502 38.882 143.025 38.791 L 143.025 38.509 L 147.606 38.509 C 148.806 38.509 149.729 38.721 150.375 39.145 C 151.02 39.567 151.343 40.162 151.343 40.928 C 151.343 41.48 151.175 41.954 150.839 42.351 C 150.503 42.747 150.022 43.037 149.396 43.219 L 149.396 43.25 C 149.62 43.304 149.864 43.491 150.127 43.809 C 150.389 44.129 150.77 44.755 151.269 45.686 C 151.758 46.592 152.113 47.165 152.336 47.405 C 152.558 47.647 152.862 47.796 153.248 47.856 L 153.248 48.137 L 150.471 48.137 C 150.107 47.706 149.641 46.927 149.07 45.797 C 148.678 45.021 148.386 44.504 148.196 44.247 C 148.007 43.99 147.808 43.809 147.602 43.705 C 147.396 43.6 146.985 43.548 146.369 43.548 L 146.369 46.506 C 146.369 46.929 146.462 47.244 146.65 47.45 C 146.837 47.656 147.156 47.791 147.606 47.856 L 147.606 48.137 L 143.025 48.137 Z " fill="rgb(11,68,168)"/><path d=" M 156.671 44.207 L 159.54 44.207 L 158.074 40.301 L 156.671 44.207 Z  M 159.46 48.137 L 159.46 47.856 C 159.855 47.781 160.134 47.688 160.297 47.578 C 160.46 47.469 160.541 47.315 160.541 47.116 C 160.541 46.956 160.479 46.709 160.356 46.376 L 159.799 44.898 L 156.363 44.898 L 155.888 46.175 C 155.766 46.502 155.705 46.765 155.705 46.963 C 155.705 47.387 156.027 47.684 156.671 47.856 L 156.671 48.137 L 153.561 48.137 L 153.561 47.856 C 153.936 47.791 154.263 47.596 154.542 47.269 C 154.82 46.942 155.096 46.409 155.371 45.67 L 158.139 38.26 L 159.454 38.26 L 162.381 45.967 C 162.65 46.653 162.912 47.13 163.17 47.401 C 163.428 47.672 163.763 47.824 164.177 47.856 L 164.177 48.137 L 159.46 48.137 Z " fill="rgb(11,68,168)"/><path d=" M 171.868 38.791 L 171.868 38.509 L 175.115 38.509 L 175.115 38.791 C 174.183 38.844 173.716 39.369 173.716 40.366 L 173.716 48.249 L 173.401 48.249 L 166.475 40.445 L 166.475 46.331 C 166.475 46.844 166.57 47.204 166.756 47.411 C 166.945 47.617 167.322 47.765 167.89 47.856 L 167.89 48.137 L 164.571 48.137 L 164.571 47.856 C 165.021 47.786 165.344 47.632 165.539 47.393 C 165.735 47.156 165.833 46.784 165.833 46.281 L 165.833 39.747 C 165.458 39.362 165.199 39.114 165.057 39.008 C 164.915 38.901 164.748 38.828 164.555 38.791 L 164.555 38.509 L 167.448 38.509 L 173.074 44.963 L 173.074 40.631 C 173.074 39.994 172.989 39.553 172.822 39.309 C 172.654 39.065 172.337 38.892 171.868 38.791 Z " fill="rgb(11,68,168)"/><path d=" M 180.434 39.056 L 179.181 39.056 L 179.181 46.457 C 179.181 46.87 179.302 47.162 179.543 47.333 C 179.784 47.504 180.186 47.59 180.748 47.59 C 181.862 47.59 182.726 47.22 183.336 46.481 C 183.947 45.742 184.252 44.698 184.252 43.348 C 184.252 42.024 183.917 40.978 183.248 40.209 C 182.578 39.44 181.64 39.056 180.434 39.056 Z  M 175.838 48.137 L 175.838 47.856 C 176.347 47.717 176.678 47.562 176.83 47.394 C 176.984 47.225 177.06 46.859 177.06 46.297 L 177.06 40.156 C 177.06 39.723 176.984 39.42 176.83 39.249 C 176.678 39.077 176.347 38.925 175.838 38.791 L 175.838 38.509 L 180.765 38.509 C 182.553 38.509 183.966 38.962 185.004 39.867 C 186.04 40.773 186.558 41.965 186.558 43.444 C 186.558 44.869 186.095 46.007 185.168 46.859 C 184.241 47.71 182.987 48.137 181.407 48.137 L 175.838 48.137 Z " fill="rgb(11,68,168)"/><path d=" M 189.315 44.207 L 192.183 44.207 L 190.718 40.301 L 189.315 44.207 Z  M 192.104 48.137 L 192.104 47.856 C 192.499 47.781 192.778 47.688 192.94 47.578 C 193.103 47.469 193.185 47.315 193.185 47.116 C 193.185 46.956 193.123 46.709 193 46.376 L 192.443 44.898 L 189.007 44.898 L 188.532 46.175 C 188.41 46.502 188.349 46.765 188.349 46.963 C 188.349 47.387 188.671 47.684 189.315 47.856 L 189.315 48.137 L 186.204 48.137 L 186.204 47.856 C 186.58 47.791 186.907 47.596 187.186 47.269 C 187.464 46.942 187.74 46.409 188.014 45.67 L 190.783 38.26 L 192.097 38.26 L 195.025 45.967 C 195.293 46.653 195.556 47.13 195.814 47.401 C 196.071 47.672 196.407 47.824 196.821 47.856 L 196.821 48.137 L 192.104 48.137 Z " fill="rgb(11,68,168)"/><path d=" M 204.85 39.939 C 204.85 40.223 204.944 40.512 205.131 40.806 C 205.32 41.101 205.656 41.475 206.14 41.929 C 206.428 41.843 206.661 41.694 206.84 41.483 C 207.018 41.272 207.108 41.037 207.108 40.781 C 207.108 40.288 206.977 39.861 206.718 39.497 C 206.458 39.133 206.154 38.951 205.806 38.951 C 205.516 38.951 205.284 39.041 205.11 39.221 C 204.937 39.4 204.85 39.64 204.85 39.939 Z  M 203.732 44.762 C 203.732 45.475 203.967 46.092 204.436 46.614 C 204.906 47.136 205.462 47.398 206.105 47.398 C 206.657 47.398 207.199 47.188 207.73 46.768 C 206.26 44.975 205.227 43.814 204.631 43.284 C 204.294 43.52 204.06 43.747 203.93 43.967 C 203.798 44.187 203.732 44.452 203.732 44.762 Z  M 203.025 40.567 C 203.025 39.897 203.31 39.345 203.882 38.911 C 204.452 38.477 205.208 38.261 206.151 38.261 C 207.009 38.261 207.679 38.427 208.16 38.762 C 208.642 39.097 208.884 39.561 208.884 40.155 C 208.884 40.69 208.679 41.162 208.267 41.571 C 207.855 41.981 207.299 42.258 206.599 42.402 C 207.685 43.528 208.501 44.429 209.048 45.104 C 209.464 44.355 209.672 43.769 209.672 43.346 C 209.672 42.875 209.463 42.562 209.044 42.407 L 209.044 42.126 L 211.882 42.126 L 211.882 42.407 C 211.565 42.492 211.293 42.655 211.065 42.893 C 210.837 43.131 210.506 43.664 210.073 44.489 C 209.832 44.96 209.633 45.333 209.477 45.606 C 210.016 46.221 210.458 46.647 210.806 46.887 C 211.152 47.126 211.492 47.245 211.823 47.245 C 212.117 47.245 212.387 47.13 212.633 46.899 L 212.846 47.088 C 212.316 47.954 211.52 48.385 210.459 48.385 C 210.014 48.385 209.618 48.3 209.27 48.129 C 208.921 47.957 208.535 47.657 208.113 47.229 C 207.067 48 205.981 48.385 204.85 48.385 C 203.912 48.385 203.149 48.152 202.559 47.682 C 201.969 47.214 201.675 46.607 201.675 45.862 C 201.675 44.614 202.52 43.606 204.209 42.84 C 203.784 42.369 203.48 41.959 203.299 41.611 C 203.117 41.263 203.025 40.915 203.025 40.567 Z " fill="rgb(11,68,168)"/><path d=" M 224.941 38.509 L 224.941 38.791 C 224.548 38.871 224.231 39.033 223.989 39.277 C 223.748 39.521 223.509 39.951 223.273 40.567 L 220.306 48.386 L 219.99 48.386 L 216.953 40.663 C 216.674 39.961 216.424 39.49 216.205 39.249 C 215.985 39.008 215.669 38.855 215.257 38.791 L 215.257 38.509 L 219.636 38.509 L 219.636 38.791 C 219.1 38.881 218.831 39.114 218.831 39.488 C 218.831 39.659 218.888 39.887 219.001 40.17 L 220.917 45.061 L 222.63 40.438 C 222.732 40.155 222.783 39.913 222.783 39.715 C 222.783 39.206 222.439 38.898 221.75 38.791 L 221.75 38.509 L 224.941 38.509 Z " fill="rgb(11,68,168)"/><path d=" M 232.061 41.828 L 232.374 41.828 L 232.374 44.81 L 232.061 44.81 C 231.948 43.99 231.503 43.581 230.727 43.581 L 229.031 43.581 L 229.031 46.409 C 229.031 46.843 229.13 47.148 229.328 47.325 C 229.525 47.502 229.865 47.59 230.345 47.59 L 230.907 47.59 C 231.848 47.59 232.522 46.993 232.928 45.798 L 233.209 45.798 L 233.033 48.137 L 225.704 48.137 L 225.704 47.856 C 226.188 47.754 226.51 47.608 226.67 47.418 C 226.829 47.227 226.909 46.859 226.909 46.313 L 226.909 40.124 C 226.909 39.674 226.826 39.362 226.662 39.188 C 226.497 39.014 226.177 38.882 225.704 38.791 L 225.704 38.509 L 232.92 38.509 L 232.92 40.646 L 232.639 40.646 C 232.478 40.02 232.278 39.599 232.041 39.381 C 231.802 39.164 231.42 39.055 230.895 39.055 L 229.031 39.055 L 229.031 43.034 L 230.727 43.034 C 231.112 43.034 231.407 42.942 231.61 42.759 C 231.814 42.576 231.964 42.265 232.061 41.828 Z " fill="rgb(11,68,168)"/><path d=" M 238.659 39.056 L 237.405 39.056 L 237.405 46.457 C 237.405 46.87 237.526 47.162 237.767 47.333 C 238.008 47.504 238.41 47.59 238.972 47.59 C 240.086 47.59 240.95 47.22 241.56 46.481 C 242.171 45.742 242.476 44.698 242.476 43.348 C 242.476 42.024 242.141 40.978 241.472 40.209 C 240.801 39.44 239.864 39.056 238.659 39.056 Z  M 234.062 48.137 L 234.062 47.856 C 234.571 47.717 234.902 47.562 235.055 47.394 C 235.208 47.225 235.284 46.859 235.284 46.297 L 235.284 40.156 C 235.284 39.723 235.208 39.42 235.055 39.249 C 234.902 39.077 234.571 38.925 234.062 38.791 L 234.062 38.509 L 238.988 38.509 C 240.777 38.509 242.19 38.962 243.227 39.867 C 244.264 40.773 244.783 41.965 244.783 43.444 C 244.783 44.869 244.319 46.007 243.392 46.859 C 242.465 47.71 241.211 48.137 239.631 48.137 L 234.062 48.137 Z " fill="rgb(11,68,168)"/><path d=" M 247.539 44.207 L 250.407 44.207 L 248.941 40.301 L 247.539 44.207 Z  M 250.327 48.137 L 250.327 47.856 C 250.723 47.781 251.001 47.688 251.164 47.578 C 251.326 47.469 251.408 47.315 251.408 47.116 C 251.408 46.956 251.346 46.709 251.223 46.376 L 250.667 44.898 L 247.231 44.898 L 246.755 46.175 C 246.633 46.502 246.572 46.765 246.572 46.963 C 246.572 47.387 246.895 47.684 247.539 47.856 L 247.539 48.137 L 244.428 48.137 L 244.428 47.856 C 244.804 47.791 245.13 47.596 245.409 47.269 C 245.688 46.942 245.963 46.409 246.238 45.67 L 249.006 38.26 L 250.32 38.26 L 253.248 45.967 C 253.516 46.653 253.78 47.13 254.037 47.401 C 254.295 47.672 254.631 47.824 255.045 47.856 L 255.045 48.137 L 250.327 48.137 Z " fill="rgb(11,68,168)"/><path d=" M 262.735 38.791 L 262.735 38.509 L 265.982 38.509 L 265.982 38.791 C 265.05 38.844 264.584 39.369 264.584 40.366 L 264.584 48.249 L 264.269 48.249 L 257.342 40.445 L 257.342 46.331 C 257.342 46.844 257.437 47.204 257.624 47.411 C 257.812 47.617 258.189 47.765 258.757 47.856 L 258.757 48.137 L 255.438 48.137 L 255.438 47.856 C 255.888 47.786 256.211 47.632 256.406 47.393 C 256.602 47.156 256.7 46.784 256.7 46.281 L 256.7 39.747 C 256.325 39.362 256.066 39.114 255.925 39.008 C 255.782 38.901 255.615 38.828 255.422 38.791 L 255.422 38.509 L 258.315 38.509 L 263.941 44.963 L 263.941 40.631 C 263.941 39.994 263.857 39.553 263.69 39.309 C 263.522 39.065 263.204 38.892 262.735 38.791 Z " fill="rgb(11,68,168)"/><path d=" M 89.653 54.54 L 90.916 54.54 L 90.281 52.642 L 89.653 54.54 Z  M 91.074 56.629 L 91.074 56.5 C 91.33 56.5 91.459 56.41 91.459 56.231 C 91.459 56.18 91.447 56.122 91.424 56.059 L 91.008 54.815 L 89.57 54.815 L 89.264 55.714 C 89.188 55.941 89.15 56.106 89.15 56.208 C 89.15 56.398 89.268 56.494 89.504 56.5 L 89.504 56.629 L 88.347 56.629 L 88.347 56.5 C 88.512 56.476 88.641 56.422 88.733 56.335 C 88.825 56.248 88.918 56.068 89.012 55.795 L 90.251 52.1 L 90.712 52.1 L 92.012 55.96 C 92.088 56.187 92.168 56.333 92.251 56.399 C 92.334 56.466 92.467 56.5 92.651 56.5 L 92.651 56.629 L 91.074 56.629 Z " fill="rgb(43,43,43)"/><path d=" M 98.146 52.322 L 97.294 52.322 L 97.294 55.629 C 97.294 55.947 97.333 56.164 97.409 56.281 C 97.486 56.399 97.638 56.458 97.868 56.458 L 98.329 56.458 C 98.879 56.458 99.312 56.28 99.628 55.924 C 99.943 55.57 100.101 55.085 100.101 54.471 C 100.101 53.82 99.928 53.298 99.583 52.907 C 99.239 52.517 98.76 52.322 98.146 52.322 Z  M 96.195 56.629 L 96.195 56.499 C 96.387 56.499 96.52 56.447 96.593 56.34 C 96.666 56.235 96.703 56.05 96.703 55.788 L 96.703 52.995 C 96.703 52.726 96.666 52.54 96.593 52.437 C 96.52 52.332 96.387 52.28 96.195 52.28 L 96.195 52.15 L 98.267 52.15 C 99.032 52.15 99.644 52.367 100.104 52.803 C 100.563 53.238 100.792 53.792 100.792 54.464 C 100.792 55.123 100.575 55.649 100.14 56.041 C 99.705 56.433 99.099 56.629 98.324 56.629 L 96.195 56.629 Z " fill="rgb(43,43,43)"/><path d=" M 108.247 52.149 L 108.247 52.287 C 107.918 52.287 107.647 52.577 107.433 53.158 L 106.111 56.69 L 105.984 56.69 L 104.597 53.055 C 104.467 52.719 104.355 52.507 104.261 52.418 C 104.167 52.331 104.031 52.285 103.855 52.28 L 103.855 52.149 L 105.483 52.149 L 105.483 52.28 C 105.221 52.28 105.09 52.38 105.09 52.581 C 105.09 52.648 105.107 52.723 105.14 52.806 L 106.237 55.697 L 107.277 52.906 C 107.32 52.787 107.342 52.683 107.342 52.596 C 107.342 52.386 107.208 52.28 106.941 52.28 L 106.941 52.149 L 108.247 52.149 Z " fill="rgb(43,43,43)"/><path d=" M 112.2 54.376 C 112.2 55.03 112.355 55.559 112.666 55.962 C 112.977 56.366 113.384 56.568 113.888 56.568 C 114.398 56.568 114.811 56.362 115.127 55.949 C 115.444 55.537 115.603 55.023 115.603 54.406 C 115.603 53.745 115.447 53.213 115.137 52.812 C 114.826 52.411 114.424 52.21 113.93 52.21 C 113.406 52.21 112.986 52.408 112.672 52.803 C 112.358 53.197 112.2 53.722 112.2 54.376 Z  M 111.513 54.368 C 111.513 53.704 111.742 53.149 112.2 52.705 C 112.658 52.261 113.23 52.039 113.915 52.039 C 114.58 52.039 115.141 52.264 115.601 52.715 C 116.06 53.165 116.29 53.717 116.29 54.368 C 116.29 55.033 116.059 55.594 115.595 56.053 C 115.132 56.511 114.566 56.74 113.896 56.74 C 113.229 56.74 112.665 56.511 112.204 56.053 C 111.743 55.594 111.513 55.033 111.513 54.368 Z " fill="rgb(43,43,43)"/><path d=" M 124.776 54.689 L 124.776 54.819 C 124.577 54.819 124.435 54.864 124.35 54.955 C 124.265 55.045 124.222 55.202 124.222 55.423 L 124.222 56.628 C 124.118 56.657 123.922 56.682 123.636 56.705 C 123.35 56.728 123.128 56.74 122.97 56.74 C 122.142 56.74 121.497 56.536 121.035 56.129 C 120.574 55.722 120.342 55.184 120.342 54.518 C 120.342 54.052 120.444 53.631 120.646 53.257 C 120.848 52.882 121.131 52.587 121.494 52.368 C 121.856 52.148 122.241 52.039 122.649 52.039 C 122.893 52.039 123.159 52.082 123.447 52.168 C 123.63 52.222 123.77 52.249 123.867 52.249 C 123.994 52.249 124.078 52.199 124.119 52.1 L 124.26 52.1 L 124.26 53.421 L 124.134 53.421 C 124.083 53.055 123.917 52.761 123.636 52.541 C 123.355 52.32 123.026 52.211 122.649 52.211 C 122.175 52.211 121.788 52.4 121.484 52.778 C 121.181 53.156 121.03 53.644 121.03 54.242 C 121.03 54.899 121.205 55.444 121.555 55.877 C 121.905 56.31 122.345 56.526 122.874 56.526 C 123.376 56.526 123.626 56.367 123.626 56.048 L 123.626 55.561 C 123.626 55.286 123.59 55.093 123.518 54.984 C 123.445 54.874 123.317 54.819 123.134 54.819 L 122.962 54.819 L 122.962 54.689 L 124.776 54.689 Z " fill="rgb(43,43,43)"/><path d=" M 129.615 54.54 L 130.878 54.54 L 130.243 52.642 L 129.615 54.54 Z  M 131.036 56.629 L 131.036 56.5 C 131.292 56.5 131.421 56.41 131.421 56.231 C 131.421 56.18 131.409 56.122 131.386 56.059 L 130.97 54.815 L 129.532 54.815 L 129.226 55.714 C 129.15 55.941 129.112 56.106 129.112 56.208 C 129.112 56.398 129.23 56.494 129.466 56.5 L 129.466 56.629 L 128.309 56.629 L 128.309 56.5 C 128.475 56.476 128.603 56.422 128.695 56.335 C 128.787 56.248 128.879 56.068 128.974 55.795 L 130.213 52.1 L 130.673 52.1 L 131.974 55.96 C 132.05 56.187 132.13 56.333 132.213 56.399 C 132.296 56.466 132.429 56.5 132.612 56.5 L 132.612 56.629 L 131.036 56.629 Z " fill="rgb(43,43,43)"/><path d=" M 138.108 52.322 L 137.256 52.322 L 137.256 55.629 C 137.256 55.947 137.294 56.164 137.371 56.281 C 137.448 56.399 137.6 56.458 137.829 56.458 L 138.291 56.458 C 138.841 56.458 139.274 56.28 139.59 55.924 C 139.905 55.57 140.063 55.085 140.063 54.471 C 140.063 53.82 139.89 53.298 139.545 52.907 C 139.201 52.517 138.722 52.322 138.108 52.322 Z  M 136.157 56.629 L 136.157 56.499 C 136.349 56.499 136.481 56.447 136.555 56.34 C 136.628 56.235 136.665 56.05 136.665 55.788 L 136.665 52.995 C 136.665 52.726 136.628 52.54 136.555 52.437 C 136.481 52.332 136.349 52.28 136.157 52.28 L 136.157 52.15 L 138.229 52.15 C 138.994 52.15 139.606 52.367 140.066 52.803 C 140.525 53.238 140.754 53.792 140.754 54.464 C 140.754 55.123 140.537 55.649 140.102 56.041 C 139.667 56.433 139.062 56.629 138.286 56.629 L 136.157 56.629 Z " fill="rgb(43,43,43)"/><path d=" M 145.406 54.376 C 145.406 55.03 145.561 55.559 145.872 55.962 C 146.183 56.366 146.589 56.568 147.094 56.568 C 147.603 56.568 148.016 56.362 148.333 55.949 C 148.65 55.537 148.808 55.023 148.808 54.406 C 148.808 53.745 148.653 53.213 148.342 52.812 C 148.032 52.411 147.629 52.21 147.136 52.21 C 146.612 52.21 146.192 52.408 145.878 52.803 C 145.563 53.197 145.406 53.722 145.406 54.376 Z  M 144.719 54.368 C 144.719 53.704 144.947 53.149 145.406 52.705 C 145.865 52.261 146.436 52.039 147.121 52.039 C 147.785 52.039 148.347 52.264 148.807 52.715 C 149.266 53.165 149.496 53.717 149.496 54.368 C 149.496 55.033 149.264 55.594 148.801 56.053 C 148.338 56.511 147.772 56.74 147.102 56.74 C 146.435 56.74 145.871 56.511 145.41 56.053 C 144.949 55.594 144.719 55.033 144.719 54.368 Z " fill="rgb(43,43,43)"/><path d=" M 155.744 52.085 L 155.87 52.085 L 155.87 53.135 L 155.736 53.135 C 155.706 52.845 155.601 52.618 155.421 52.455 C 155.242 52.292 155.016 52.211 154.744 52.211 C 154.501 52.211 154.306 52.272 154.159 52.394 C 154.012 52.516 153.937 52.679 153.937 52.883 C 153.937 53.071 153.998 53.243 154.121 53.399 C 154.243 53.554 154.508 53.754 154.915 53.998 C 155.388 54.28 155.707 54.527 155.87 54.738 C 156.033 54.95 156.115 55.192 156.115 55.464 C 156.115 55.815 155.99 56.116 155.741 56.366 C 155.491 56.615 155.191 56.739 154.84 56.739 C 154.637 56.739 154.378 56.684 154.063 56.572 C 153.933 56.526 153.85 56.503 153.815 56.503 C 153.741 56.503 153.685 56.56 153.644 56.675 L 153.509 56.675 L 153.509 55.464 L 153.644 55.464 C 153.647 55.798 153.755 56.065 153.969 56.267 C 154.184 56.467 154.435 56.568 154.722 56.568 C 154.994 56.568 155.212 56.495 155.376 56.35 C 155.54 56.204 155.621 56.011 155.621 55.769 C 155.621 55.588 155.554 55.415 155.42 55.249 C 155.285 55.084 155.004 54.87 154.575 54.609 C 154.226 54.393 153.993 54.224 153.876 54.098 C 153.759 53.973 153.672 53.837 153.616 53.687 C 153.561 53.538 153.533 53.375 153.533 53.197 C 153.533 52.853 153.645 52.574 153.87 52.36 C 154.096 52.146 154.389 52.039 154.751 52.039 C 154.949 52.039 155.166 52.078 155.4 52.157 C 155.51 52.193 155.586 52.211 155.629 52.211 C 155.665 52.211 155.689 52.203 155.702 52.188 C 155.715 52.173 155.728 52.138 155.744 52.085 Z " fill="rgb(43,43,43)"/><path d=" M 165.254 54.54 L 166.517 54.54 L 165.882 52.642 L 165.254 54.54 Z  M 166.674 56.629 L 166.674 56.5 C 166.931 56.5 167.06 56.41 167.06 56.231 C 167.06 56.18 167.048 56.122 167.025 56.059 L 166.609 54.815 L 165.171 54.815 L 164.866 55.714 C 164.789 55.941 164.751 56.106 164.751 56.208 C 164.751 56.398 164.869 56.494 165.105 56.5 L 165.105 56.629 L 163.949 56.629 L 163.949 56.5 C 164.114 56.476 164.242 56.422 164.334 56.335 C 164.426 56.248 164.519 56.068 164.613 55.795 L 165.853 52.1 L 166.313 52.1 L 167.613 55.96 C 167.69 56.187 167.769 56.333 167.853 56.399 C 167.935 56.466 168.068 56.5 168.252 56.5 L 168.252 56.629 L 166.674 56.629 Z " fill="rgb(43,43,43)"/><path d=" M 174.209 52.085 L 174.335 52.085 L 174.335 53.135 L 174.201 53.135 C 174.171 52.845 174.067 52.618 173.887 52.455 C 173.708 52.292 173.481 52.211 173.209 52.211 C 172.967 52.211 172.772 52.272 172.625 52.394 C 172.477 52.516 172.403 52.679 172.403 52.883 C 172.403 53.071 172.464 53.243 172.586 53.399 C 172.708 53.554 172.973 53.754 173.38 53.998 C 173.854 54.28 174.172 54.527 174.335 54.738 C 174.498 54.95 174.58 55.192 174.58 55.464 C 174.58 55.815 174.455 56.116 174.206 56.366 C 173.957 56.615 173.657 56.739 173.306 56.739 C 173.102 56.739 172.843 56.684 172.529 56.572 C 172.399 56.526 172.316 56.503 172.28 56.503 C 172.207 56.503 172.15 56.56 172.109 56.675 L 171.975 56.675 L 171.975 55.464 L 172.109 55.464 C 172.112 55.798 172.22 56.065 172.435 56.267 C 172.65 56.467 172.901 56.568 173.187 56.568 C 173.459 56.568 173.677 56.495 173.841 56.35 C 174.005 56.204 174.087 56.011 174.087 55.769 C 174.087 55.588 174.019 55.415 173.885 55.249 C 173.751 55.084 173.469 54.87 173.041 54.609 C 172.692 54.393 172.458 54.224 172.342 54.098 C 172.224 53.973 172.138 53.837 172.082 53.687 C 172.026 53.538 171.998 53.375 171.998 53.197 C 171.998 52.853 172.111 52.574 172.336 52.36 C 172.562 52.146 172.855 52.039 173.217 52.039 C 173.415 52.039 173.632 52.078 173.866 52.157 C 173.975 52.193 174.051 52.211 174.094 52.211 C 174.13 52.211 174.155 52.203 174.168 52.188 C 174.18 52.173 174.194 52.138 174.209 52.085 Z " fill="rgb(43,43,43)"/><path d=" M 180.599 52.085 L 180.725 52.085 L 180.725 53.135 L 180.591 53.135 C 180.561 52.845 180.456 52.618 180.276 52.455 C 180.097 52.292 179.87 52.211 179.598 52.211 C 179.357 52.211 179.162 52.272 179.015 52.394 C 178.867 52.516 178.792 52.679 178.792 52.883 C 178.792 53.071 178.854 53.243 178.975 53.399 C 179.098 53.554 179.363 53.754 179.77 53.998 C 180.243 54.28 180.562 54.527 180.725 54.738 C 180.888 54.95 180.97 55.192 180.97 55.464 C 180.97 55.815 180.844 56.116 180.595 56.366 C 180.346 56.615 180.047 56.739 179.695 56.739 C 179.492 56.739 179.233 56.684 178.918 56.572 C 178.788 56.526 178.705 56.503 178.67 56.503 C 178.596 56.503 178.539 56.56 178.499 56.675 L 178.365 56.675 L 178.365 55.464 L 178.499 55.464 C 178.502 55.798 178.61 56.065 178.824 56.267 C 179.039 56.467 179.29 56.568 179.577 56.568 C 179.849 56.568 180.067 56.495 180.231 56.35 C 180.395 56.204 180.477 56.011 180.477 55.769 C 180.477 55.588 180.409 55.415 180.275 55.249 C 180.14 55.084 179.859 54.87 179.43 54.609 C 179.081 54.393 178.847 54.224 178.731 54.098 C 178.614 53.973 178.528 53.837 178.472 53.687 C 178.416 53.538 178.388 53.375 178.388 53.197 C 178.388 52.853 178.501 52.574 178.726 52.36 C 178.951 52.146 179.244 52.039 179.606 52.039 C 179.804 52.039 180.021 52.078 180.255 52.157 C 180.365 52.193 180.441 52.211 180.484 52.211 C 180.52 52.211 180.544 52.203 180.558 52.188 C 180.569 52.173 180.584 52.138 180.599 52.085 Z " fill="rgb(43,43,43)"/><path d=" M 185.48 54.376 C 185.48 55.03 185.635 55.559 185.945 55.962 C 186.256 56.366 186.663 56.568 187.167 56.568 C 187.677 56.568 188.089 56.362 188.407 55.949 C 188.723 55.537 188.882 55.023 188.882 54.406 C 188.882 53.745 188.726 53.213 188.416 52.812 C 188.106 52.411 187.703 52.21 187.21 52.21 C 186.685 52.21 186.266 52.408 185.952 52.803 C 185.637 53.197 185.48 53.722 185.48 54.376 Z  M 184.792 54.368 C 184.792 53.704 185.022 53.149 185.48 52.705 C 185.938 52.261 186.509 52.039 187.194 52.039 C 187.859 52.039 188.42 52.264 188.88 52.715 C 189.339 53.165 189.569 53.717 189.569 54.368 C 189.569 55.033 189.337 55.594 188.875 56.053 C 188.412 56.511 187.844 56.74 187.175 56.74 C 186.508 56.74 185.944 56.511 185.484 56.053 C 185.022 55.594 184.792 55.033 184.792 54.368 Z " fill="rgb(43,43,43)"/><path d=" M 197.569 52.085 L 197.569 53.422 L 197.436 53.422 C 197.329 53.006 197.158 52.701 196.922 52.505 C 196.687 52.308 196.373 52.211 195.981 52.211 C 195.472 52.211 195.069 52.394 194.771 52.761 C 194.473 53.127 194.325 53.616 194.325 54.227 C 194.325 54.896 194.482 55.435 194.796 55.844 C 195.11 56.252 195.522 56.457 196.031 56.457 C 196.737 56.457 197.257 56.129 197.593 55.472 L 197.711 55.583 C 197.561 55.939 197.319 56.222 196.983 56.428 C 196.649 56.636 196.268 56.739 195.839 56.739 C 195.435 56.739 195.06 56.644 194.715 56.453 C 194.37 56.262 194.104 56 193.918 55.664 C 193.73 55.33 193.637 54.945 193.637 54.509 C 193.637 53.797 193.856 53.207 194.294 52.74 C 194.731 52.273 195.284 52.039 195.95 52.039 C 196.175 52.039 196.458 52.078 196.803 52.157 C 196.996 52.203 197.129 52.226 197.203 52.226 C 197.319 52.226 197.398 52.179 197.444 52.085 L 197.569 52.085 Z " fill="rgb(43,43,43)"/><path d=" M 202.921 52.149 L 202.921 52.28 C 202.729 52.28 202.598 52.332 202.524 52.437 C 202.449 52.541 202.413 52.726 202.413 52.994 L 202.413 55.788 C 202.413 56.056 202.449 56.241 202.524 56.344 C 202.598 56.448 202.729 56.499 202.921 56.499 L 202.921 56.629 L 201.309 56.629 L 201.309 56.499 C 201.505 56.499 201.639 56.448 201.71 56.346 C 201.782 56.244 201.817 56.058 201.817 55.788 L 201.817 52.994 C 201.817 52.719 201.782 52.531 201.712 52.43 C 201.642 52.33 201.507 52.28 201.309 52.28 L 201.309 52.149 L 202.921 52.149 Z " fill="rgb(43,43,43)"/><path d=" M 207.737 54.54 L 209 54.54 L 208.365 52.642 L 207.737 54.54 Z  M 209.158 56.629 L 209.158 56.5 C 209.414 56.5 209.543 56.41 209.543 56.231 C 209.543 56.18 209.532 56.122 209.508 56.059 L 209.092 54.815 L 207.654 54.815 L 207.349 55.714 C 207.272 55.941 207.234 56.106 207.234 56.208 C 207.234 56.398 207.352 56.494 207.588 56.5 L 207.588 56.629 L 206.432 56.629 L 206.432 56.5 C 206.597 56.476 206.725 56.422 206.818 56.335 C 206.909 56.248 207.002 56.068 207.096 55.795 L 208.336 52.1 L 208.796 52.1 L 210.097 55.96 C 210.173 56.187 210.253 56.333 210.336 56.399 C 210.418 56.466 210.551 56.5 210.735 56.5 L 210.735 56.629 L 209.158 56.629 Z " fill="rgb(43,43,43)"/><path d=" M 216.23 52.322 L 215.379 52.322 L 215.379 55.629 C 215.379 55.947 215.417 56.164 215.494 56.281 C 215.57 56.399 215.723 56.458 215.952 56.458 L 216.413 56.458 C 216.963 56.458 217.396 56.28 217.711 55.924 C 218.028 55.57 218.186 55.085 218.186 54.471 C 218.186 53.82 218.013 53.298 217.668 52.907 C 217.323 52.517 216.844 52.322 216.23 52.322 Z  M 214.279 56.629 L 214.279 56.499 C 214.472 56.499 214.604 56.447 214.677 56.34 C 214.751 56.235 214.787 56.05 214.787 55.788 L 214.787 52.995 C 214.787 52.726 214.751 52.54 214.677 52.437 C 214.604 52.332 214.472 52.28 214.279 52.28 L 214.279 52.15 L 216.351 52.15 C 217.116 52.15 217.729 52.367 218.188 52.803 C 218.647 53.238 218.877 53.792 218.877 54.464 C 218.877 55.123 218.659 55.649 218.224 56.041 C 217.79 56.433 217.184 56.629 216.408 56.629 L 214.279 56.629 Z " fill="rgb(43,43,43)"/><path d=" M 223.528 54.376 C 223.528 55.03 223.683 55.559 223.994 55.962 C 224.305 56.366 224.711 56.568 225.216 56.568 C 225.725 56.568 226.138 56.362 226.455 55.949 C 226.772 55.537 226.93 55.023 226.93 54.406 C 226.93 53.745 226.775 53.213 226.464 52.812 C 226.155 52.411 225.751 52.21 225.258 52.21 C 224.734 52.21 224.314 52.408 224 52.803 C 223.686 53.197 223.528 53.722 223.528 54.376 Z  M 222.841 54.368 C 222.841 53.704 223.07 53.149 223.528 52.705 C 223.986 52.261 224.558 52.039 225.243 52.039 C 225.907 52.039 226.468 52.264 226.928 52.715 C 227.388 53.165 227.618 53.717 227.618 54.368 C 227.618 55.033 227.385 55.594 226.923 56.053 C 226.46 56.511 225.893 56.74 225.224 56.74 C 224.557 56.74 223.993 56.511 223.532 56.053 C 223.071 55.594 222.841 55.033 222.841 54.368 Z " fill="rgb(43,43,43)"/><path d=" M 233.866 52.085 L 233.992 52.085 L 233.992 53.135 L 233.858 53.135 C 233.828 52.845 233.723 52.618 233.543 52.455 C 233.364 52.292 233.137 52.211 232.865 52.211 C 232.624 52.211 232.429 52.272 232.282 52.394 C 232.134 52.516 232.059 52.679 232.059 52.883 C 232.059 53.071 232.121 53.243 232.242 53.399 C 232.365 53.554 232.63 53.754 233.037 53.998 C 233.51 54.28 233.829 54.527 233.992 54.738 C 234.155 54.95 234.237 55.192 234.237 55.464 C 234.237 55.815 234.111 56.116 233.862 56.366 C 233.613 56.615 233.314 56.739 232.963 56.739 C 232.759 56.739 232.5 56.684 232.185 56.572 C 232.055 56.526 231.972 56.503 231.937 56.503 C 231.864 56.503 231.806 56.56 231.766 56.675 L 231.632 56.675 L 231.632 55.464 L 231.766 55.464 C 231.768 55.798 231.877 56.065 232.091 56.267 C 232.306 56.467 232.557 56.568 232.844 56.568 C 233.116 56.568 233.334 56.495 233.498 56.35 C 233.662 56.204 233.744 56.011 233.744 55.769 C 233.744 55.588 233.676 55.415 233.542 55.249 C 233.407 55.084 233.126 54.87 232.697 54.609 C 232.348 54.393 232.114 54.224 231.998 54.098 C 231.881 53.973 231.795 53.837 231.739 53.687 C 231.683 53.538 231.655 53.375 231.655 53.197 C 231.655 52.853 231.768 52.574 231.993 52.36 C 232.218 52.146 232.511 52.039 232.873 52.039 C 233.071 52.039 233.288 52.078 233.522 52.157 C 233.632 52.193 233.708 52.211 233.751 52.211 C 233.787 52.211 233.811 52.203 233.824 52.188 C 233.836 52.173 233.851 52.138 233.866 52.085 Z " fill="rgb(43,43,43)"/><path d=" M 84.645 54.42 C 84.645 55.126 84.072 55.699 83.365 55.699 C 82.659 55.699 82.086 55.126 82.086 54.42 C 82.086 53.714 82.659 53.14 83.365 53.14 C 84.072 53.14 84.645 53.714 84.645 54.42 Z " fill="rgb(43,43,43)"/><path d=" M 240.702 54.42 C 240.702 55.126 240.129 55.699 239.423 55.699 C 238.716 55.699 238.143 55.126 238.143 54.42 C 238.143 53.714 238.716 53.14 239.423 53.14 C 240.129 53.14 240.702 53.714 240.702 54.42 Z " fill="rgb(43,43,43)"/></g></g></g></svg>